<?xml version="1.0" encoding="UTF-8" standalone="no"?>
<!-- Created with Inkscape (http://www.inkscape.org/) -->

<svg
   width="210mm"
   height="297mm"
   viewBox="0 0 210 297"
   version="1.1"
   id="svg5"
   xml:space="preserve"
   sodipodi:docname="spceRDFoo.svg"
   inkscape:version="1.4 (e7c3feb, 2024-10-09)"
   xmlns:inkscape="http://www.inkscape.org/namespaces/inkscape"
   xmlns:sodipodi="http://sodipodi.sourceforge.net/DTD/sodipodi-0.dtd"
   xmlns:xlink="http://www.w3.org/1999/xlink"
   xmlns="http://www.w3.org/2000/svg"
   xmlns:svg="http://www.w3.org/2000/svg"><sodipodi:namedview
     id="namedview7"
     pagecolor="#ffffff"
     bordercolor="#666666"
     borderopacity="1.0"
     inkscape:showpageshadow="2"
     inkscape:pageopacity="0.0"
     inkscape:pagecheckerboard="0"
     inkscape:deskcolor="#d1d1d1"
     inkscape:document-units="mm"
     showgrid="false"
     inkscape:zoom="0.53070453"
     inkscape:cx="65.950069"
     inkscape:cy="117.76798"
     inkscape:window-width="1920"
     inkscape:window-height="1016"
     inkscape:window-x="0"
     inkscape:window-y="0"
     inkscape:window-maximized="1"
     inkscape:current-layer="layer1" /><defs
     id="defs2">

    
    
    
    
    
    
  <marker
   inkscape:isstock="true"
   style="overflow:visible"
   id="marker13379"
   refX="0"
   refY="0"
   orient="auto"
   inkscape:stockid="Arrow1Mend"><path
     transform="matrix(-0.4,0,0,-0.4,-4,0)"
     style="fill:#000000;fill-opacity:1;fill-rule:evenodd;stroke:#000000;stroke-width:1pt;stroke-opacity:1"
     d="M 0,0 5,-5 -12.5,0 5,5 Z"
     id="path13377"
     inkscape:connector-curvature="0" /></marker><marker
   inkscape:isstock="true"
   style="overflow:visible"
   id="marker13294"
   refX="0"
   refY="0"
   orient="auto"
   inkscape:stockid="DotM"><path
     transform="matrix(0.4,0,0,0.4,2.96,0.4)"
     style="fill:#000000;fill-opacity:1;fill-rule:evenodd;stroke:#000000;stroke-width:1pt;stroke-opacity:1"
     d="m -2.5,-1 c 0,2.76 -2.24,5 -5,5 -2.76,0 -5,-2.24 -5,-5 0,-2.76 2.24,-5 5,-5 2.76,0 5,2.24 5,5 z"
     id="path13292"
     inkscape:connector-curvature="0" /></marker><marker
   style="overflow:visible"
   id="DistanceEnd"
   refX="0"
   refY="0"
   orient="auto"
   inkscape:stockid="DistanceEnd"
   inkscape:isstock="true"><g
     id="g2301"
     style="fill:#000000;fill-opacity:1;stroke:#000000;stroke-opacity:1"><path
       style="fill:#000000;fill-opacity:1;stroke:#000000;stroke-width:1.15;stroke-linecap:square;stroke-opacity:1"
       d="M 0,0 H -2"
       id="path2316"
       inkscape:connector-curvature="0" /><path
       style="fill:#000000;fill-opacity:1;fill-rule:evenodd;stroke:#000000;stroke-opacity:1"
       d="m 0,0 -13,4 4,-4 -4,-4 z"
       id="path2312"
       inkscape:connector-curvature="0" /><path
       style="fill:#000000;fill-opacity:1;stroke:#000000;stroke-width:1;stroke-linecap:square;stroke-opacity:1"
       d="M 0,-4 V 40"
       id="path2314"
       inkscape:connector-curvature="0" /></g></marker><marker
   inkscape:isstock="true"
   style="overflow:visible"
   id="marker13138"
   refX="0"
   refY="0"
   orient="auto"
   inkscape:stockid="Arrow1Mend"><path
     transform="matrix(-0.4,0,0,-0.4,-4,0)"
     style="fill:#000000;fill-opacity:1;fill-rule:evenodd;stroke:#000000;stroke-width:1pt;stroke-opacity:1"
     d="M 0,0 5,-5 -12.5,0 5,5 Z"
     id="path13136"
     inkscape:connector-curvature="0" /></marker><marker
   inkscape:isstock="true"
   style="overflow:visible"
   id="marker13080"
   refX="0"
   refY="0"
   orient="auto"
   inkscape:stockid="Arrow1Mend"><path
     transform="matrix(-0.4,0,0,-0.4,-4,0)"
     style="fill:#000000;fill-opacity:1;fill-rule:evenodd;stroke:#000000;stroke-width:1pt;stroke-opacity:1"
     d="M 0,0 5,-5 -12.5,0 5,5 Z"
     id="path13078"
     inkscape:connector-curvature="0" /></marker><marker
   inkscape:stockid="Arrow1Mend"
   orient="auto"
   refY="0"
   refX="0"
   id="Arrow1Mend"
   style="overflow:visible"
   inkscape:isstock="true"
   inkscape:collect="always"><path
     id="path12585"
     d="M 0,0 5,-5 -12.5,0 5,5 Z"
     style="fill:#000000;fill-opacity:1;fill-rule:evenodd;stroke:#000000;stroke-width:1pt;stroke-opacity:1"
     transform="matrix(-0.4,0,0,-0.4,-4,0)"
     inkscape:connector-curvature="0" /></marker><marker
   inkscape:stockid="TriangleOutL"
   orient="auto"
   refY="0"
   refX="0"
   id="TriangleOutL"
   style="overflow:visible"
   inkscape:isstock="true"><path
     id="path12718"
     d="M 5.77,0 -2.88,5 V -5 Z"
     style="fill:#000000;fill-opacity:1;fill-rule:evenodd;stroke:#000000;stroke-width:1pt;stroke-opacity:1"
     transform="scale(0.8)"
     inkscape:connector-curvature="0" /></marker><marker
   inkscape:stockid="Arrow2Lend"
   orient="auto"
   refY="0"
   refX="0"
   id="Arrow2Lend"
   style="overflow:visible"
   inkscape:isstock="true"><path
     id="path12597"
     style="fill:#000000;fill-opacity:1;fill-rule:evenodd;stroke:#000000;stroke-width:0.625;stroke-linejoin:round;stroke-opacity:1"
     d="M 8.7185878,4.0337352 -2.2072895,0.01601326 8.7185884,-4.0017078 c -1.7454984,2.3720609 -1.7354408,5.6174519 -6e-7,8.035443 z"
     transform="matrix(-1.1,0,0,-1.1,-1.1,0)"
     inkscape:connector-curvature="0" /></marker><marker
   inkscape:stockid="DotM"
   orient="auto"
   refY="0"
   refX="0"
   id="DotM"
   style="overflow:visible"
   inkscape:isstock="true"
   inkscape:collect="always"><path
     id="path12640"
     d="m -2.5,-1 c 0,2.76 -2.24,5 -5,5 -2.76,0 -5,-2.24 -5,-5 0,-2.76 2.24,-5 5,-5 2.76,0 5,2.24 5,5 z"
     style="fill:#000000;fill-opacity:1;fill-rule:evenodd;stroke:#000000;stroke-width:1pt;stroke-opacity:1"
     transform="matrix(0.4,0,0,0.4,2.96,0.4)"
     inkscape:connector-curvature="0" /></marker><marker
   inkscape:stockid="Arrow1Lend"
   orient="auto"
   refY="0"
   refX="0"
   id="Arrow1Lend"
   style="overflow:visible"
   inkscape:isstock="true"><path
     id="path12579"
     d="M 0,0 5,-5 -12.5,0 5,5 Z"
     style="fill:#000000;fill-opacity:1;fill-rule:evenodd;stroke:#000000;stroke-width:1pt;stroke-opacity:1"
     transform="matrix(-0.8,0,0,-0.8,-10,0)"
     inkscape:connector-curvature="0" /></marker><linearGradient
   inkscape:collect="always"
   id="linearGradient12564"><stop
     id="stop12562"
     offset="0"
     style="stop-color:#f2c700;stop-opacity:0;" /><stop
     id="stop12560"
     offset="1"
     style="stop-color:#f2c700;stop-opacity:1;" /></linearGradient><linearGradient
   inkscape:collect="always"
   id="linearGradient12540"><stop
     id="stop12538"
     offset="0"
     style="stop-color:#ff2727;stop-opacity:0;" /><stop
     id="stop12536"
     offset="1"
     style="stop-color:#ff2727;stop-opacity:1;" /></linearGradient><linearGradient
   id="linearGradient12483"
   inkscape:collect="always"><stop
     style="stop-color:#0000ff;stop-opacity:0;"
     offset="0"
     id="stop12489" /><stop
     style="stop-color:#0000ff;stop-opacity:1;"
     offset="1"
     id="stop12487" /></linearGradient><radialGradient
   inkscape:collect="always"
   xlink:href="#linearGradient12483"
   id="radialGradient12485"
   cx="81.07589"
   cy="62.84375"
   fx="81.07589"
   fy="62.84375"
   r="14.04613"
   gradientUnits="userSpaceOnUse"
   gradientTransform="matrix(0.99168118,-2.2580475e-4,2.2580847e-4,0.99167787,73.137197,9.0457671)" /><radialGradient
   inkscape:collect="always"
   xlink:href="#linearGradient12483"
   id="radialGradient12518"
   gradientUnits="userSpaceOnUse"
   gradientTransform="matrix(0.99168118,-2.2580475e-4,2.2580847e-4,0.99167787,57.734667,83.318089)"
   cx="81.07589"
   cy="62.84375"
   fx="81.07589"
   fy="62.84375"
   r="14.04613" /><radialGradient
   inkscape:collect="always"
   xlink:href="#linearGradient12483"
   id="radialGradient12522"
   gradientUnits="userSpaceOnUse"
   gradientTransform="matrix(0.99168118,-2.2580475e-4,2.2580847e-4,0.99167787,-1.9855707,99.571067)"
   cx="81.07589"
   cy="62.84375"
   fx="81.07589"
   fy="62.84375"
   r="14.04613" /><radialGradient
   inkscape:collect="always"
   xlink:href="#linearGradient12540"
   id="radialGradient12542"
   cx="90.147324"
   cy="96.105659"
   fx="90.147324"
   fy="96.105659"
   r="14.04613"
   gradientUnits="userSpaceOnUse"
   gradientTransform="translate(3.4017857,3.779762)" /><radialGradient
   inkscape:collect="always"
   xlink:href="#linearGradient12564"
   id="radialGradient12566"
   cx="42.144348"
   cy="111.98066"
   fx="42.144348"
   fy="111.98066"
   r="14.04613"
   gradientUnits="userSpaceOnUse"
   gradientTransform="translate(18.280425,0.6832343)" /><radialGradient
   inkscape:collect="always"
   xlink:href="#linearGradient12564"
   id="radialGradient12566-0"
   cx="42.144348"
   cy="111.98066"
   fx="42.144348"
   fy="111.98066"
   r="14.04613"
   gradientUnits="userSpaceOnUse"
   gradientTransform="translate(56.478106,19.312243)" /><radialGradient
   inkscape:collect="always"
   xlink:href="#linearGradient12564"
   id="radialGradient12566-4"
   cx="42.144348"
   cy="111.98066"
   fx="42.144348"
   fy="111.98066"
   r="14.04613"
   gradientUnits="userSpaceOnUse"
   gradientTransform="translate(86.946833,-3.4056667)" /><radialGradient
   inkscape:collect="always"
   xlink:href="#linearGradient12564"
   id="radialGradient12566-7"
   cx="42.144348"
   cy="111.98066"
   fx="42.144348"
   fy="111.98066"
   r="14.04613"
   gradientUnits="userSpaceOnUse"
   gradientTransform="translate(40.976474,-48.841486)" /><radialGradient
   inkscape:collect="always"
   xlink:href="#linearGradient12564"
   id="radialGradient12566-6"
   cx="42.144348"
   cy="111.98066"
   fx="42.144348"
   fy="111.98066"
   r="14.04613"
   gradientUnits="userSpaceOnUse"
   gradientTransform="translate(75.454243,-42.961557)" /><radialGradient
   inkscape:collect="always"
   xlink:href="#linearGradient12564"
   id="radialGradient12566-3"
   cx="42.144348"
   cy="111.98066"
   fx="42.144348"
   fy="111.98066"
   r="14.04613"
   gradientUnits="userSpaceOnUse"
   gradientTransform="translate(22.267607,-81.982908)" /><radialGradient
   inkscape:collect="always"
   xlink:href="#linearGradient12564"
   id="radialGradient12566-9"
   cx="42.144348"
   cy="111.98066"
   fx="42.144348"
   fy="111.98066"
   r="14.04613"
   gradientUnits="userSpaceOnUse"
   gradientTransform="translate(5.6968965,-31.736237)" /><radialGradient
   inkscape:collect="always"
   xlink:href="#linearGradient12564"
   id="radialGradient12566-44"
   cx="42.144348"
   cy="111.98066"
   fx="42.144348"
   fy="111.98066"
   r="14.04613"
   gradientUnits="userSpaceOnUse"
   gradientTransform="translate(-21.831865,1.9397237)" /><radialGradient
   inkscape:collect="always"
   xlink:href="#linearGradient12564"
   id="radialGradient12566-1"
   cx="42.144348"
   cy="111.98066"
   fx="42.144348"
   fy="111.98066"
   r="14.04613"
   gradientUnits="userSpaceOnUse"
   gradientTransform="translate(74.385165,60.47175)" /><radialGradient
   inkscape:collect="always"
   xlink:href="#linearGradient12564"
   id="radialGradient12566-5"
   cx="42.144348"
   cy="111.98066"
   fx="42.144348"
   fy="111.98066"
   r="14.04613"
   gradientUnits="userSpaceOnUse"
   gradientTransform="translate(128.64088,7.285114)" /><radialGradient
   inkscape:collect="always"
   xlink:href="#linearGradient12564"
   id="radialGradient12566-8"
   cx="42.144348"
   cy="111.98066"
   fx="42.144348"
   fy="111.98066"
   r="14.04613"
   gradientUnits="userSpaceOnUse"
   gradientTransform="translate(71.445196,-83.586526)" /><radialGradient
   inkscape:collect="always"
   xlink:href="#linearGradient12564"
   id="radialGradient13787"
   gradientUnits="userSpaceOnUse"
   gradientTransform="translate(-0.45030279,40.159266)"
   cx="42.144348"
   cy="111.98066"
   fx="42.144348"
   fy="111.98066"
   r="14.04613" /></defs><g
     inkscape:label="Layer 1"
     inkscape:groupmode="layer"
     id="layer1"
     transform="translate(267.0895,-9.4297918)"><text
       xml:space="preserve"
       style="font-style:normal;font-variant:normal;font-weight:normal;font-stretch:normal;font-size:32px;line-height:1.25;font-family:sans-serif;-inkscape-font-specification:sans-serif;letter-spacing:0px;word-spacing:0px;fill:#000000;fill-opacity:1;stroke:none"
       x="24.899681"
       y="92.255753"
       id="text3299"
       transform="matrix(0.26458333,0,0,0.26458333,-57.198,97.483984)"><tspan
         sodipodi:role="line"
         id="tspan3297"
         x="24.899681"
         y="92.255753" /></text><g
       id="g4200"
       inkscape:export-filename="spceRDFoo.pdf"
       inkscape:export-xdpi="150"
       inkscape:export-ydpi="150"
       transform="matrix(0.23411119,0,0,0.23411119,-202.60769,8.4557512)"><path
         style="fill:none;stroke:#00657d;stroke-width:3.77953;stroke-dasharray:7.55906, 7.55906;stroke-dashoffset:0;stroke-opacity:1"
         d="m 111.5,730.5 102.09076,0.25469 c 97.77791,0.24394 102.51798,0.71481 104.10154,-1.035 3.00028,-3.31528 5.07863,-26.3452 7.32672,-76.21969 2.1478,-47.64949 4.51615,-140.74694 8.45865,-332.5 3.52863,-171.62388 5.95787,-250.764732 8.67905,-282.75 1.6385,-19.259327 2.56871,-26.25 3.49295,-26.25 1.60981,0 1.92567,2.046303 4.32196,28 1.80798,19.58179 4.37162,65.08402 8.53565,151.5 5.58551,115.91559 11.64867,199.79532 16.95521,234.56389 5.31406,34.81782 8.27439,46.20493 14.43059,55.50824 7.39567,11.17643 7.72652,11.43016 16.41826,12.5916 6.73183,0.89954 8.0463,0.82259 9.57462,-0.56052 1.01443,-0.91805 3.51055,-1.60321 5.84071,-1.60321 2.49,0 5.75815,-0.96027 8.42126,-2.47439 2.39364,-1.36091 6.26985,-2.7628 8.61379,-3.1153 2.34395,-0.3525 5.33993,-1.48903 6.65773,-2.52561 1.31781,-1.03659 2.8001,-1.8847 3.294,-1.8847 0.49389,0 2.43607,-1.13476 4.31594,-2.52168 1.87987,-1.38693 5.09684,-2.97377 7.14881,-3.5263 2.05198,-0.55254 5.05378,-2.11779 6.67069,-3.47832 1.6169,-1.36054 3.57494,-2.4737 4.35119,-2.4737 0.77625,0 2.93621,-1.125 4.79992,-2.5 2.36855,-1.74746 4.67412,-2.5 7.65933,-2.5 2.34893,0 6.2673,-0.67784 8.7075,-1.50631 2.4402,-0.82847 5.12076,-1.24381 5.95681,-0.92299 0.83604,0.32082 2.45118,0.085 3.58919,-0.52405 1.57691,-0.84394 2.72567,-0.76783 4.82918,0.31994 1.51804,0.78501 5.4596,1.74631 8.75903,2.13624 3.29943,0.38992 6.99563,1.3363 8.21378,2.10306 1.21815,0.76676 2.92899,1.39411 3.80188,1.39411 0.87288,0 3.25122,0.86152 5.28518,1.9145 7.62712,3.94852 15.05994,7.04438 19.08301,7.9483 2.28557,0.51354 5.15898,1.58 6.38535,2.36992 2.87999,1.85504 8.18519,3.79147 13.22976,4.82895 2.2,0.45245 6.25,1.33129 9,1.95296 2.75,0.62167 9.275,1.17614 14.5,1.23215 8.03567,0.0861 11.11847,-0.39369 20,-3.1129 5.775,-1.7681 14.325,-4.96871 19,-7.11246 4.675,-2.14376 10.975,-4.43069 14,-5.08208 3.025,-0.65138 6.4,-1.59143 7.5,-2.08898 1.1,-0.49756 4.25,-1.29994 7,-1.78306 2.75,-0.48312 8.34811,-1.61976 12.44024,-2.52586 5.60892,-1.24195 10.65475,-1.53386 20.5,-1.18594 7.18287,0.25383 13.95976,0.47479 15.05976,0.49103 1.1,0.0162 2.45,0.0381 3,0.0485 3.34305,0.0636 16.40629,2.11064 18.5,2.89903 1.375,0.51776 5.64087,1.27279 9.47971,1.67783 3.83885,0.40505 7.85907,1.35238 8.93384,2.10518 1.07476,0.75279 2.97249,1.11312 4.21718,0.80072 1.24468,-0.31239 3.95819,-0.009 6.03003,0.67522 2.07183,0.68377 6.93323,1.3859 10.8031,1.56028 3.86988,0.17439 11.31114,0.59162 16.53614,0.92719 5.225,0.33556 13.55,0.61536 18.5,0.62178 14.78277,0.0192 55.35151,-1.99098 64.8118,-3.21137 4.84649,-0.6252 9.80002,-0.8887 11.00784,-0.58555 1.20783,0.30314 4.89252,0.17262 8.18821,-0.29004 7.61687,-1.06931 16.49215,-0.27863 16.49215,1.46923 0,1.22843 -6.08715,1.58986 -24,1.42503 -2.475,-0.0228 -9.225,0.45034 -15,1.05137 -8.62103,0.89722 -43.82549,2.86479 -58,3.24161 -5.6252,0.14954 -28.60554,-1.22669 -40,-2.3955 -5.775,-0.59238 -12.34249,-1.14231 -14.59441,-1.22207 -2.25193,-0.0798 -4.72693,-0.64674 -5.5,-1.25996 -1.30023,-1.03137 -5.67294,-1.94629 -13.61105,-2.84789 -1.76301,-0.20024 -3.69439,-0.66625 -4.29196,-1.03556 -0.59757,-0.36932 -4.55511,-1.08112 -8.79454,-1.58177 -22.88873,-2.70301 -39.48001,-2.67753 -52.20804,0.0802 -5.225,1.13208 -10.85,2.54344 -12.5,3.13635 -1.65,0.59292 -4.8,1.44585 -7,1.89541 -7.82173,1.59833 -11.50782,2.77528 -14.82907,4.73487 -4.03851,2.38278 -20.46841,8.22437 -23.21866,8.25531 -1.07375,0.0121 -3.92505,0.91707 -6.33623,2.01108 -3.98151,1.80653 -5.40716,1.90736 -15.53021,1.09842 -6.13044,-0.48988 -13.83266,-1.65558 -17.11604,-2.59045 -10.37566,-2.95422 -15.93386,-4.80949 -17.09118,-5.70485 -0.61676,-0.47717 -3.54176,-1.58126 -6.5,-2.45355 -5.1871,-1.52951 -13.31636,-4.88206 -19.20965,-7.92219 C 530.11189,471.65719 527.89732,471 526.7477,471 c -1.14962,0 -2.89863,-0.73161 -3.8867,-1.62579 -1.01446,-0.91807 -4.53118,-1.91937 -8.07874,-2.30022 -3.45524,-0.37094 -7.30406,-1.23515 -8.55293,-1.92046 -1.24886,-0.68531 -2.79607,-0.9213 -3.43823,-0.52442 -0.64216,0.39687 -2.77036,0.84604 -4.72933,0.99815 -9.5544,0.74186 -18.1825,2.40574 -20.56289,3.96543 -4.45234,2.91729 -11.07869,6.44263 -19.49888,10.37377 -2.8665,1.33829 -7.3708,3.87224 -11,6.18821 -1.375,0.87745 -4.75,2.13127 -7.5,2.78627 -2.75,0.655 -6.88013,2.28624 -9.17807,3.62498 -2.32878,1.35672 -5.77464,2.43408 -7.78518,2.43408 -1.98392,0 -4.725,0.73246 -6.0913,1.6277 -1.815,1.18923 -3.48914,1.43245 -6.21482,0.90287 -3.41869,-0.66422 -5.54705,-0.94196 -10.53161,-1.37435 -4.57967,-0.39725 -15.12643,-16.02018 -18.67023,-27.65622 -10.32551,-33.9037 -17.3906,-113.92812 -26.04458,-295 -4.4904,-93.95515 -7.71773,-158.39138 -9.33454,-161.5 -2.45122,-4.712924 -5.37106,108.1287 -9.14371,289.5 -6.22979,299.49898 -8.5815,375.36907 -12.67391,408.88221 -1.90998,15.641 -2.78814,18.90959 -3.8179,20.69319 -0.5289,0.91608 -1.93678,2.2296 -3.18406,2.2296 -42.47324,0 -102.66504,0.94032 -102.66504,0.94032 L 111.5,734.5 Z"
         id="path350"
         transform="matrix(0.26458333,0,0,0.26458333,-18.572151,9.0551142)"
         sodipodi:nodetypes="csssssssssssssssssssssssssssssssssssssssssssscsssscsssssssssssssssssssssssssssssssssssssssssssssssssccc" /><path
         style="fill:none;stroke:#000000;stroke-width:1px;stroke-linecap:butt;stroke-linejoin:miter;stroke-opacity:1"
         d="M 110.52598,1.4161044 V 757.93411 h 825.37554"
         id="path3131"
         transform="matrix(0.26458333,0,0,0.26458333,-18.572151,9.0551142)"
         sodipodi:nodetypes="ccc" /><path
         style="opacity:1;fill:none;stroke:#000000;stroke-width:1px;stroke-linecap:butt;stroke-linejoin:miter;stroke-opacity:1"
         d="M 794.88024,740.43391 V 757.9341"
         id="path3133"
         transform="matrix(0.26458333,0,0,0.26458333,-18.541884,9.0551142)" /><path
         style="fill:none;stroke:#000000;stroke-width:1px;stroke-linecap:butt;stroke-linejoin:miter;stroke-opacity:1"
         d="M 624.0717,740.40307 V 757.9341"
         id="path3135"
         transform="matrix(0.26458333,0,0,0.26458333,-18.593962,9.0551142)" /><path
         style="fill:none;stroke:#000000;stroke-width:1px;stroke-linecap:butt;stroke-linejoin:miter;stroke-opacity:1"
         d="m 453.05097,740.4004 v 17.5337"
         id="path3137"
         transform="matrix(0.26458333,0,0,0.26458333,-18.589898,9.0551142)" /><path
         style="opacity:1;fill:none;stroke:#000000;stroke-width:1px;stroke-linecap:butt;stroke-linejoin:miter;stroke-opacity:1"
         d="M 281.65854,740.36624 V 757.9341"
         id="path3139"
         transform="matrix(0.26458333,0,0,0.26458333,-18.487488,9.0551142)" /><path
         style="opacity:1;fill:none;stroke:#000000;stroke-width:1px;stroke-linecap:butt;stroke-linejoin:miter;stroke-opacity:1"
         d="M 128.63935,604.42418 H 110.52598"
         id="path3141"
         transform="matrix(0.26458333,0,0,0.26458333,-18.572151,8.9506917)" /><path
         style="fill:none;stroke:#000000;stroke-width:1px;stroke-linecap:butt;stroke-linejoin:miter;stroke-opacity:1"
         d="M 128.67334,475.4799 H 110.52598"
         id="path3143"
         transform="matrix(0.26458333,0,0,0.26458333,-18.572151,9.0662887)" /><path
         style="fill:none;stroke:#000000;stroke-width:1px;stroke-linecap:butt;stroke-linejoin:miter;stroke-opacity:1"
         d="M 128.57,347.47263 H 110.52598"
         id="path3145"
         transform="matrix(0.26458333,0,0,0.26458333,-18.572151,8.9339684)" /><path
         style="fill:none;stroke:#000000;stroke-width:1px;stroke-linecap:butt;stroke-linejoin:miter;stroke-opacity:1"
         d="M 128.54347,218.50591 H 110.52598"
         id="path3147"
         transform="matrix(0.26458333,0,0,0.26458333,-18.572151,9.0555026)" /><path
         style="opacity:1;fill:none;stroke:#000000;stroke-width:1px;stroke-linecap:butt;stroke-linejoin:miter;stroke-opacity:1"
         d="M 128.47603,90.374001 H 110.52598"
         id="path3149"
         transform="matrix(0.26458333,0,0,0.26458333,-18.572151,8.9561597)" /><text
         xml:space="preserve"
         style="font-style:normal;font-variant:normal;font-weight:normal;font-stretch:normal;font-size:32px;line-height:1.25;font-family:sans-serif;-inkscape-font-specification:sans-serif;letter-spacing:0px;word-spacing:0px;fill:#000000;fill-opacity:1;stroke:none"
         x="24.899681"
         y="92.255753"
         id="text3205"
         transform="matrix(0.26458333,0,0,0.26458333,-10.864426,10.917724)"><tspan
           sodipodi:role="line"
           id="tspan3203"
           x="24.899681"
           y="92.255753">2.5</tspan></text><text
         xml:space="preserve"
         style="font-style:normal;font-variant:normal;font-weight:normal;font-stretch:normal;font-size:32px;line-height:1.25;font-family:sans-serif;-inkscape-font-specification:sans-serif;letter-spacing:0px;word-spacing:0px;fill:#000000;fill-opacity:1;stroke:none"
         x="24.899681"
         y="92.255753"
         id="text3263"
         transform="matrix(0.26458333,0,0,0.26458333,-11.042193,45.088845)"><tspan
           sodipodi:role="line"
           id="tspan3261"
           x="24.899681"
           y="92.255753">2.0</tspan></text><text
         xml:space="preserve"
         style="font-style:normal;font-variant:normal;font-weight:normal;font-stretch:normal;font-size:32px;line-height:1.25;font-family:sans-serif;-inkscape-font-specification:sans-serif;letter-spacing:0px;word-spacing:0px;fill:#000000;fill-opacity:1;stroke:none"
         x="24.899681"
         y="92.255753"
         id="text3267"
         transform="matrix(0.26458333,0,0,0.26458333,-10.864426,79.148346)"><tspan
           sodipodi:role="line"
           id="tspan3265"
           x="24.899681"
           y="92.255753">1.5</tspan></text><text
         xml:space="preserve"
         style="font-style:normal;font-variant:normal;font-weight:normal;font-stretch:normal;font-size:32px;line-height:1.25;font-family:sans-serif;-inkscape-font-specification:sans-serif;letter-spacing:0px;word-spacing:0px;fill:#000000;fill-opacity:1;stroke:none"
         x="24.899681"
         y="92.255753"
         id="text3271"
         transform="matrix(0.26458333,0,0,0.26458333,-11.042193,113.31947)"><tspan
           sodipodi:role="line"
           id="tspan3269"
           x="24.899681"
           y="92.255753">1.0</tspan></text><text
         xml:space="preserve"
         style="font-style:normal;font-variant:normal;font-weight:normal;font-stretch:normal;font-size:32px;line-height:1.25;font-family:sans-serif;-inkscape-font-specification:sans-serif;letter-spacing:0px;word-spacing:0px;fill:#000000;fill-opacity:1;stroke:none"
         x="24.899681"
         y="92.255753"
         id="text3275"
         transform="matrix(0.26458333,0,0,0.26458333,-10.864426,147.49059)"><tspan
           sodipodi:role="line"
           id="tspan3273"
           x="24.899681"
           y="92.255753">0.5</tspan></text><text
         xml:space="preserve"
         style="font-style:normal;font-variant:normal;font-weight:normal;font-stretch:normal;font-size:32px;line-height:1.25;font-family:sans-serif;-inkscape-font-specification:sans-serif;letter-spacing:0px;word-spacing:0px;fill:#000000;fill-opacity:1;stroke:none"
         x="24.899681"
         y="92.255753"
         id="text3279"
         transform="matrix(0.26458333,0,0,0.26458333,-2.9641329,181.66171)"><tspan
           sodipodi:role="line"
           id="tspan3277"
           x="24.899681"
           y="92.255753">0</tspan></text><text
         xml:space="preserve"
         style="font-style:normal;font-variant:normal;font-weight:normal;font-stretch:normal;font-size:32px;line-height:1.25;font-family:sans-serif;-inkscape-font-specification:sans-serif;letter-spacing:0px;word-spacing:0px;fill:#000000;fill-opacity:1;stroke:none"
         x="24.899681"
         y="92.255753"
         id="text3283"
         transform="matrix(0.26458333,0,0,0.26458333,1.5792439,194.12401)"><tspan
           sodipodi:role="line"
           id="tspan3281"
           x="24.899681"
           y="92.255753">0</tspan></text><text
         xml:space="preserve"
         style="font-style:normal;font-variant:normal;font-weight:normal;font-stretch:normal;font-size:32px;line-height:1.25;font-family:sans-serif;-inkscape-font-specification:sans-serif;letter-spacing:0px;word-spacing:0px;fill:#000000;fill-opacity:1;stroke:none"
         x="24.899681"
         y="92.255753"
         id="text3287"
         transform="matrix(0.26458333,0,0,0.26458333,42.858914,193.69784)"><tspan
           sodipodi:role="line"
           id="tspan3285"
           x="24.899681"
           y="92.255753">0.2</tspan></text><text
         xml:space="preserve"
         style="font-style:normal;font-variant:normal;font-weight:normal;font-stretch:normal;font-size:32px;line-height:1.25;font-family:sans-serif;-inkscape-font-specification:sans-serif;letter-spacing:0px;word-spacing:0px;fill:#000000;fill-opacity:1;stroke:none"
         x="24.899681"
         y="92.255753"
         id="text3291"
         transform="matrix(0.26458333,0,0,0.26458333,87.918049,193.69784)"><tspan
           sodipodi:role="line"
           id="tspan3289"
           x="24.899681"
           y="92.255753">0.4</tspan></text><text
         xml:space="preserve"
         style="font-style:normal;font-variant:normal;font-weight:normal;font-stretch:normal;font-size:32px;line-height:1.25;font-family:sans-serif;-inkscape-font-specification:sans-serif;letter-spacing:0px;word-spacing:0px;fill:#000000;fill-opacity:1;stroke:none"
         x="24.899681"
         y="92.255753"
         id="text3295"
         transform="matrix(0.26458333,0,0,0.26458333,133.19216,193.69784)"><tspan
           sodipodi:role="line"
           id="tspan3293"
           x="24.899681"
           y="92.255753">0.6</tspan></text><text
         xml:space="preserve"
         style="font-style:normal;font-variant:normal;font-weight:normal;font-stretch:normal;font-size:32px;line-height:1.25;font-family:sans-serif;-inkscape-font-specification:sans-serif;letter-spacing:0px;word-spacing:0px;fill:#000000;fill-opacity:1;stroke:none"
         x="24.899681"
         y="92.255753"
         id="text3259"
         transform="matrix(0.26458333,0,0,0.26458333,178.46007,193.69784)"><tspan
           sodipodi:role="line"
           id="tspan3257"
           x="24.899681"
           y="92.255753">0.8</tspan></text><g
         id="g3739"
         transform="rotate(-90,-62.070504,191.19157)"><g
           style="fill:#000000;fill-opacity:1;stroke-width:0.868672"
           id="g32"
           transform="matrix(1.2183306,0,0,1.2183306,-105.93789,145.22624)">
      <g
   id="use30"
   transform="translate(91.925003,81.962997)"
   style="stroke-width:0.868672">
        <path
   style="stroke:none;stroke-width:0.868672"
   d="M 4.6875,-3.765625 C 4.703125,-3.8125 4.71875,-3.875 4.71875,-3.9375 c 0,-0.171875 -0.109375,-0.265625 -0.28125,-0.265625 -0.09375,0 -0.375,0.0625 -0.40625,0.421875 -0.1875,-0.359375 -0.53125,-0.625 -0.9375,-0.625 -1.125,0 -2.359375,1.390625 -2.359375,2.828125 0,0.984375 0.59375,1.578125 1.3125,1.578125 0.59375,0 1.0625,-0.46875 1.15625,-0.578125 L 3.21875,-0.5625 C 3.015625,0.3125 2.890625,0.734375 2.890625,0.75 2.84375,0.84375 2.515625,1.828125 1.453125,1.828125 1.265625,1.828125 0.9375,1.8125 0.65625,1.71875 0.953125,1.640625 1.0625,1.375 1.0625,1.203125 c 0,-0.15625 -0.109375,-0.34375 -0.375,-0.34375 -0.21875,0 -0.53125,0.171875 -0.53125,0.578125 0,0.40625 0.359375,0.609375 1.3125,0.609375 1.25,0 1.96875,-0.78125 2.125,-1.375 z M 3.40625,-1.28125 C 3.34375,-1.015625 3.109375,-0.765625 2.890625,-0.578125 2.6875,-0.40625 2.375,-0.21875 2.078125,-0.21875 c -0.5,0 -0.640625,-0.515625 -0.640625,-0.921875 0,-0.46875 0.28125,-1.65625 0.5625,-2.15625 C 2.265625,-3.78125 2.6875,-4.1875 3.109375,-4.1875 c 0.65625,0 0.796875,0.8125 0.796875,0.859375 0,0.046875 -0.015625,0.109375 -0.03125,0.140625 z m 0,0"
   id="path59" />
      </g>
    </g><g
           style="fill:#000000;fill-opacity:1;stroke-width:1.39755"
           id="g36"
           transform="matrix(0.75727338,0,0,0.75727338,-62.271629,184.45137)">
      <g
   id="use34"
   transform="translate(96.677002,83.457001)"
   style="stroke-width:1.39755">
        <path
   style="stroke:none;stroke-width:1.39755"
   d="m 5.78125,-2.96875 c 0,-1.09375 -0.796875,-1.9375 -2.03125,-1.9375 -1.65625,0 -3.265625,1.5625 -3.265625,3.140625 0,1.125 0.828125,1.90625 2.03125,1.90625 1.65625,0 3.265625,-1.515625 3.265625,-3.109375 z m -3.21875,2.875 c -0.734375,0 -1.359375,-0.5 -1.359375,-1.53125 0,-0.359375 0.09375,-1.34375 0.734375,-2.140625 0.46875,-0.5625 1.140625,-0.90625 1.765625,-0.90625 0.71875,0 1.390625,0.453125 1.390625,1.46875 0,0.5 -0.21875,1.53125 -0.859375,2.265625 C 3.75,-0.375 3.109375,-0.09375 2.5625,-0.09375 Z m 0,0"
   id="path63" />
      </g>
    </g><g
           style="fill:#000000;fill-opacity:1;stroke-width:1.39755"
           id="g40"
           transform="matrix(0.75727338,0,0,0.75727338,-62.271629,184.45137)">
      <g
   id="use38"
   transform="translate(102.95272,83.457001)"
   style="stroke-width:1.39755">
        <path
   style="stroke:none;stroke-width:1.39755"
   d="m 5.78125,-2.96875 c 0,-1.09375 -0.796875,-1.9375 -2.03125,-1.9375 -1.65625,0 -3.265625,1.5625 -3.265625,3.140625 0,1.125 0.828125,1.90625 2.03125,1.90625 1.65625,0 3.265625,-1.515625 3.265625,-3.109375 z m -3.21875,2.875 c -0.734375,0 -1.359375,-0.5 -1.359375,-1.53125 0,-0.359375 0.09375,-1.34375 0.734375,-2.140625 0.46875,-0.5625 1.140625,-0.90625 1.765625,-0.90625 0.71875,0 1.390625,0.453125 1.390625,1.46875 0,0.5 -0.21875,1.53125 -0.859375,2.265625 C 3.75,-0.375 3.109375,-0.09375 2.5625,-0.09375 Z m 0,0"
   id="path67" />
      </g>
    </g><g
           style="fill:#000000;fill-opacity:1"
           id="g44"
           transform="matrix(1.05833,0,0,1.05833,-95.476534,158.15162)">
      <g
   id="use42"
   transform="translate(109.724,81.962997)">
        <path
   style="stroke:none"
   d="m 3.296875,2.390625 c 0,-0.03125 0,-0.046875 -0.171875,-0.21875 C 1.890625,0.921875 1.5625,-0.96875 1.5625,-2.5 c 0,-1.734375 0.375,-3.46875 1.609375,-4.703125 0.125,-0.125 0.125,-0.140625 0.125,-0.171875 0,-0.078125 -0.03125,-0.109375 -0.09375,-0.109375 -0.109375,0 -1,0.6875 -1.59375,1.953125 -0.5,1.09375 -0.625,2.203125 -0.625,3.03125 0,0.78125 0.109375,1.984375 0.65625,3.125 C 2.25,1.84375 3.09375,2.5 3.203125,2.5 c 0.0625,0 0.09375,-0.03125 0.09375,-0.109375 z m 0,0"
   id="path71" />
      </g>
    </g><g
           style="fill:#000000;fill-opacity:1"
           id="g48"
           transform="matrix(1.05833,0,0,1.05833,-95.476534,158.15162)">
      <g
   id="use46"
   transform="translate(113.598,81.962997)">
        <path
   style="stroke:none"
   d="m 0.875,-0.59375 c -0.03125,0.15625 -0.09375,0.390625 -0.09375,0.4375 0,0.171875 0.140625,0.265625 0.296875,0.265625 0.125,0 0.296875,-0.078125 0.375,-0.28125 C 1.46875,-0.203125 1.796875,-1.5625 1.84375,-1.75 c 0.078125,-0.328125 0.265625,-1.015625 0.3125,-1.296875 0.046875,-0.125 0.328125,-0.59375 0.5625,-0.8125 0.078125,-0.0625 0.375,-0.328125 0.796875,-0.328125 0.265625,0 0.40625,0.125 0.421875,0.125 -0.296875,0.046875 -0.515625,0.28125 -0.515625,0.546875 0,0.15625 0.109375,0.34375 0.375,0.34375 0.265625,0 0.546875,-0.234375 0.546875,-0.59375 0,-0.34375 -0.3125,-0.640625 -0.828125,-0.640625 C 2.875,-4.40625 2.4375,-3.921875 2.25,-3.640625 2.15625,-4.09375 1.796875,-4.40625 1.328125,-4.40625 0.875,-4.40625 0.6875,-4.015625 0.59375,-3.84375 0.421875,-3.5 0.296875,-2.90625 0.296875,-2.875 c 0,0.109375 0.09375,0.109375 0.109375,0.109375 0.109375,0 0.109375,-0.015625 0.171875,-0.234375 0.171875,-0.703125 0.375,-1.1875 0.734375,-1.1875 0.15625,0 0.296875,0.078125 0.296875,0.453125 0,0.21875 -0.03125,0.328125 -0.15625,0.84375 z m 0,0"
   id="path75" />
      </g>
    </g><g
           style="fill:#000000;fill-opacity:1"
           id="g52"
           transform="matrix(1.05833,0,0,1.05833,-95.476534,158.15162)">
      <g
   id="use50"
   transform="translate(118.37,81.962997)">
        <path
   style="stroke:none"
   d="m 2.875,-2.5 c 0,-0.765625 -0.109375,-1.96875 -0.65625,-3.109375 -0.59375,-1.21875 -1.453125,-1.875 -1.546875,-1.875 -0.0625,0 -0.109375,0.046875 -0.109375,0.109375 0,0.03125 0,0.046875 0.1875,0.234375 0.984375,0.984375 1.546875,2.5625 1.546875,4.640625 0,1.71875 -0.359375,3.46875 -1.59375,4.71875 C 0.5625,2.34375 0.5625,2.359375 0.5625,2.390625 0.5625,2.453125 0.609375,2.5 0.671875,2.5 0.765625,2.5 1.671875,1.8125 2.25,0.546875 2.765625,-0.546875 2.875,-1.65625 2.875,-2.5 Z m 0,0"
   id="path79" />
      </g>
    </g></g><g
         inkscape:label=""
         transform="translate(103.68712,220.32649)"
         id="g3871"><g
   id="surface1"
   transform="matrix(1.05833,0,0,1.05833,-97.6015,-78.8232)">
    <g
   style="fill:#000000;fill-opacity:1"
   id="g26">
      <g
   id="use24"
   transform="translate(91.925003,81.962997)">
        <path
   style="stroke:none"
   d="m 0.875,-0.59375 c -0.03125,0.15625 -0.09375,0.390625 -0.09375,0.4375 0,0.171875 0.140625,0.265625 0.296875,0.265625 0.125,0 0.296875,-0.078125 0.375,-0.28125 C 1.46875,-0.203125 1.796875,-1.5625 1.84375,-1.75 c 0.078125,-0.328125 0.265625,-1.015625 0.3125,-1.296875 0.046875,-0.125 0.328125,-0.59375 0.5625,-0.8125 0.078125,-0.0625 0.375,-0.328125 0.796875,-0.328125 0.265625,0 0.40625,0.125 0.421875,0.125 -0.296875,0.046875 -0.515625,0.28125 -0.515625,0.546875 0,0.15625 0.109375,0.34375 0.375,0.34375 0.265625,0 0.546875,-0.234375 0.546875,-0.59375 0,-0.34375 -0.3125,-0.640625 -0.828125,-0.640625 C 2.875,-4.40625 2.4375,-3.921875 2.25,-3.640625 2.15625,-4.09375 1.796875,-4.40625 1.328125,-4.40625 0.875,-4.40625 0.6875,-4.015625 0.59375,-3.84375 0.421875,-3.5 0.296875,-2.90625 0.296875,-2.875 c 0,0.109375 0.09375,0.109375 0.109375,0.109375 0.109375,0 0.109375,-0.015625 0.171875,-0.234375 0.171875,-0.703125 0.375,-1.1875 0.734375,-1.1875 0.15625,0 0.296875,0.078125 0.296875,0.453125 0,0.21875 -0.03125,0.328125 -0.15625,0.84375 z m 0,0"
   id="path43" />
      </g>
    </g>
    <g
   style="fill:#000000;fill-opacity:1"
   id="g30">
      <g
   id="use28"
   transform="translate(96.699081,81.962997)">
        <path
   style="stroke:none"
   d="m 4.375,-7.09375 c 0.046875,-0.140625 0.046875,-0.171875 0.046875,-0.1875 0,-0.109375 -0.078125,-0.203125 -0.1875,-0.203125 -0.078125,0 -0.140625,0.03125 -0.171875,0.09375 l -3.46875,9.5 C 0.546875,2.25 0.546875,2.28125 0.546875,2.296875 0.546875,2.40625 0.640625,2.5 0.75,2.5 0.875,2.5 0.90625,2.421875 0.96875,2.25 Z m 0,0"
   id="path47" />
      </g>
    </g>
    <g
   style="fill:#000000;fill-opacity:1"
   id="g3868">
      <g
   id="use32"
   transform="translate(101.678,81.962997)">
        <path
   style="stroke:none"
   d="M 1.09375,-3.421875 V -0.75 c 0,0.4375 -0.109375,0.4375 -0.78125,0.4375 V 0 c 0.359375,-0.015625 0.859375,-0.03125 1.140625,-0.03125 0.25,0 0.765625,0.015625 1.109375,0.03125 v -0.3125 c -0.671875,0 -0.78125,0 -0.78125,-0.4375 V -2.59375 C 1.78125,-3.625 2.5,-4.1875 3.125,-4.1875 c 0.640625,0 0.75,0.53125 0.75,1.109375 V -0.75 c 0,0.4375 -0.109375,0.4375 -0.78125,0.4375 V 0 c 0.34375,-0.015625 0.859375,-0.03125 1.125,-0.03125 0.25,0 0.78125,0.015625 1.109375,0.03125 v -0.3125 c -0.515625,0 -0.765625,0 -0.765625,-0.296875 v -1.90625 c 0,-0.859375 0,-1.15625 -0.3125,-1.515625 -0.140625,-0.171875 -0.46875,-0.375 -1.046875,-0.375 C 2.46875,-4.40625 2,-3.984375 1.71875,-3.359375 V -4.40625 L 0.3125,-4.296875 v 0.3125 c 0.703125,0 0.78125,0.0625 0.78125,0.5625 z m 0,0"
   id="path51" />
      </g>
      <g
   id="g3866"
   transform="translate(107.21322,81.962997)">
        <path
   style="stroke:none"
   d="M 1.09375,-3.421875 V -0.75 c 0,0.4375 -0.109375,0.4375 -0.78125,0.4375 V 0 c 0.359375,-0.015625 0.859375,-0.03125 1.140625,-0.03125 0.25,0 0.765625,0.015625 1.109375,0.03125 v -0.3125 c -0.671875,0 -0.78125,0 -0.78125,-0.4375 V -2.59375 C 1.78125,-3.625 2.5,-4.1875 3.125,-4.1875 c 0.640625,0 0.75,0.53125 0.75,1.109375 V -0.75 c 0,0.4375 -0.109375,0.4375 -0.78125,0.4375 V 0 c 0.34375,-0.015625 0.859375,-0.03125 1.125,-0.03125 0.25,0 0.78125,0.015625 1.109375,0.03125 v -0.3125 c -0.65625,0 -0.765625,0 -0.765625,-0.4375 v -1.84375 c 0,-1.03125 0.703125,-1.59375 1.34375,-1.59375 0.625,0 0.734375,0.53125 0.734375,1.109375 V -0.75 c 0,0.4375 -0.109375,0.4375 -0.78125,0.4375 V 0 c 0.34375,-0.015625 0.859375,-0.03125 1.125,-0.03125 0.265625,0 0.78125,0.015625 1.125,0.03125 v -0.3125 c -0.515625,0 -0.765625,0 -0.78125,-0.296875 v -1.90625 c 0,-0.859375 0,-1.15625 -0.3125,-1.515625 -0.140625,-0.171875 -0.46875,-0.375 -1.046875,-0.375 -0.828125,0 -1.28125,0.59375 -1.4375,0.984375 C 4.390625,-4.296875 3.65625,-4.40625 3.203125,-4.40625 2.46875,-4.40625 2,-3.984375 1.71875,-3.359375 V -4.40625 L 0.3125,-4.296875 v 0.3125 c 0.703125,0 0.78125,0.0625 0.78125,0.5625 z m 0,0"
   id="path55" />
      </g>
    </g>
  </g>
</g></g><g
       id="g4877"
       transform="matrix(0.30136056,0,0,0.30136759,-191.86116,-0.70872581)"
       style="stroke-width:0.776839"><circle
         style="opacity:0.5;fill:url(#radialGradient12485);fill-opacity:1;stroke:#0000ff;stroke-width:0.388419;stroke-miterlimit:4;stroke-dasharray:none;stroke-opacity:1"
         id="path11934"
         cx="153.55283"
         cy="71.348221"
         r="13.79613"
         transform="translate(-249.46999,23.331269)" /><circle
         r="13.79613"
         cy="145.62053"
         cx="138.15028"
         id="circle12516"
         style="opacity:0.5;fill:url(#radialGradient12518);fill-opacity:1;stroke:#0000ff;stroke-width:0.388419;stroke-miterlimit:4;stroke-dasharray:none;stroke-opacity:1"
         transform="translate(-249.46999,23.331269)" /><circle
         style="opacity:0.5;fill:url(#radialGradient12522);fill-opacity:1;stroke:#0000ff;stroke-width:0.388419;stroke-miterlimit:4;stroke-dasharray:none;stroke-opacity:1"
         id="circle12520"
         cx="78.430061"
         cy="161.87352"
         r="13.79613"
         transform="translate(-249.46999,23.331269)" /><circle
         r="13.79613"
         cy="99.885422"
         cx="93.54911"
         id="circle12524"
         style="opacity:0.5;fill:url(#radialGradient12542);fill-opacity:1;stroke:#ff4600;stroke-width:0.388419;stroke-miterlimit:4;stroke-dasharray:none;stroke-opacity:0.501961"
         transform="translate(-249.46999,23.331269)" /><circle
         style="opacity:0.527;fill:url(#radialGradient12566);fill-opacity:1;stroke:#f0c700;stroke-width:0.388419;stroke-miterlimit:4;stroke-dasharray:none;stroke-opacity:0.407843"
         id="circle12546"
         cx="60.424774"
         cy="112.66389"
         r="13.79613"
         transform="translate(-249.46999,23.331269)" /><circle
         style="opacity:0.909;fill:none;fill-opacity:1;stroke:#8d6a00;stroke-width:1.16526;stroke-miterlimit:4;stroke-dasharray:4.66103, 2.33052;stroke-dashoffset:0;stroke-opacity:0.969849"
         id="path12570"
         cx="93.54911"
         cy="99.885422"
         r="60.287193"
         transform="translate(-249.46999,23.331269)" /><circle
         r="68.127159"
         cy="99.885422"
         cx="93.54911"
         id="circle12572"
         style="opacity:0.909;fill:none;fill-opacity:1;stroke:#8d6a00;stroke-width:1.16526;stroke-miterlimit:4;stroke-dasharray:4.66103, 2.33052;stroke-dashoffset:0;stroke-opacity:0.969849"
         transform="translate(-249.46999,23.331269)" /><path
         style="fill:none;stroke:#000000;stroke-width:0.776839;stroke-linecap:butt;stroke-linejoin:miter;stroke-miterlimit:4;stroke-dasharray:none;stroke-opacity:1;marker-start:url(#DotM);marker-end:url(#Arrow1Mend)"
         d="M 93.549109,99.885419 147.78869,76.261904"
         id="path12574"
         inkscape:connector-curvature="0"
         transform="translate(-249.46999,23.331269)" /><path
         style="fill:none;stroke:#000000;stroke-width:0.776839;stroke-linecap:butt;stroke-linejoin:miter;stroke-miterlimit:4;stroke-dasharray:none;stroke-opacity:1;marker-end:url(#marker13379)"
         d="M 179.19263,62.203381 158.15111,71.61061"
         id="path13070"
         inkscape:connector-curvature="0"
         transform="translate(-249.46999,23.331269)" /><text
         xml:space="preserve"
         style="font-style:normal;font-weight:normal;font-size:10.5833px;line-height:1.25;font-family:sans-serif;letter-spacing:0px;word-spacing:0px;fill:#000000;fill-opacity:1;stroke:none;stroke-width:0.205538"
         x="116.79465"
         y="84.955353"
         id="text13524"
         transform="translate(-249.46999,23.331269)"><tspan
           sodipodi:role="line"
           id="tspan13522"
           x="116.79465"
           y="84.955353"
           style="font-weight:bold;stroke-width:0.205538">r</tspan></text><text
         id="text13528"
         y="69.458328"
         x="142.87502"
         style="font-style:normal;font-weight:normal;font-size:10.5833px;line-height:1.25;font-family:sans-serif;letter-spacing:0px;word-spacing:0px;fill:#000000;fill-opacity:1;stroke:none;stroke-width:0.205538"
         xml:space="preserve"
         transform="translate(-249.46999,23.331269)"><tspan
           style="font-weight:bold;stroke-width:0.205538"
           y="69.458328"
           x="142.87502"
           id="tspan13526"
           sodipodi:role="line">dr</tspan></text><circle
         style="opacity:0.527;fill:url(#radialGradient12566-0);fill-opacity:1;stroke:#f0c700;stroke-width:0.388419;stroke-miterlimit:4;stroke-dasharray:none;stroke-opacity:0.407843"
         id="circle12546-0"
         cx="98.622459"
         cy="131.29289"
         r="13.796131"
         transform="translate(-249.46999,23.331269)" /><circle
         style="opacity:0.527;fill:url(#radialGradient12566-4);fill-opacity:1;stroke:#f0c700;stroke-width:0.388419;stroke-miterlimit:4;stroke-dasharray:none;stroke-opacity:0.407843"
         id="circle12546-5"
         cx="129.09119"
         cy="108.57498"
         r="13.796131"
         transform="translate(-249.46999,23.331269)" /><circle
         style="opacity:0.527;fill:url(#radialGradient12566-7);fill-opacity:1;stroke:#f0c700;stroke-width:0.388419;stroke-miterlimit:4;stroke-dasharray:none;stroke-opacity:0.407843"
         id="circle12546-3"
         cx="83.120827"
         cy="63.139164"
         r="13.796131"
         transform="translate(-249.46999,23.331269)" /><circle
         style="opacity:0.527;fill:url(#radialGradient12566-6);fill-opacity:1;stroke:#f0c700;stroke-width:0.388419;stroke-miterlimit:4;stroke-dasharray:none;stroke-opacity:0.407843"
         id="circle12546-1"
         cx="117.59859"
         cy="69.019096"
         r="13.796131"
         transform="translate(-249.46999,23.331269)" /><circle
         style="opacity:0.527;fill:url(#radialGradient12566-3);fill-opacity:1;stroke:#f0c700;stroke-width:0.388419;stroke-miterlimit:4;stroke-dasharray:none;stroke-opacity:0.407843"
         id="circle12546-03"
         cx="64.411964"
         cy="29.99774"
         r="13.796131"
         transform="translate(-249.46999,23.331269)" /><circle
         style="opacity:0.527;fill:url(#radialGradient12566-9);fill-opacity:1;stroke:#f0c700;stroke-width:0.388419;stroke-miterlimit:4;stroke-dasharray:none;stroke-opacity:0.407843"
         id="circle12546-9"
         cx="47.84124"
         cy="80.244408"
         r="13.796131"
         transform="translate(-249.46999,23.331269)" /><circle
         style="opacity:0.527;fill:url(#radialGradient12566-44);fill-opacity:1;stroke:#f0c700;stroke-width:0.388419;stroke-miterlimit:4;stroke-dasharray:none;stroke-opacity:0.407843"
         id="circle12546-036"
         cx="20.312483"
         cy="113.92036"
         r="13.796131"
         transform="translate(-249.46999,23.331269)" /><circle
         style="opacity:0.527;fill:url(#radialGradient12566-1);fill-opacity:1;stroke:#f0c700;stroke-width:0.388419;stroke-miterlimit:4;stroke-dasharray:none;stroke-opacity:0.407843"
         id="circle12546-6"
         cx="116.52952"
         cy="172.45241"
         r="13.796131"
         transform="translate(-249.46999,23.331269)" /><circle
         style="opacity:0.527;fill:url(#radialGradient12566-5);fill-opacity:1;stroke:#f0c700;stroke-width:0.388419;stroke-miterlimit:4;stroke-dasharray:none;stroke-opacity:0.407843"
         id="circle12546-2"
         cx="170.78522"
         cy="119.26576"
         r="13.796131"
         transform="translate(-249.46999,23.331269)" /><circle
         style="opacity:0.527;fill:url(#radialGradient12566-8);fill-opacity:1;stroke:#f0c700;stroke-width:0.388419;stroke-miterlimit:4;stroke-dasharray:none;stroke-opacity:0.407843"
         id="circle12546-7"
         cx="113.58955"
         cy="28.394125"
         r="13.796131"
         transform="translate(-249.46999,23.331269)" /><circle
         r="13.796131"
         cy="152.13989"
         cx="41.694046"
         id="circle13785"
         style="opacity:0.527;fill:url(#radialGradient13787);fill-opacity:1;stroke:#f0c700;stroke-width:0.388419;stroke-miterlimit:4;stroke-dasharray:none;stroke-opacity:0.407843"
         transform="translate(-249.46999,23.331269)" /></g></g></svg>
