<?xml version="1.0" encoding="UTF-8" standalone="no"?>
<!-- Created with Inkscape (http://www.inkscape.org/) -->

<svg
   width="151.18887mm"
   height="117.13736mm"
   viewBox="0 0 151.18887 117.13736"
   version="1.1"
   id="svg1"
   xml:space="preserve"
   inkscape:version="1.4 (e7c3feb, 2024-10-09)"
   sodipodi:docname="LigandPlotsRMSD_dGA_dGB_iRMSD.svg"
   xmlns:inkscape="http://www.inkscape.org/namespaces/inkscape"
   xmlns:sodipodi="http://sodipodi.sourceforge.net/DTD/sodipodi-0.dtd"
   xmlns:xlink="http://www.w3.org/1999/xlink"
   xmlns="http://www.w3.org/2000/svg"
   xmlns:svg="http://www.w3.org/2000/svg"><sodipodi:namedview
     id="namedview1"
     pagecolor="#505050"
     bordercolor="#eeeeee"
     borderopacity="1"
     inkscape:showpageshadow="0"
     inkscape:pageopacity="0"
     inkscape:pagecheckerboard="0"
     inkscape:deskcolor="#d1d1d1"
     inkscape:document-units="mm"
     inkscape:zoom="1"
     inkscape:cx="2176.5"
     inkscape:cy="1704.5"
     inkscape:window-width="1920"
     inkscape:window-height="1016"
     inkscape:window-x="0"
     inkscape:window-y="0"
     inkscape:window-maximized="1"
     inkscape:current-layer="layer1"><inkscape:page
       x="0"
       y="0"
       width="151.18887"
       height="117.13736"
       id="page2"
       margin="0"
       bleed="0" /></sodipodi:namedview><defs
     id="defs1"><marker
       style="overflow:visible"
       id="Stop"
       refX="0"
       refY="0"
       orient="auto"
       inkscape:stockid="Stop"
       markerWidth="1"
       markerHeight="1"
       viewBox="0 0 1 1"
       inkscape:isstock="true"
       inkscape:collect="always"
       preserveAspectRatio="xMidYMid"><path
         style="fill:none;stroke:context-stroke;stroke-width:1"
         d="M 0,4 V -4"
         id="path858" /></marker><style
       type="text/css"
       id="style1">*{stroke-linejoin: round; stroke-linecap: butt}</style><path
       id="m6763387c74"
       d="M 0,0 V 3.5"
       style="stroke:#000000;stroke-width:0.8" /><path
       id="DejaVuSans-2212"
       d="M 678,2272 H 4684 V 1741 H 678 Z"
       transform="scale(0.015625)" /><path
       id="DejaVuSans-36"
       d="m 2113,2584 q -425,0 -674,-291 -248,-290 -248,-796 0,-503 248,-796 249,-292 674,-292 425,0 673,292 248,293 248,796 0,506 -248,796 -248,291 -673,291 z m 1253,1979 v -575 q -238,112 -480,171 -242,60 -480,60 -625,0 -955,-422 -329,-422 -376,-1275 184,272 462,417 279,145 613,145 703,0 1111,-427 408,-426 408,-1160 0,-719 -425,-1154 -425,-434 -1131,-434 -810,0 -1238,620 -428,621 -428,1799 0,1106 525,1764 525,658 1409,658 238,0 480,-47 242,-47 505,-140 z"
       transform="scale(0.015625)" /><path
       id="DejaVuSans-34"
       d="M 2419,4116 825,1625 h 1594 z m -166,550 h 794 V 1625 h 666 V 1100 H 3047 V 0 H 2419 V 1100 H 313 v 609 z"
       transform="scale(0.015625)" /><path
       id="DejaVuSans-32"
       d="M 1228,531 H 3431 V 0 H 469 v 531 q 359,372 979,998 621,627 780,809 303,340 423,576 121,236 121,464 0,372 -261,606 -261,235 -680,235 -297,0 -627,-103 -329,-103 -704,-313 v 638 q 381,153 712,231 332,78 607,78 725,0 1156,-363 431,-362 431,-968 0,-288 -108,-546 -107,-257 -392,-607 -78,-91 -497,-524 Q 1991,1309 1228,531 Z"
       transform="scale(0.015625)" /><path
       id="DejaVuSans-30"
       d="m 2034,4250 q -487,0 -733,-480 -245,-479 -245,-1442 0,-959 245,-1439 246,-480 733,-480 491,0 736,480 246,480 246,1439 0,963 -246,1442 -245,480 -736,480 z m 0,500 q 785,0 1199,-621 414,-620 414,-1801 0,-1178 -414,-1799 -414,-620 -1199,-620 -784,0 -1198,620 -414,621 -414,1799 0,1181 414,1801 414,621 1198,621 z"
       transform="scale(0.015625)" /><path
       id="DejaVuSans-394"
       d="M 2188,4044 906,525 H 3472 Z M 50,0 1831,4666 h 716 L 4325,0 Z"
       transform="scale(0.015625)" /><path
       id="DejaVuSans-Oblique-47"
       d="m 3494,697 244,1222 H 2700 l 97,519 H 4453 L 4050,384 Q 3634,156 3143,32 2653,-91 2156,-91 1278,-91 783,396 288,884 288,1753 q 0,722 301,1373 302,652 833,1087 334,271 731,404 397,133 881,133 438,0 839,-111 402,-111 768,-333 l -128,-672 q -282,294 -660,449 -378,155 -806,155 -497,0 -875,-190 -378,-189 -675,-585 -253,-338 -399,-796 -145,-458 -145,-933 0,-653 334,-983 335,-329 997,-329 332,0 641,70 309,71 569,205 z"
       transform="scale(0.015625)" /><path
       id="DejaVuSans-Oblique-41"
       d="m 2356,4666 h 716 L 3938,0 H 3278 L 3084,1197 H 984 L 325,0 H -341 Z M 2584,4044 1275,1722 h 1713 z"
       transform="scale(0.015625)" /><path
       id="DejaVuSans-Oblique-4c"
       d="m 1075,4666 h 634 L 909,525 H 3181 L 3078,0 H 172 Z"
       transform="scale(0.015625)" /><path
       id="m06c2f9cd1c"
       d="M 0,0 H -3.5"
       style="stroke:#000000;stroke-width:0.8" /><path
       id="DejaVuSans-33"
       d="m 2597,2516 q 453,-97 707,-404 255,-306 255,-756 0,-690 -475,-1069 -475,-378 -1350,-378 -293,0 -604,58 -311,58 -642,174 v 609 q 262,-153 574,-231 313,-78 654,-78 593,0 904,234 311,234 311,681 0,413 -289,645 -289,233 -804,233 h -544 v 519 h 569 q 465,0 712,186 247,186 247,536 0,359 -255,551 -254,193 -729,193 -260,0 -557,-57 -297,-56 -653,-174 v 562 q 360,100 674,150 314,50 592,50 719,0 1137,-327 419,-326 419,-882 0,-388 -222,-655 -222,-267 -631,-370 z"
       transform="scale(0.015625)" /><path
       id="DejaVuSans-35"
       d="M 691,4666 H 3169 V 4134 H 1269 V 2991 q 137,47 274,70 138,23 276,23 781,0 1237,-428 457,-428 457,-1159 Q 3513,744 3044,326 2575,-91 1722,-91 1428,-91 1123,-41 819,9 494,109 v 635 q 281,-153 581,-228 300,-75 634,-75 541,0 856,284 316,284 316,772 0,487 -316,771 -315,285 -856,285 -253,0 -505,-56 -251,-56 -513,-175 z"
       transform="scale(0.015625)" /><path
       id="DejaVuSans-31"
       d="M 794,531 H 1825 V 4091 L 703,3866 v 575 l 1116,225 h 631 V 531 H 3481 V 0 H 794 Z"
       transform="scale(0.015625)" /><path
       id="DejaVuSans-Oblique-42"
       d="m 1081,4666 h 1613 q 656,0 981,-244 325,-244 325,-734 0,-450 -280,-777 -279,-327 -732,-395 387,-88 581,-335 194,-247 194,-659 Q 3763,819 3242,409 2722,0 1819,0 H 172 Z M 1234,2228 903,519 h 1016 q 572,0 881,262 309,263 309,741 0,369 -205,537 -204,169 -657,169 z m 372,1919 -275,-1406 h 941 q 503,0 786,218 283,219 283,607 0,303 -191,442 -191,139 -609,139 z"
       transform="scale(0.015625)" /><path
       id="m62482cda67"
       d="M -3,3 H 3 V -3 H -3 Z"
       style="stroke:#414487;stroke-linejoin:miter" /><path
       id="m543b503e52"
       d="M -3,3 H 3 V -3 H -3 Z"
       style="stroke:#9bd93c;stroke-linejoin:miter" /><path
       id="DejaVuSans-5f"
       d="m 3263,-1063 v -446 H -63 v 446 z"
       transform="scale(0.015625)" /><path
       id="DejaVuSans-38"
       d="m 2034,2216 q -450,0 -708,-241 -257,-241 -257,-662 0,-422 257,-663 258,-241 708,-241 450,0 709,242 260,243 260,662 0,421 -258,662 -257,241 -711,241 z m -631,268 q -406,100 -633,378 -226,279 -226,679 0,559 398,884 399,325 1092,325 697,0 1094,-325 397,-325 397,-884 0,-400 -227,-679 -226,-278 -629,-378 456,-106 710,-416 255,-309 255,-755 Q 3634,634 3220,271 2806,-91 2034,-91 1263,-91 848,271 434,634 434,1313 q 0,446 256,755 257,310 713,416 z m -231,997 q 0,-362 226,-565 227,-203 636,-203 407,0 636,203 230,203 230,565 0,363 -230,566 -229,203 -636,203 -409,0 -636,-203 -226,-203 -226,-566 z"
       transform="scale(0.015625)" /><clipPath
       id="p0cc08b8426"><rect
         x="57.599998"
         y="41.472"
         width="357.12"
         height="266.112"
         id="rect103" /></clipPath><style
       type="text/css"
       id="style1-3">*{stroke-linejoin: round; stroke-linecap: butt}</style><style
       type="text/css"
       id="style1-8">*{stroke-linejoin: round; stroke-linecap: butt}</style><style
       type="text/css"
       id="style1-2">*{stroke-linejoin: round; stroke-linecap: butt}</style></defs><g
     inkscape:label="Layer 1"
     inkscape:groupmode="layer"
     id="layer1"
     transform="translate(-129.66128,-337.51486)"><g
       id="g859"><g
         id="figure_1"
         transform="matrix(0.35277778,0,0,0.35277778,128.37651,332.95849)"><g
           id="patch_1" /><g
           id="axes_1"><g
             id="patch_2"><path
               d="M 57.6,307.584 H 414.72 V 41.472 H 57.6 Z"
               style="fill:#ffffff"
               id="path2" /></g><g
             id="matplotlib.axis_1"><g
               id="xtick_1"><g
                 id="line2d_1"><path
                   d="M 74.024914,307.584 V 41.472"
                   clip-path="url(#p0cc08b8426)"
                   style="fill:none;stroke:#b0b0b0;stroke-width:0.538583;stroke-linecap:round;stroke-dasharray:0.538583, 1.07717;stroke-dashoffset:0"
                   id="path3" /></g><g
                 id="line2d_2"><defs
                   id="defs3" /><g
                   id="g3"><use
                     xlink:href="#m6763387c74"
                     x="74.024918"
                     y="307.58401"
                     style="stroke:#000000;stroke-width:0.8"
                     id="use3" /></g></g><g
                 id="text_1"><!-- −6 --><g
                   transform="matrix(0.14,0,0,-0.14,63.705383,325.22181)"
                   id="g5"><defs
                     id="defs4" /><use
                     xlink:href="#DejaVuSans-2212"
                     id="use4" /><use
                     xlink:href="#DejaVuSans-36"
                     x="83.789062"
                     id="use5" /></g></g></g><g
               id="xtick_2"><g
                 id="line2d_3"><path
                   d="M 159.44121,307.584 V 41.472"
                   clip-path="url(#p0cc08b8426)"
                   style="fill:none;stroke:#b0b0b0;stroke-width:0.538583;stroke-linecap:round;stroke-dasharray:0.538583, 1.07717;stroke-dashoffset:0"
                   id="path7" /></g><g
                 id="line2d_4"><g
                   id="g6"><use
                     xlink:href="#m6763387c74"
                     x="159.44121"
                     y="307.58401"
                     style="stroke:#000000;stroke-width:0.8"
                     id="use6" /></g></g><g
                 id="text_2"><!-- −4 --><g
                   transform="matrix(0.14,0,0,-0.14,149.12168,325.22181)"
                   id="g8"><defs
                     id="defs6" /><use
                     xlink:href="#DejaVuSans-2212"
                     id="use7" /><use
                     xlink:href="#DejaVuSans-34"
                     x="83.789062"
                     id="use8" /></g></g></g><g
               id="xtick_3"><g
                 id="line2d_5"><path
                   d="M 244.85751,307.584 V 41.472"
                   clip-path="url(#p0cc08b8426)"
                   style="fill:none;stroke:#b0b0b0;stroke-width:0.538583;stroke-linecap:round;stroke-dasharray:0.538583, 1.07717;stroke-dashoffset:0"
                   id="path9" /></g><g
                 id="line2d_6"><g
                   id="g9"><use
                     xlink:href="#m6763387c74"
                     x="244.85751"
                     y="307.58401"
                     style="stroke:#000000;stroke-width:0.8"
                     id="use9" /></g></g><g
                 id="text_3"><!-- −2 --><g
                   transform="matrix(0.14,0,0,-0.14,234.53798,325.22181)"
                   id="g11"><defs
                     id="defs9" /><use
                     xlink:href="#DejaVuSans-2212"
                     id="use10" /><use
                     xlink:href="#DejaVuSans-32"
                     x="83.789062"
                     id="use11" /></g></g></g><g
               id="xtick_4"><g
                 id="line2d_7"><path
                   d="M 330.27382,307.584 V 41.472"
                   clip-path="url(#p0cc08b8426)"
                   style="fill:none;stroke:#b0b0b0;stroke-width:0.538583;stroke-linecap:round;stroke-dasharray:0.538583, 1.07717;stroke-dashoffset:0"
                   id="path11" /></g><g
                 id="line2d_8"><g
                   id="g12"><use
                     xlink:href="#m6763387c74"
                     x="330.2738"
                     y="307.58401"
                     style="stroke:#000000;stroke-width:0.8"
                     id="use12" /></g></g><g
                 id="text_4"><!-- 0 --><g
                   transform="matrix(0.14,0,0,-0.14,325.82006,325.22181)"
                   id="g13"><defs
                     id="defs12" /><use
                     xlink:href="#DejaVuSans-30"
                     id="use13" /></g></g></g><g
               id="text_5"><!-- $\Delta \Delta G_{AL}$ --><g
                 transform="matrix(0.14,0,0,-0.14,214.88,342.77119)"
                 id="g18"><defs
                   id="defs13" /><use
                   xlink:href="#DejaVuSans-394"
                   transform="translate(0,0.78125)"
                   id="use14" /><use
                   xlink:href="#DejaVuSans-394"
                   transform="translate(68.408203,0.78125)"
                   id="use15" /><use
                   xlink:href="#DejaVuSans-Oblique-47"
                   transform="translate(136.81641,0.78125)"
                   id="use16" /><use
                   xlink:href="#DejaVuSans-Oblique-41"
                   transform="matrix(0.7,0,0,0.7,214.30664,-15.625)"
                   id="use17" /><use
                   xlink:href="#DejaVuSans-Oblique-4c"
                   transform="matrix(0.7,0,0,0.7,262.19238,-15.625)"
                   id="use18" /></g></g></g><g
             id="matplotlib.axis_2"><g
               id="ytick_1"><g
                 id="line2d_9"><path
                   d="M 57.6,289.19612 H 414.72"
                   clip-path="url(#p0cc08b8426)"
                   style="fill:none;stroke:#b0b0b0;stroke-width:0.538583;stroke-linecap:round;stroke-dasharray:0.538583, 1.07717;stroke-dashoffset:0"
                   id="path18" /></g><g
                 id="line2d_10"><defs
                   id="defs18" /><g
                   id="g19"><use
                     xlink:href="#m06c2f9cd1c"
                     x="57.599998"
                     y="289.19611"
                     style="stroke:#000000;stroke-width:0.8"
                     id="use19" /></g></g><g
                 id="text_6"><!-- −40 --><g
                   transform="matrix(0.14,0,0,-0.14,21.053437,294.51502)"
                   id="g22"><use
                     xlink:href="#DejaVuSans-2212"
                     id="use20" /><use
                     xlink:href="#DejaVuSans-34"
                     x="83.789062"
                     id="use21" /><use
                     xlink:href="#DejaVuSans-30"
                     x="147.41211"
                     id="use22" /></g></g></g><g
               id="ytick_2"><g
                 id="line2d_11"><path
                   d="M 57.6,254.83678 H 414.72"
                   clip-path="url(#p0cc08b8426)"
                   style="fill:none;stroke:#b0b0b0;stroke-width:0.538583;stroke-linecap:round;stroke-dasharray:0.538583, 1.07717;stroke-dashoffset:0"
                   id="path22" /></g><g
                 id="line2d_12"><g
                   id="g23"><use
                     xlink:href="#m06c2f9cd1c"
                     x="57.599998"
                     y="254.83678"
                     style="stroke:#000000;stroke-width:0.8"
                     id="use23" /></g></g><g
                 id="text_7"><!-- −35 --><g
                   transform="matrix(0.14,0,0,-0.14,21.053437,260.15568)"
                   id="g26"><defs
                     id="defs23" /><use
                     xlink:href="#DejaVuSans-2212"
                     id="use24" /><use
                     xlink:href="#DejaVuSans-33"
                     x="83.789062"
                     id="use25" /><use
                     xlink:href="#DejaVuSans-35"
                     x="147.41211"
                     id="use26" /></g></g></g><g
               id="ytick_3"><g
                 id="line2d_13"><path
                   d="M 57.6,220.47744 H 414.72"
                   clip-path="url(#p0cc08b8426)"
                   style="fill:none;stroke:#b0b0b0;stroke-width:0.538583;stroke-linecap:round;stroke-dasharray:0.538583, 1.07717;stroke-dashoffset:0"
                   id="path26" /></g><g
                 id="line2d_14"><g
                   id="g27"><use
                     xlink:href="#m06c2f9cd1c"
                     x="57.599998"
                     y="220.47743"
                     style="stroke:#000000;stroke-width:0.8"
                     id="use27" /></g></g><g
                 id="text_8"><!-- −30 --><g
                   transform="matrix(0.14,0,0,-0.14,21.053437,225.79634)"
                   id="g30"><use
                     xlink:href="#DejaVuSans-2212"
                     id="use28" /><use
                     xlink:href="#DejaVuSans-33"
                     x="83.789062"
                     id="use29" /><use
                     xlink:href="#DejaVuSans-30"
                     x="147.41211"
                     id="use30" /></g></g></g><g
               id="ytick_4"><g
                 id="line2d_15"><path
                   d="M 57.6,186.11809 H 414.72"
                   clip-path="url(#p0cc08b8426)"
                   style="fill:none;stroke:#b0b0b0;stroke-width:0.538583;stroke-linecap:round;stroke-dasharray:0.538583, 1.07717;stroke-dashoffset:0"
                   id="path30" /></g><g
                 id="line2d_16"><g
                   id="g31"><use
                     xlink:href="#m06c2f9cd1c"
                     x="57.599998"
                     y="186.11809"
                     style="stroke:#000000;stroke-width:0.8"
                     id="use31" /></g></g><g
                 id="text_9"><!-- −25 --><g
                   transform="matrix(0.14,0,0,-0.14,21.053437,191.437)"
                   id="g34"><use
                     xlink:href="#DejaVuSans-2212"
                     id="use32" /><use
                     xlink:href="#DejaVuSans-32"
                     x="83.789062"
                     id="use33" /><use
                     xlink:href="#DejaVuSans-35"
                     x="147.41211"
                     id="use34" /></g></g></g><g
               id="ytick_5"><g
                 id="line2d_17"><path
                   d="M 57.6,151.75875 H 414.72"
                   clip-path="url(#p0cc08b8426)"
                   style="fill:none;stroke:#b0b0b0;stroke-width:0.538583;stroke-linecap:round;stroke-dasharray:0.538583, 1.07717;stroke-dashoffset:0"
                   id="path34" /></g><g
                 id="line2d_18"><g
                   id="g35"><use
                     xlink:href="#m06c2f9cd1c"
                     x="57.599998"
                     y="151.75876"
                     style="stroke:#000000;stroke-width:0.8"
                     id="use35" /></g></g><g
                 id="text_10"><!-- −20 --><g
                   transform="matrix(0.14,0,0,-0.14,21.053437,157.07766)"
                   id="g38"><use
                     xlink:href="#DejaVuSans-2212"
                     id="use36" /><use
                     xlink:href="#DejaVuSans-32"
                     x="83.789062"
                     id="use37" /><use
                     xlink:href="#DejaVuSans-30"
                     x="147.41211"
                     id="use38" /></g></g></g><g
               id="ytick_6"><g
                 id="line2d_19"><path
                   d="M 57.6,117.39941 H 414.72"
                   clip-path="url(#p0cc08b8426)"
                   style="fill:none;stroke:#b0b0b0;stroke-width:0.538583;stroke-linecap:round;stroke-dasharray:0.538583, 1.07717;stroke-dashoffset:0"
                   id="path38" /></g><g
                 id="line2d_20"><g
                   id="g39"><use
                     xlink:href="#m06c2f9cd1c"
                     x="57.599998"
                     y="117.39941"
                     style="stroke:#000000;stroke-width:0.8"
                     id="use39" /></g></g><g
                 id="text_11"><!-- −15 --><g
                   transform="matrix(0.14,0,0,-0.14,21.053437,122.71832)"
                   id="g42"><defs
                     id="defs39" /><use
                     xlink:href="#DejaVuSans-2212"
                     id="use40" /><use
                     xlink:href="#DejaVuSans-31"
                     x="83.789062"
                     id="use41" /><use
                     xlink:href="#DejaVuSans-35"
                     x="147.41211"
                     id="use42" /></g></g></g><g
               id="ytick_7"><g
                 id="line2d_21"><path
                   d="M 57.6,83.040069 H 414.72"
                   clip-path="url(#p0cc08b8426)"
                   style="fill:none;stroke:#b0b0b0;stroke-width:0.538583;stroke-linecap:round;stroke-dasharray:0.538583, 1.07717;stroke-dashoffset:0"
                   id="path42" /></g><g
                 id="line2d_22"><g
                   id="g43"><use
                     xlink:href="#m06c2f9cd1c"
                     x="57.599998"
                     y="83.04007"
                     style="stroke:#000000;stroke-width:0.8"
                     id="use43" /></g></g><g
                 id="text_12"><!-- −10 --><g
                   transform="matrix(0.14,0,0,-0.14,21.053437,88.358975)"
                   id="g46"><use
                     xlink:href="#DejaVuSans-2212"
                     id="use44" /><use
                     xlink:href="#DejaVuSans-31"
                     x="83.789062"
                     id="use45" /><use
                     xlink:href="#DejaVuSans-30"
                     x="147.41211"
                     id="use46" /></g></g></g><g
               id="ytick_8"><g
                 id="line2d_23"><path
                   d="M 57.6,48.680727 H 414.72"
                   clip-path="url(#p0cc08b8426)"
                   style="fill:none;stroke:#b0b0b0;stroke-width:0.538583;stroke-linecap:round;stroke-dasharray:0.538583, 1.07717;stroke-dashoffset:0"
                   id="path46" /></g><g
                 id="line2d_24"><g
                   id="g47"><use
                     xlink:href="#m06c2f9cd1c"
                     x="57.599998"
                     y="48.680725"
                     style="stroke:#000000;stroke-width:0.8"
                     id="use47" /></g></g><g
                 id="text_13"><!-- −5 --><g
                   transform="matrix(0.14,0,0,-0.14,29.960938,53.999634)"
                   id="g49"><use
                     xlink:href="#DejaVuSans-2212"
                     id="use48" /><use
                     xlink:href="#DejaVuSans-35"
                     x="83.789062"
                     id="use49" /></g></g></g><g
               id="text_14"><!-- $\Delta \Delta G_{BL}$ --><g
                 transform="matrix(0,-0.14,-0.14,0,14.141875,195.878)"
                 id="g54"><defs
                   id="defs49" /><use
                   xlink:href="#DejaVuSans-394"
                   transform="translate(0,0.78125)"
                   id="use50" /><use
                   xlink:href="#DejaVuSans-394"
                   transform="translate(68.408203,0.78125)"
                   id="use51" /><use
                   xlink:href="#DejaVuSans-Oblique-47"
                   transform="translate(136.81641,0.78125)"
                   id="use52" /><use
                   xlink:href="#DejaVuSans-Oblique-42"
                   transform="matrix(0.7,0,0,0.7,214.30664,-15.625)"
                   id="use53" /><use
                   xlink:href="#DejaVuSans-Oblique-4c"
                   transform="matrix(0.7,0,0,0.7,262.3291,-15.625)"
                   id="use54" /></g></g></g><g
             id="LineCollection_1"><path
               d="m 249.17104,96.475258 h 69.70824"
               clip-path="url(#p0cc08b8426)"
               style="fill:none;stroke:#414487;stroke-width:1.5;marker-start:url(#Stop);marker-end:url(#Stop)"
               id="path54" /></g><g
             id="LineCollection_2"><path
               d="M 284.02516,138.70839 V 54.24213"
               clip-path="url(#p0cc08b8426)"
               style="fill:none;stroke:#414487;stroke-width:1.5;marker-start:url(#Stop);marker-end:url(#Stop)"
               id="path55" /></g><g
             id="LineCollection_3"><path
               d="M 262.60702,121.49092 H 398.48727"
               clip-path="url(#p0cc08b8426)"
               style="fill:none;stroke:#414487;stroke-width:1.49953;stroke-linecap:round;stroke-dasharray:1.49953, 2.24929;stroke-dashoffset:0;marker-start:url(#Stop);marker-end:url(#Stop)"
               id="path56" /></g><g
             id="LineCollection_4"><path
               d="M 330.54715,144.34675 V 98.635087"
               clip-path="url(#p0cc08b8426)"
               style="fill:none;stroke:#414487;stroke-width:1.49953;stroke-linecap:round;stroke-dasharray:1.49953, 2.24929;stroke-dashoffset:0;marker-start:url(#Stop);marker-end:url(#Stop)"
               id="path57" /></g><g
             id="LineCollection_5"><path
               d="m 226.74499,252.04817 h 98.80103"
               clip-path="url(#p0cc08b8426)"
               style="fill:none;stroke:#9bd93c;stroke-width:1.5;marker-start:url(#Stop);marker-end:url(#Stop)"
               id="path58" /></g><g
             id="LineCollection_6"><path
               d="M 276.14551,295.488 V 208.60834"
               clip-path="url(#p0cc08b8426)"
               style="fill:none;stroke:#9bd93c;stroke-width:1.5;marker-start:url(#Stop);marker-end:url(#Stop)"
               id="path59" /></g><g
             id="LineCollection_7"><path
               d="M 73.832727,93.532037 H 208.61111"
               clip-path="url(#p0cc08b8426)"
               style="fill:none;stroke:#9bd93c;stroke-width:1.5;stroke-linecap:round;stroke-dasharray:1.5, 2.25;stroke-dashoffset:0;marker-start:url(#Stop);marker-end:url(#Stop)"
               id="path60" /></g><g
             id="LineCollection_8"><path
               d="M 141.22192,133.49607 V 53.568"
               clip-path="url(#p0cc08b8426)"
               style="fill:none;stroke:#9bd93c;stroke-width:1.5;stroke-linecap:round;stroke-dasharray:1.5, 2.25;stroke-dashoffset:0;marker-start:url(#Stop);marker-end:url(#Stop)"
               id="path61" /></g><g
             id="line2d_25"><path
               d="M 284.02516,96.475258"
               clip-path="url(#p0cc08b8426)"
               style="fill:none;stroke:#414487;stroke-width:1.5;stroke-linecap:square"
               id="path62" /><defs
               id="defs62" /><g
               clip-path="url(#p0cc08b8426)"
               id="g62"><use
                 xlink:href="#m62482cda67"
                 x="284.02515"
                 y="96.475258"
                 style="fill:none;stroke:#414487;stroke-linejoin:miter"
                 id="use62"
                 transform="matrix(1.4641,0,0,1.4641,-131.81607,-44.774167)" /></g></g><g
             id="line2d_26"><path
               d="M 330.54715,121.49092"
               clip-path="url(#p0cc08b8426)"
               style="fill:none;stroke:#414487;stroke-width:1.5;stroke-linecap:square"
               id="path63" /><g
               clip-path="url(#p0cc08b8426)"
               id="g63"><use
                 xlink:href="#m62482cda67"
                 x="330.54715"
                 y="121.49092"
                 style="fill:none;stroke:#414487;stroke-linejoin:miter"
                 id="use63"
                 transform="matrix(1.035275,1.035275,-1.035275,1.035275,114.11645,-346.49281)" /></g></g><g
             id="line2d_27"><path
               d="M 276.14551,252.04817"
               clip-path="url(#p0cc08b8426)"
               style="fill:none;stroke:#9bd93c;stroke-width:1.5;stroke-linecap:square"
               id="path64" /><defs
               id="defs64" /><g
               clip-path="url(#p0cc08b8426)"
               id="g64"><use
                 xlink:href="#m543b503e52"
                 x="276.14551"
                 y="252.04817"
                 style="fill:none;stroke:#9bd93c;stroke-linejoin:miter"
                 id="use64"
                 transform="matrix(1.4641,0,0,1.4641,-128.15913,-116.97556)" /></g></g><g
             id="line2d_28"><path
               d="M 141.22192,93.532037"
               clip-path="url(#p0cc08b8426)"
               style="fill:none;stroke:#9bd93c;stroke-width:1.5;stroke-linecap:square"
               id="path65" /><g
               clip-path="url(#p0cc08b8426)"
               id="g65"><use
                 xlink:href="#m543b503e52"
                 x="141.22192"
                 y="93.532036"
                 style="fill:none;stroke:#9bd93c;stroke-linejoin:miter"
                 id="use65"
                 transform="matrix(1.035275,1.035275,-1.035275,1.035275,91.84978,-149.50287)" /></g></g><g
             id="patch_3"><path
               d="M 57.6,307.584 V 41.472"
               style="fill:none;stroke:#000000;stroke-width:0.8;stroke-linecap:square;stroke-linejoin:miter"
               id="path66" /></g><g
             id="patch_4"><path
               d="M 414.72,307.584 V 41.472"
               style="fill:none;stroke:#000000;stroke-width:0.8;stroke-linecap:square;stroke-linejoin:miter"
               id="path67" /></g><g
             id="patch_5"><path
               d="M 57.6,307.584 H 414.72"
               style="fill:none;stroke:#000000;stroke-width:0.8;stroke-linecap:square;stroke-linejoin:miter"
               id="path68" /></g><g
             id="patch_6"><path
               d="M 57.6,41.472 H 414.72"
               style="fill:none;stroke:#000000;stroke-width:0.8;stroke-linecap:square;stroke-linejoin:miter"
               id="path69" /></g><g
             id="legend_1"><g
               id="patch_7"><path
                 d="m 67.4,300.584 h 96.3375 q 2.8,0 2.8,-2.8 v -82.355 q 0,-2.8 -2.8,-2.8 H 67.4 q -2.8,0 -2.8,2.8 v 82.355 q 0,2.8 2.8,2.8 z"
                 style="opacity:0.8;fill:#ffffff;stroke:#cccccc;stroke-linejoin:miter"
                 id="path70" /></g><g
               id="LineCollection_9"><path
                 d="m 77.2,223.96681 h 14"
                 style="fill:none;stroke:#414487;stroke-width:1.5"
                 id="path71" /></g><g
               id="LineCollection_10"><path
                 d="m 84.2,230.96681 v -14"
                 style="fill:none;stroke:#414487;stroke-width:1.5"
                 id="path72" /></g><g
               id="line2d_29"><path
                 d="m 70.2,223.96681 h 28"
                 style="fill:none;stroke:#414487;stroke-width:1.5;stroke-linecap:square"
                 id="path73" /></g><g
               id="line2d_30"><g
                 id="g73"><use
                   xlink:href="#m62482cda67"
                   x="84.199997"
                   y="223.96681"
                   style="fill:none;stroke:#414487;stroke-linejoin:miter"
                   id="use73"
                   transform="matrix(1.4641,0,0,1.4641,-39.077219,-103.943)" /></g></g><g
               id="text_15"><!-- 0156_1 --><g
                 transform="matrix(0.14,0,0,-0.14,109.4,228.86681)"
                 id="g79"><defs
                   id="defs73" /><use
                   xlink:href="#DejaVuSans-30"
                   id="use74" /><use
                   xlink:href="#DejaVuSans-31"
                   x="63.623047"
                   id="use75" /><use
                   xlink:href="#DejaVuSans-35"
                   x="127.24609"
                   id="use76" /><use
                   xlink:href="#DejaVuSans-36"
                   x="190.86914"
                   id="use77" /><use
                   xlink:href="#DejaVuSans-5f"
                   x="254.49219"
                   id="use78" /><use
                   xlink:href="#DejaVuSans-31"
                   x="304.49219"
                   id="use79" /></g></g><g
               id="LineCollection_11" /><g
               id="LineCollection_12"><path
                 d="m 84.2,251.90556 v -14"
                 style="fill:none;stroke:#414487;stroke-width:1.5;stroke-linecap:round;stroke-dasharray:1.5, 2.25;stroke-dashoffset:0"
                 id="path80" /></g><g
               id="line2d_31"><path
                 d="m 70.2,244.90556 h 28"
                 style="fill:none;stroke:#414487;stroke-width:1.5;stroke-linecap:round;stroke-dasharray:1.5, 2.25;stroke-dashoffset:0"
                 id="path81" /></g><g
               id="line2d_32"><g
                 id="g81"><use
                   xlink:href="#m62482cda67"
                   x="84.199997"
                   y="244.90556"
                   style="fill:none;stroke:#414487;stroke-linejoin:miter"
                   id="use81"
                   transform="matrix(1.035275,1.035275,-1.035275,1.035275,250.57446,-95.809209)" /></g></g><g
               id="text_16"><!-- 0156_2 --><g
                 transform="matrix(0.14,0,0,-0.14,109.4,249.80556)"
                 id="g87"><use
                   xlink:href="#DejaVuSans-30"
                   id="use82" /><use
                   xlink:href="#DejaVuSans-31"
                   x="63.623047"
                   id="use83" /><use
                   xlink:href="#DejaVuSans-35"
                   x="127.24609"
                   id="use84" /><use
                   xlink:href="#DejaVuSans-36"
                   x="190.86914"
                   id="use85" /><use
                   xlink:href="#DejaVuSans-5f"
                   x="254.49219"
                   id="use86" /><use
                   xlink:href="#DejaVuSans-32"
                   x="304.49219"
                   id="use87" /></g></g><g
               id="LineCollection_13"><path
                 d="m 77.2,265.84431 h 14"
                 style="fill:none;stroke:#9bd93c;stroke-width:1.5"
                 id="path87" /></g><g
               id="LineCollection_14"><path
                 d="m 84.2,272.84431 v -14"
                 style="fill:none;stroke:#9bd93c;stroke-width:1.5"
                 id="path88" /></g><g
               id="line2d_33"><path
                 d="m 70.2,265.84431 h 28"
                 style="fill:none;stroke:#9bd93c;stroke-width:1.5;stroke-linecap:square"
                 id="path89" /></g><g
               id="line2d_34"><g
                 id="g89"><use
                   xlink:href="#m543b503e52"
                   x="84.199997"
                   y="265.8443"
                   style="fill:none;stroke:#9bd93c;stroke-linejoin:miter"
                   id="use89"
                   transform="matrix(1.4641,0,0,1.4641,-39.077219,-123.37834)" /></g></g><g
               id="text_17"><!-- 1258_1 --><g
                 transform="matrix(0.14,0,0,-0.14,109.4,270.74431)"
                 id="g95"><defs
                   id="defs89" /><use
                   xlink:href="#DejaVuSans-31"
                   id="use90" /><use
                   xlink:href="#DejaVuSans-32"
                   x="63.623047"
                   id="use91" /><use
                   xlink:href="#DejaVuSans-35"
                   x="127.24609"
                   id="use92" /><use
                   xlink:href="#DejaVuSans-38"
                   x="190.86914"
                   id="use93" /><use
                   xlink:href="#DejaVuSans-5f"
                   x="254.49219"
                   id="use94" /><use
                   xlink:href="#DejaVuSans-31"
                   x="304.49219"
                   id="use95" /></g></g><g
               id="LineCollection_15" /><g
               id="LineCollection_16"><path
                 d="m 84.2,293.78306 v -14"
                 style="fill:none;stroke:#9bd93c;stroke-width:1.5;stroke-linecap:round;stroke-dasharray:1.5, 2.25;stroke-dashoffset:0"
                 id="path96" /></g><g
               id="line2d_35"><path
                 d="m 70.2,286.78306 h 28"
                 style="fill:none;stroke:#9bd93c;stroke-width:1.5;stroke-linecap:round;stroke-dasharray:1.5, 2.25;stroke-dashoffset:0"
                 id="path97" /></g><g
               id="line2d_36"><g
                 id="g97"><use
                   xlink:href="#m543b503e52"
                   x="84.199997"
                   y="286.78305"
                   style="fill:none;stroke:#9bd93c;stroke-linejoin:miter"
                   id="use97"
                   transform="matrix(1.035275,1.035275,-1.035275,1.035275,293.92917,-97.286438)" /></g></g><g
               id="text_18"><!-- 1258_2 --><g
                 transform="matrix(0.14,0,0,-0.14,109.4,291.68306)"
                 id="g103"><use
                   xlink:href="#DejaVuSans-31"
                   id="use98" /><use
                   xlink:href="#DejaVuSans-32"
                   x="63.623047"
                   id="use99" /><use
                   xlink:href="#DejaVuSans-35"
                   x="127.24609"
                   id="use100" /><use
                   xlink:href="#DejaVuSans-38"
                   x="190.86914"
                   id="use101" /><use
                   xlink:href="#DejaVuSans-5f"
                   x="254.49219"
                   id="use102" /><use
                   xlink:href="#DejaVuSans-32"
                   x="304.49219"
                   id="use103" /></g></g></g></g></g><text
         xml:space="preserve"
         style="font-style:normal;font-variant:normal;font-weight:normal;font-stretch:normal;font-size:6.35px;line-height:1.25;font-family:sans-serif;-inkscape-font-specification:sans-serif;text-align:center;text-orientation:upright;text-anchor:middle;stroke-width:0.377739;stroke-linecap:butt;stroke-linejoin:round"
         x="211.57689"
         y="342.33939"
         id="text834-1"><tspan
           sodipodi:role="line"
           id="tspan834-7"
           style="font-style:normal;font-variant:normal;font-weight:normal;font-stretch:normal;font-size:6.35px;font-family:sans-serif;-inkscape-font-specification:sans-serif;text-align:center;text-anchor:middle;stroke-width:0.377739"
           x="211.57689"
           y="342.33939">Relative Binding Free Energies via MMGBSA</tspan></text></g></g></svg>
