<?xml version="1.0" encoding="UTF-8" standalone="no"?>
<!-- Created with Inkscape (http://www.inkscape.org/) -->

<svg
   width="182.91412mm"
   height="129.35591mm"
   viewBox="0 0 182.91412 129.35591"
   version="1.1"
   id="svg5"
   xml:space="preserve"
   inkscape:version="1.2.2 (1:1.2.2+202305151914+b0a8486541)"
   sodipodi:docname="labsystems.svg"
   inkscape:export-filename="labsystems.png"
   inkscape:export-xdpi="480"
   inkscape:export-ydpi="480"
   xmlns:inkscape="http://www.inkscape.org/namespaces/inkscape"
   xmlns:sodipodi="http://sodipodi.sourceforge.net/DTD/sodipodi-0.dtd"
   xmlns:xlink="http://www.w3.org/1999/xlink"
   xmlns="http://www.w3.org/2000/svg"
   xmlns:svg="http://www.w3.org/2000/svg"><sodipodi:namedview
     id="namedview7"
     pagecolor="#ffffff"
     bordercolor="#999999"
     borderopacity="1"
     inkscape:showpageshadow="0"
     inkscape:pageopacity="0"
     inkscape:pagecheckerboard="0"
     inkscape:deskcolor="#d1d1d1"
     inkscape:document-units="mm"
     showgrid="false"
     inkscape:zoom="1.1036342"
     inkscape:cx="267.75177"
     inkscape:cy="320.75846"
     inkscape:window-width="1920"
     inkscape:window-height="1043"
     inkscape:window-x="1920"
     inkscape:window-y="0"
     inkscape:window-maximized="1"
     inkscape:current-layer="layer1" /><defs
     id="defs2"><linearGradient
   inkscape:collect="always"
   id="linearGradient1849"><stop
     style="stop-color:#ffa700;stop-opacity:1;"
     offset="0"
     id="stop1845" /><stop
     style="stop-color:#ff0000;stop-opacity:1;"
     offset="1"
     id="stop1847" /></linearGradient><marker
   style="overflow:visible"
   id="TriangleStart"
   refX="0"
   refY="0"
   orient="auto-start-reverse"
   inkscape:stockid="TriangleStart"
   markerWidth="3.2"
   markerHeight="3.6994221"
   viewBox="0 0 5.3244081 6.1553851"
   inkscape:isstock="true"
   inkscape:collect="always"
   preserveAspectRatio="xMidYMid"><path
     transform="scale(0.5)"
     style="fill:context-stroke;fill-rule:evenodd;stroke:context-stroke;stroke-width:1pt"
     d="M 5.77,0 -2.88,5 V -5 Z"
     id="path135" /></marker><clipPath
   clipPathUnits="userSpaceOnUse"
   id="a"><path
     d="M 0.48,-0.16 H 152.388 V 204.356 H 0.48 Z"
     id="path446" /></clipPath><linearGradient
   inkscape:collect="always"
   xlink:href="#linearGradient1849"
   id="linearGradient1851"
   x1="146.59258"
   y1="702.25031"
   x2="433.68967"
   y2="702.25031"
   gradientUnits="userSpaceOnUse"
   gradientTransform="matrix(0.26458333,0,0,0.26458333,8.1974322,-28.270014)" /><linearGradient
   inkscape:collect="always"
   xlink:href="#linearGradient1849"
   id="linearGradient2857"
   x1="277.36465"
   y1="699.41589"
   x2="431.64108"
   y2="699.41589"
   gradientUnits="userSpaceOnUse"
   gradientTransform="matrix(0.26458333,0,0,0.26458333,8.7394603,-28.270014)" /><linearGradient
   inkscape:collect="always"
   xlink:href="#linearGradient1849"
   id="linearGradient2916"
   x1="484.86462"
   y1="367.68289"
   x2="803.06708"
   y2="392.82239"
   gradientUnits="userSpaceOnUse"
   gradientTransform="matrix(0.19288125,0,0,0.19288125,18.54558,82.013266)" /><filter
   inkscape:collect="always"
   style="color-interpolation-filters:sRGB"
   id="filter1227"
   x="-0.017381624"
   y="-0.060451991"
   width="1.0347632"
   height="1.120904"><feGaussianBlur
     inkscape:collect="always"
     stdDeviation="0.39331812"
     id="feGaussianBlur1229" /></filter><filter
   inkscape:collect="always"
   style="color-interpolation-filters:sRGB"
   id="filter3867"
   x="-0.0037853317"
   y="-0.013165101"
   width="1.0075707"
   height="1.0263302"><feGaussianBlur
     inkscape:collect="always"
     stdDeviation="0.085655947"
     id="feGaussianBlur3869" /></filter>
	

		
		
	</defs><g
     inkscape:label="Layer 1"
     inkscape:groupmode="layer"
     id="layer1"
     transform="translate(-21.42845,-49.830482)"><text
       xml:space="preserve"
       style="font-weight:bold;font-size:10.5833px;line-height:1.25;font-family:sans-serif;-inkscape-font-specification:'sans-serif Bold';letter-spacing:0px;word-spacing:0px;stroke-width:0.264583"
       x="55.672894"
       y="223.74217"
       id="text6929"><tspan
         sodipodi:role="line"
         id="tspan6927"
         x="55.672894"
         y="223.74217"
         style="stroke-width:0.264583">source: https://smart.servier.com/</tspan></text><g
       id="g4881"
       inkscape:export-filename="../labsystems.png"
       inkscape:export-xdpi="480"
       inkscape:export-ydpi="480"><text
         xml:space="preserve"
         style="font-weight:bold;font-size:7.71525px;line-height:1.25;font-family:sans-serif;-inkscape-font-specification:'sans-serif Bold';text-align:center;letter-spacing:0px;word-spacing:0px;text-anchor:middle;opacity:0.520963;fill:#000000;fill-opacity:1;stroke-width:0.264583;filter:url(#filter1227)"
         x="136.48546"
         y="92.474083"
         id="text1225"><tspan
           sodipodi:role="line"
           id="tspan1221"
           x="136.48546"
           y="92.474083"
           style="fill:#000000;fill-opacity:1;stroke-width:0.264583">Atmospheric</tspan><tspan
           sodipodi:role="line"
           x="136.48546"
           y="102.11815"
           id="tspan1223"
           style="fill:#000000;fill-opacity:1;stroke-width:0.264583">Pressure</tspan></text><g
         id="g444"
         transform="matrix(0.26458333,0,0,0.26458333,31.540674,56.871561)"><path
           d="M 86.388,218.228 V 30.422 c -3.798,0.68 -9.515,1.359 -15.87,1.359 -6.957,0 -12.673,-0.68 -16.47,-1.36 v 187.807 c 0,31.06 -53.288,51.329 -53.288,116.849 0,25.704 17.789,47.291 26.663,52.688 7.596,4.757 19.628,6.756 43.094,6.756 23.466,0 34.9,-1.999 43.134,-6.756 8.235,-5.397 25.984,-26.984 25.984,-52.688 0,-65.52 -53.247,-85.788 -53.247,-116.85 z"
           fill="#d9f1f7"
           fill-rule="evenodd"
           fill-opacity="1"
           stroke="none"
           id="path357" /><path
           d="m 103.497,251.887 h -0.64 c 1.28,0.68 1.92,0.68 1.92,1.36 0,3.397 -15.231,6.076 -34.26,6.076 -18.988,0 -34.859,-2.679 -34.859,-6.076 0,-0.68 0.64,-0.68 1.92,-1.36 h -0.64 c -15.87,18.949 -36.178,42.615 -36.178,83.15 0,25.704 17.789,47.331 26.663,52.728 7.596,4.757 19.628,6.756 43.094,6.756 23.466,0 34.9,-1.999 43.134,-6.756 8.235,-5.397 25.984,-27.024 25.984,-52.728 0,-40.535 -20.267,-64.201 -36.138,-83.15 z"
           fill="#628bb1"
           fill-rule="evenodd"
           fill-opacity="1"
           stroke="none"
           id="path359" /><path
           d="m 35.698,253.646 c 0,-3.198 15.511,-5.836 34.62,-5.836 19.148,0 34.618,2.638 34.618,5.836 0,3.238 -15.47,5.837 -34.619,5.837 -19.108,0 -34.619,-2.599 -34.619,-5.837 z"
           fill="#8ba7c2"
           fill-rule="evenodd"
           fill-opacity="1"
           stroke="none"
           id="path361" /><path
           d="m 35.738,253.686 c 0,-3.198 15.51,-5.836 34.62,-5.836 19.148,0 34.618,2.638 34.618,5.836 0,3.238 -15.47,5.837 -34.619,5.837 -19.108,0 -34.619,-2.599 -34.619,-5.837"
           fill="none"
           stroke="#ffffff"
           stroke-width="1.35918px"
           stroke-linecap="round"
           stroke-linejoin="round"
           stroke-miterlimit="4"
           stroke-dasharray="none"
           stroke-opacity="1"
           id="path363" /><path
           d="m 42.015,5.077 c 0,-2.359 12.672,-4.317 28.262,-4.317 15.63,0 28.263,1.958 28.263,4.317 0,2.398 -12.632,4.317 -28.263,4.317 -15.59,0 -28.262,-1.919 -28.262,-4.317 z"
           fill="#e6f6f9"
           fill-rule="evenodd"
           fill-opacity="1"
           stroke="none"
           id="path365" /><path
           d="m 98.54,10.753 c 0,2.719 -12.672,4.718 -27.943,4.718 -15.87,0 -28.582,-2 -28.582,-4.718 V 5.317 c 0,2.039 12.712,4.077 28.582,4.077 15.271,0 27.943,-2.038 27.943,-4.077 z m -6.316,17.59 c 0,2.039 -9.514,3.358 -21.587,3.358 -12.033,0 -22.226,-1.32 -22.226,-3.358 v -4.717 c 0,2.038 10.193,3.398 22.226,3.398 12.073,0 21.587,-1.36 21.587,-3.398 z"
           fill="#c2e8f1"
           fill-rule="evenodd"
           fill-opacity="1"
           stroke="none"
           id="path367" /><path
           d="m 70.637,25.145 c 5.117,0 10.194,-0.64 13.992,-1.32 v -8.834 c -4.438,0.68 -8.875,0.68 -13.992,0.68 -5.077,0 -10.154,0 -14.63,-0.68 v 8.835 c 3.837,0.68 8.914,1.319 14.63,1.319 z m 0,6.755 c -5.716,0 -10.793,0 -14.63,-0.679 V 50.01 c 3.837,1.359 8.914,1.998 14.63,1.998 5.117,0 10.834,-0.64 13.992,-1.998 V 31.22 C 80.831,31.9 75.754,31.9 70.637,31.9 Z"
           fill="#edf8fb"
           fill-rule="evenodd"
           fill-opacity="1"
           stroke="none"
           id="path369" /><path
           d="m 84.629,21.067 v 2.719 c -3.798,0.68 -8.915,1.359 -13.992,1.359 -5.716,0 -10.793,-0.68 -14.591,-1.36 v -2.718 c -4.437,0.68 -7.635,2.039 -7.635,2.719 0,2.038 10.193,3.358 22.226,3.358 12.073,0 21.587,-1.32 21.587,-3.358 0,-0.68 -3.158,-2.04 -7.595,-2.719 z"
           fill="#e6f6f9"
           fill-rule="evenodd"
           fill-opacity="1"
           stroke="none"
           id="path371" /><path
           d="m 28.583,383.008 c 0,-3.678 18.628,-6.716 41.574,-6.716 22.987,0 41.575,3.038 41.575,6.716 0,3.718 -18.588,6.716 -41.575,6.716 -22.946,0 -41.574,-2.998 -41.574,-6.716 z"
           fill="#4277a4"
           fill-rule="evenodd"
           fill-opacity="1"
           stroke="none"
           id="path373" /><path
           d="m 57.725,32.42 3.798,187.807 c 0,45.932 -57.006,49.29 -57.006,114.81 0,-65.52 52.608,-84.429 52.608,-115.49 z"
           fill="#ffffff"
           fill-rule="evenodd"
           fill-opacity="1"
           stroke="none"
           id="path375" /><path
           d="M 102.378,254.806 C 91.584,241.973 82.03,231.18 82.03,218.348 V 31.22 c -4.437,12.193 -9.554,189.125 -9.554,189.125 0,14.192 8.915,23.666 17.83,37.138 5.716,-0.64 9.553,-1.32 12.072,-2.678 z"
           fill="#b0e2ed"
           fill-rule="evenodd"
           fill-opacity="1"
           stroke="none"
           id="path377" /><path
           d="m 102.378,254.646 c -0.6,-0.68 -0.6,0 -0.6,0 C 90.945,241.813 81.99,230.38 81.99,218.228 l -0.64,0.68 c 0,12.832 6.397,23.585 17.23,37.057 1.28,-0.64 2.559,-0.64 3.798,-1.32 z"
           fill="#79cde1"
           fill-rule="evenodd"
           fill-opacity="1"
           stroke="none"
           id="path379" /><path
           d="m 135.318,335.037 c 0,-37.817 -17.07,-60.084 -31.66,-78.353 -2.52,0.68 -6.957,2.04 -12.034,2.04 10.754,16.23 22.187,35.817 22.187,71.596 0,25.664 -6.996,47.291 -17.11,56.086 -3.158,2.678 -6.356,5.397 -10.793,7.395 10.793,-1.319 17.75,-3.358 23.466,-6.076 8.235,-5.397 25.944,-26.984 25.944,-52.688 z"
           fill="#4679a6"
           fill-rule="evenodd"
           fill-opacity="1"
           stroke="none"
           id="path381" /><path
           d="m 134.718,343.832 c 0.6,-2.679 0.6,-6.077 0.6,-8.755 0,-37.857 -17.79,-60.124 -32.38,-78.393 -1.28,0.68 -1.92,0.68 -3.838,1.36 0.64,0 0,-1.36 0,-0.68 15.27,18.269 32.42,38.537 34.979,77.713 0.64,2.678 0,6.076 -0.64,8.755 h 1.28 z"
           fill="#145a93"
           fill-rule="evenodd"
           fill-opacity="1"
           stroke="none"
           id="path383" /><path
           d="m 81.99,39.776 -0.64,178.412 c 0,12.872 8.915,24.345 19.07,37.177 15.23,18.27 33.659,41.215 33.659,79.752 0,17.59 -6.996,32.42 -12.073,39.176 5.077,-7.395 14.591,-20.947 14.591,-39.176 0,-39.216 -19.028,-62.842 -34.259,-81.11 C 92.184,241.174 83.27,230.38 83.27,218.187 L 81.99,39.777 Z"
           fill="#ffffff"
           fill-rule="evenodd"
           fill-opacity="1"
           stroke="none"
           id="path385" /><path
           d="m 29.382,375.572 c -16.47,-15.51 -10.753,-79.711 7.596,-97.3 -8.195,12.192 -20.868,68.958 -7.596,97.3 z M 5.317,331.679 c -1.28,9.474 5.037,38.497 20.787,49.97 -3.758,-6.077 -17.63,-29.702 -20.787,-49.97 z"
           fill="#8aa7c2"
           fill-rule="evenodd"
           fill-opacity="1"
           stroke="none"
           id="path387" /><path
           d="m 47.611,374.373 c 10.874,-2.718 35.738,-3.358 49.73,0.64 -8.915,-6.037 -33.14,-10.074 -49.73,-0.64 z"
           fill="#a6bbd0"
           fill-rule="evenodd"
           fill-opacity="1"
           stroke="none"
           id="path389" /><path
           d="m 109.334,364.14 c 7.515,-23.666 5.037,-54.807 -0.64,-69.718 1.28,12.872 6.276,41.974 0.64,69.717 z"
           fill="#145a93"
           fill-rule="evenodd"
           fill-opacity="1"
           stroke="none"
           id="path391" /><path
           d="m 58.565,34.5 c 0,0 -1.28,12.911 0.6,13.59 1.878,0.68 9.393,1.36 12.512,1.36 C 64.801,48.09 58.565,43.334 58.565,34.5 Z"
           fill="#ffffff"
           fill-rule="evenodd"
           fill-opacity="1"
           stroke="none"
           id="path393" /><path
           d="m 59.204,22.946 c 5.077,-6.116 22.267,0.68 24.145,-7.475 -6.356,1.359 -12.712,2.038 -19.068,1.359 -1.28,0 -4.437,-1.36 -5.716,-0.68 -1.28,0.68 -2.559,3.398 -1.28,5.437 z"
           fill="#d1eef5"
           fill-rule="evenodd"
           fill-opacity="1"
           stroke="none"
           id="path395" /><path
           d="m 42.015,5.077 c 0,-2.359 12.672,-4.317 28.262,-4.317 15.63,0 28.263,1.958 28.263,4.317 0,2.398 -12.632,4.317 -28.263,4.317 -15.59,0 -28.262,-1.919 -28.262,-4.317"
           fill="none"
           stroke="#333333"
           stroke-width="0.799515px"
           stroke-linecap="round"
           stroke-linejoin="round"
           stroke-miterlimit="4"
           stroke-dasharray="none"
           stroke-opacity="1"
           id="path397" /><path
           d="m 98.54,10.753 c 0,2.719 -12.672,4.718 -27.943,4.718 -15.87,0 -28.582,-2 -28.582,-4.718 V 5.317 c 0,2.039 12.712,4.077 28.582,4.077 15.271,0 27.943,-2.038 27.943,-4.077 z m -6.316,17.59 c 0,2.039 -9.514,3.358 -21.587,3.358 -12.033,0 -22.226,-1.32 -22.226,-3.358 v -4.717 c 0,2.038 10.193,3.398 22.226,3.398 12.073,0 21.587,-1.36 21.587,-3.398 z"
           fill="none"
           stroke="#333333"
           stroke-width="0.799515px"
           stroke-linecap="round"
           stroke-linejoin="round"
           stroke-miterlimit="4"
           stroke-dasharray="none"
           stroke-opacity="1"
           id="path399" /><path
           d="m 70.637,25.145 c 5.117,0 10.194,-0.64 13.992,-1.32 v -8.834 c -4.438,0.68 -8.875,0.68 -13.992,0.68 -5.077,0 -10.154,0 -14.63,-0.68 v 8.835 c 3.837,0.68 8.914,1.319 14.63,1.319"
           fill="none"
           stroke="#333333"
           stroke-width="0.799515px"
           stroke-linecap="round"
           stroke-linejoin="round"
           stroke-miterlimit="4"
           stroke-dasharray="none"
           stroke-opacity="1"
           id="path401" /><path
           d="m 70.637,31.9 c -5.716,0 -10.793,0 -14.63,-0.679 V 50.01 c 3.837,1.359 8.914,1.998 14.63,1.998 5.117,0 10.834,-0.64 13.992,-1.998 V 31.22 C 80.831,31.9 75.754,31.9 70.637,31.9"
           fill="none"
           stroke="#333333"
           stroke-width="0.479709px"
           stroke-linecap="round"
           stroke-linejoin="round"
           stroke-miterlimit="4"
           stroke-dasharray="none"
           stroke-opacity="1"
           id="path403" /><path
           d="m 84.629,21.067 v 2.719 c -3.798,0.68 -8.915,1.359 -13.992,1.359 -5.716,0 -10.793,-0.68 -14.591,-1.36 v -2.718 c -4.437,0.68 -7.635,2.039 -7.635,2.719 0,2.038 10.193,3.358 22.226,3.358 12.073,0 21.587,-1.32 21.587,-3.358 0,-0.68 -3.158,-2.04 -7.595,-2.719 m 1.759,197.161 V 30.422 c 0,0 0,0 0,0 -3.798,0.68 -9.515,1.359 -15.87,1.359 -6.957,0 -12.673,-0.68 -16.47,-1.36 0,0 0,0 0,0 v 187.807 c 0,31.06 -53.288,51.329 -53.288,116.849 0,25.704 17.789,47.291 26.663,52.688 7.596,4.757 19.628,6.756 43.094,6.756 0,0 0,0 0,0 23.466,0 34.9,-1.999 43.134,-6.756 8.235,-5.397 25.984,-26.984 25.984,-52.688 0,-65.52 -53.247,-85.788 -53.247,-116.85"
           fill="none"
           stroke="#333333"
           stroke-width="0.799515px"
           stroke-linecap="round"
           stroke-linejoin="round"
           stroke-miterlimit="4"
           stroke-dasharray="none"
           stroke-opacity="1"
           id="path405" /><path
           d="m 28.583,383.008 c 0,-3.678 18.628,-6.716 41.574,-6.716 22.987,0 41.575,3.038 41.575,6.716 0,3.718 -18.588,6.716 -41.575,6.716 -22.946,0 -41.574,-2.998 -41.574,-6.716"
           fill="none"
           stroke="#ffffff"
           stroke-width="0.479709px"
           stroke-linecap="round"
           stroke-linejoin="round"
           stroke-miterlimit="4"
           stroke-dasharray="none"
           stroke-opacity="1"
           id="path407" /><path
           d="m 57.285,258.723 c 0,-2.638 2,-4.837 4.438,-4.837 2.478,0 4.437,2.199 4.437,4.837 0,2.679 -1.959,4.837 -4.437,4.837 -2.439,0 -4.438,-2.158 -4.438,-4.837 z m 11.913,2.039 c 0,-1.799 1.32,-3.278 2.918,-3.278 1.64,0 2.919,1.48 2.919,3.278 0,1.839 -1.28,3.278 -2.919,3.278 -1.599,0 -2.918,-1.44 -2.918,-3.278 z m -19.028,0 c 0,-1.799 1.319,-3.278 2.918,-3.278 1.639,0 2.918,1.48 2.918,3.278 0,1.839 -1.28,3.278 -2.918,3.278 -1.6,0 -2.918,-1.44 -2.918,-3.278 z"
           fill="#ffffff"
           fill-rule="evenodd"
           fill-opacity="1"
           stroke="none"
           id="path409" /></g><g
         id="g544"
         transform="matrix(0.34220958,0,0,0.34210109,56.474409,103.47253)"
         style="stroke-width:0.773284"><path
           d="m 82.47,32.22 c -1.879,0 -27.743,0 -47.211,-3.757 -14.632,-2.639 -20.628,-9.395 -22.867,-7.875 -0.76,0.36 -5.276,4.117 -5.996,5.996 -0.4,1.12 -0.4,2.239 -1.16,2.998 2.999,-2.638 5.278,-1.12 9.035,1.879 3.358,2.638 5.997,3.758 5.997,11.633 v 134.918 c 0,15.39 27.743,25.105 62.202,25.105 34.14,0 61.883,-9.714 61.883,-25.105 V 34.1 c 0,-3.757 2.238,-10.154 5.596,-14.271 C 141.354,32.22 85.11,32.22 82.47,32.22 Z"
           fill="#d9f1f7"
           fill-rule="evenodd"
           fill-opacity="1"
           stroke="none"
           id="path451"
           style="stroke-width:0.597969" /><path
           d="m 32.26,186.407 c 0,-7.915 22.507,-14.391 50.21,-14.391 27.743,0 50.21,6.476 50.21,14.391 0,7.955 -22.467,14.391 -50.21,14.391 -27.703,0 -50.21,-6.436 -50.21,-14.391 z"
           fill="#bae5f0"
           fill-rule="evenodd"
           fill-opacity="1"
           stroke="none"
           id="path453"
           style="stroke-width:0.597969" /><path
           d="m 21.067,94.463 c 0,-7.836 27.544,-14.232 61.443,-14.232 33.94,0 61.443,6.396 61.443,14.232 0,7.875 -27.504,14.231 -61.443,14.231 -33.9,0 -61.443,-6.356 -61.443,-14.231 z"
           fill="#c2ccc7"
           fill-rule="evenodd"
           fill-opacity="1"
           stroke="none"
           id="path455"
           style="stroke-width:0.597969" /><path
           d="m 143.993,94.383 c 0,7.875 -27.743,14.271 -61.483,14.271 -34.1,0 -61.483,-6.396 -61.483,-14.271 h -0.76 v 83.63 c 0,15.39 27.744,25.104 62.243,25.104 34.14,0 61.843,-9.714 61.843,-25.105 v -83.63 h -0.36 z"
           fill="#8e9f97"
           fill-rule="evenodd"
           fill-opacity="1"
           stroke="none"
           id="path457"
           style="stroke-width:0.597969" /><path
           d="m 32.26,186.407 c 0,-7.915 22.507,-14.391 50.21,-14.391 27.743,0 50.21,6.476 50.21,14.391 0,7.955 -22.467,14.391 -50.21,14.391 -27.703,0 -50.21,-6.436 -50.21,-14.391 z"
           fill="#778982"
           fill-rule="evenodd"
           fill-opacity="1"
           stroke="none"
           id="path459"
           style="stroke-width:0.597969" /><path
           d="m 35.299,28.543 c 19.468,3.717 45.371,3.717 47.251,3.717 2.598,0 68.598,-0.36 68.598,-15.75 0,-15.75 -66,-15.75 -68.598,-15.75 -2.279,0 -37.897,0 -57.005,6.396 -13.153,4.517 -21.747,11.633 -23.266,16.51 -1.52,4.477 -0.36,6.756 1.519,6.756 1.839,0 2.238,-1.88 2.598,-3.758 0.76,-1.879 5.277,-5.637 5.996,-5.997 2.28,-1.519 8.275,5.237 22.907,7.876 z"
           fill="#eef9fb"
           fill-rule="evenodd"
           fill-opacity="1"
           stroke="none"
           id="path461"
           style="stroke-width:0.597969" /><path
           d="M 22.826,10.434 C 33.34,5.956 55.846,2.918 82.51,2.918 c 36.058,0 65.68,5.637 65.68,12.753 0,7.155 -29.622,12.752 -65.68,12.752 -26.664,0 -49.93,-2.998 -60.443,-7.476 -6.756,-2.998 -7.516,-3.398 -9.754,-2.998 -0.76,0.36 -2.24,1.12 -3.758,2.599 -1.48,1.159 -2.998,2.638 -4.118,4.517 0,0.36 -0.4,0.76 -0.4,0 0.4,-0.76 0.4,-1.52 0.76,-2.239 1.12,-2.278 4.877,-5.277 8.635,-7.875 1.519,-1.12 5.996,-3.398 9.394,-4.517 z"
           fill="#ade0ed"
           fill-rule="evenodd"
           fill-opacity="1"
           stroke="none"
           id="path463"
           style="stroke-width:0.597969" /><path
           d="m 23.985,21.707 c 10.874,3.758 33.02,6.716 58.525,6.716 25.545,0 47.691,-2.599 58.564,-6.716 8.236,-3.718 -24.784,-10.474 -58.564,-10.474 -33.74,0 -66.8,7.116 -58.525,10.474 z"
           fill="#79cde1"
           fill-rule="evenodd"
           fill-opacity="1"
           stroke="none"
           id="path465"
           style="stroke-width:0.597969" /><path
           d="M 127.483,25.025 C 115.89,22.746 99.38,21.227 82.51,21.227 c -16.87,0 -33.38,1.52 -44.653,3.798 11.633,2.278 27.383,3.398 44.653,3.398 17.23,0 33.38,-1.12 44.973,-3.398 z"
           fill="#3faccf"
           fill-rule="evenodd"
           fill-opacity="1"
           stroke="none"
           id="path467"
           style="stroke-width:0.597969" /><path
           d="m 11.273,24.705 c -4.517,1.48 3.358,6.356 4.477,7.475 1.48,1.12 4.118,1.12 5.597,2.599 1.48,1.479 2.239,3.718 2.998,5.956 0.36,-4.077 0.72,-7.835 -1.879,-10.793 -1.878,-1.879 -8.235,-3.358 -8.594,-5.997 z"
           fill="#b0e2ed"
           fill-rule="evenodd"
           fill-opacity="1"
           stroke="none"
           id="path469"
           style="stroke-width:0.597969" /><path
           d="m 149.95,19.788 c -1.84,2.638 -5.597,4.517 -10.834,5.996 l -15.391,3.398 C 105.016,32.18 84.029,32.18 82.51,32.18 c -1.839,0 -27.703,0 -47.171,-3.757 -2.999,-0.76 -5.637,-1.12 -7.876,-1.88 -0.76,0 -1.519,-0.359 -1.879,-0.359 -4.117,-1.12 -9.354,-4.877 -11.992,-4.517 -1.88,0.4 -3.758,2.998 -4.517,4.117 4.157,0.76 13.871,8.635 14.27,12.393 0.36,3.758 0,17.59 0,22.866 1.48,-10.514 1.12,-19.868 6.717,-22.866 5.277,-2.639 25.864,3.758 61.842,1.479 2.599,-0.36 5.597,-0.36 8.235,-0.72 19.868,0.36 34.1,7.836 34.1,27.344 0,5.237 0.36,12.352 0.36,20.627 3.757,1.48 6.755,2.999 8.234,4.837 V 40.056 c 0,-4.877 0.76,-7.876 1.88,-10.874 0,0 0.4,-0.4 0.759,-0.4 0.76,-2.998 2.238,-6.356 4.477,-8.994 z"
           fill="#b0e2ed"
           fill-rule="evenodd"
           fill-opacity="1"
           stroke="none"
           id="path471"
           style="stroke-width:0.597969" /><path
           d="M 149.95,19.828 C 141.353,32.18 85.067,32.18 82.47,32.18 c -1.879,0 -27.783,0 -47.251,-3.717 -14.631,-2.639 -20.628,-9.395 -22.906,-7.875 0,0 -0.36,0.36 -0.72,0.76 -1.16,0.359 -1.52,1.118 -2.279,1.878 -1.879,1.479 -3.358,3.718 -3.757,5.956 l 0.76,-0.36 c 0.759,-0.36 1.878,-0.759 2.997,-0.759 1.12,0.4 1.88,1.12 2.639,1.52 -1.52,-1.88 -2.998,-3.399 -0.36,-5.638 1.48,-1.119 2.239,-2.598 6.356,-0.36 0.76,0.36 1.12,0.76 1.879,1.12 0.76,0 1.12,0.36 1.879,0.76 31.5,15.35 100.899,7.115 107.615,6.715 6.756,0 10.913,4.118 10.913,15.751 v 41.935 c 1.12,0.36 1.48,1.119 2.239,1.479 V 47.17 c 0,-13.112 -0.4,-14.99 1.879,-20.227 1.878,-2.999 3.357,-4.877 4.877,-5.997 0.36,-0.36 0.36,-0.72 0.72,-1.119 z"
           fill="#79cde1"
           fill-rule="evenodd"
           fill-opacity="1"
           stroke="none"
           id="path473"
           style="stroke-width:0.597969" /><path
           d="m 142.833,97.341 c -1.479,1.52 -4.477,3.398 -8.594,4.517 0,21.747 -1.12,46.852 -3.758,63.722 -4.877,27.743 -25.864,32.62 -34.5,35.218 42.735,-2.998 46.852,-19.868 46.852,-24.345 z"
           fill="#6c7e76"
           fill-rule="evenodd"
           fill-opacity="1"
           stroke="none"
           id="path475"
           style="stroke-width:0.597969" /><path
           d="m 142.514,97.341 c -0.72,0.76 -1.12,1.16 -2.239,1.879 0.4,31.5 0.4,67.12 0,74.994 -0.36,13.872 -13.072,18.39 -23.586,23.226 21.347,-5.596 25.825,-16.47 25.825,-23.226 z"
           fill="#4f625a"
           fill-rule="evenodd"
           fill-opacity="1"
           stroke="none"
           id="path477"
           style="stroke-width:0.597969" /><path
           d="m 142.833,97.421 v -5.637 c -1.479,-1.878 -4.477,-3.398 -8.235,-4.917 -0.4,4.917 -0.4,9.794 -0.4,15.031 4.158,-1.12 7.156,-2.998 8.635,-4.477 z"
           fill="#99b3b3"
           fill-rule="evenodd"
           fill-opacity="1"
           stroke="none"
           id="path479"
           style="stroke-width:0.597969" /><path
           d="m 142.514,91.425 c -0.76,-0.4 -1.16,-1.12 -2.319,-1.52 v 9.275 c 1.16,-0.72 1.56,-1.08 2.319,-1.839 z"
           fill="#7b9a9a"
           fill-rule="evenodd"
           fill-opacity="1"
           stroke="none"
           id="path481"
           style="stroke-width:0.597969" /><path
           d="m 69.358,3.238 c -20.628,0.76 -37.897,3.398 -46.532,7.156 -3.398,1.119 -7.875,3.398 -9.394,4.517 -3.758,2.638 -7.516,5.637 -8.635,7.875 -0.36,0.76 -0.36,1.52 -0.76,2.279 0,0.72 0.4,0.36 0.4,0 1.12,-1.88 2.639,-3.398 4.118,-4.517 a 13.214,13.214 0 0 1 3.758,-2.639 c 2.238,-0.36 2.998,0 9.754,2.998 1.119,0.4 2.278,0.76 3.398,1.12 L 32.58,16.39 c 0,0 -3.358,0.76 -7.115,1.16 -2.639,0 -3.758,-1.16 -1.88,-3.399 C 27.343,9.634 55.846,4.757 69.358,3.238 Z"
           fill="#79cde1"
           fill-rule="evenodd"
           fill-opacity="1"
           stroke="none"
           id="path483"
           style="stroke-width:0.597969" /><path
           d="m 18.389,18.709 c -1.52,-0.76 -3.038,-1.52 -3.398,-2.239 -0.4,-1.12 0.76,-2.239 1.879,-3.398 -1.52,0.76 -2.639,1.52 -3.398,1.879 -0.76,0.76 -1.52,1.12 -2.639,1.879 0,0 0,0.36 -0.36,0.36 -2.638,1.878 -4.916,4.117 -5.676,5.636 -0.36,0.72 -0.36,1.48 -0.76,2.239 0,0.72 0.4,0.36 0.4,0 1.12,-1.88 2.639,-3.358 4.158,-4.477 1.479,-1.52 2.998,-2.28 3.758,-2.639 1.878,-0.36 2.638,-0.36 7.155,1.879 h 0.36 c -0.36,-0.4 -1.12,-0.76 -1.48,-1.12 z"
           fill="#3faccf"
           fill-rule="evenodd"
           fill-opacity="1"
           stroke="none"
           id="path485"
           style="stroke-width:0.597969" /><path
           d="m 99.34,170.537 c -5.237,-0.76 -10.834,-1.12 -16.83,-1.12 -14.231,0 -26.544,1.88 -35.938,4.438 13.472,-5.557 29.942,-8.155 52.768,-3.318 z"
           fill="#c2ccc7"
           fill-rule="evenodd"
           fill-opacity="1"
           stroke="none"
           id="path487"
           style="stroke-width:0.597969" /><path
           d="m 143.993,94.423 c 0,7.915 -27.703,14.311 -61.443,14.311 -34.06,0 -61.443,-6.396 -61.443,-14.311"
           fill="none"
           stroke="#ffffff"
           stroke-width="0.927377px"
           stroke-linecap="round"
           stroke-linejoin="round"
           stroke-miterlimit="4"
           stroke-dasharray="none"
           stroke-opacity="1"
           id="path489" /><path
           d="m 4.917,29.942 c 3.398,-3.398 5.637,-1.879 9.394,1.479 3.358,2.638 5.997,3.758 5.997,11.633 v 134.958 c 0,15.39 27.743,25.105 62.202,25.105 34.1,0 61.843,-9.714 61.843,-25.105 V 34.06 c 0,-3.757 2.238,-10.114 5.596,-14.271 m -56.606,74.274 0.16,71.237"
           fill="none"
           stroke="#333333"
           stroke-width="0.618252px"
           stroke-linecap="round"
           stroke-linejoin="round"
           stroke-miterlimit="4"
           stroke-dasharray="none"
           stroke-opacity="1"
           id="path491" /><path
           d="m 93.343,165.3 c 5.277,-0.36 10.554,-0.72 15.83,-1.44 m -15.83,-16.55 c 4.917,0 10.554,-0.36 15.83,-1.438 m -15.83,-16.151 c 4.917,0 10.194,-0.36 15.83,-1.519 m -15.83,-16.15 c 4.558,0 10.194,-0.36 15.83,-1.519 m -15.83,-16.47 c 4.558,0 9.435,-0.44 15.83,-0.88"
           fill="none"
           stroke="#333333"
           stroke-width="0.618252px"
           stroke-linecap="round"
           stroke-linejoin="round"
           stroke-miterlimit="4"
           stroke-dasharray="none"
           stroke-opacity="1"
           id="path493" /><path
           clip-path="url(#a)"
           d="m 35.299,28.543 c 19.468,3.717 45.371,3.717 47.251,3.717 2.598,0 68.598,-0.36 68.598,-15.75 0,-15.75 -66,-15.75 -68.598,-15.75 -2.279,0 -37.897,0 -57.005,6.396 -13.153,4.517 -21.747,11.633 -23.266,16.51 -1.52,4.477 -0.36,6.756 1.519,6.756 1.839,0 2.238,-1.88 2.598,-3.758 0.76,-1.879 5.277,-5.637 5.996,-5.997 2.28,-1.519 8.275,5.237 22.907,7.876"
           fill="none"
           stroke="#333333"
           stroke-width="0.618252px"
           stroke-linecap="round"
           stroke-linejoin="round"
           stroke-miterlimit="4"
           stroke-dasharray="none"
           stroke-opacity="1"
           id="path495" /><path
           d="M 22.826,10.434 C 33.34,5.956 55.846,2.918 82.51,2.918 c 36.058,0 65.68,5.637 65.68,12.753 0,7.155 -29.622,12.752 -65.68,12.752 -26.664,0 -49.93,-2.998 -60.443,-7.476 -6.756,-2.998 -7.516,-3.398 -9.754,-2.998 -0.76,0.36 -2.24,1.12 -3.758,2.599 -1.48,1.159 -2.998,2.638 -4.118,4.517 0,0.36 -0.4,0.76 -0.4,0 0.4,-0.76 0.4,-1.52 0.76,-2.239 1.12,-2.278 4.877,-5.277 8.635,-7.875 1.519,-1.12 5.996,-3.398 9.394,-4.517"
           fill="none"
           stroke="#ffffff"
           stroke-width="0.618252px"
           stroke-linecap="round"
           stroke-linejoin="round"
           stroke-miterlimit="4"
           stroke-dasharray="none"
           stroke-opacity="1"
           id="path497" /><path
           d="M 53.208,196.8 C 41.655,194.562 30.062,188.965 25.584,183.329 21.067,178.092 23.706,170.217 23.706,152.228 V 63.76 c 1.479,29.263 1.479,90.346 2.998,107.215 1.479,14.991 20.188,23.986 26.504,25.825 z"
           fill="#ffffff"
           fill-rule="evenodd"
           fill-opacity="1"
           stroke="none"
           id="path499"
           style="stroke-width:0.597969" /><path
           d="m 85.828,152.987 c 0,2.998 -1.48,4.877 -5.597,4.877 0,0 -7.155,0 -15.03,-0.36 -8.275,-0.36 -17.63,-1.519 -21.028,-3.397 -1.479,-0.76 -2.638,-2.239 -2.638,-4.118 v -20.707 c 0,-2.639 2.278,-4.917 4.917,-4.917 0,0 8.994,1.159 17.23,1.918 9.793,0.72 17.269,1.12 17.269,1.12 2.638,0 4.877,2.238 4.877,5.277 z"
           fill="#f2fafc"
           fill-rule="evenodd"
           fill-opacity="1"
           stroke="none"
           id="path501"
           style="stroke-width:0.597969" /><path
           d="m 85.828,152.987 c 0,2.998 -1.48,4.877 -5.597,4.877 0,0 -7.155,0 -15.03,-0.36 -8.275,-0.36 -17.63,-1.519 -21.028,-3.397 -1.479,-0.76 -2.638,-2.239 -2.638,-4.118 v -20.707 c 0,-2.639 2.278,-4.917 4.917,-4.917 0,0 8.994,1.159 17.23,1.918 9.793,0.72 17.269,1.12 17.269,1.12 2.638,0 4.877,2.238 4.877,5.277 z"
           fill="none"
           stroke="#ffffff"
           stroke-width="0.618252px"
           stroke-linecap="round"
           stroke-linejoin="round"
           stroke-miterlimit="4"
           stroke-dasharray="none"
           stroke-opacity="1"
           id="path503" /><path
           d="m 99.34,92.104 c 0.76,-0.76 1.879,-0.76 2.638,0 0.72,0.76 0.72,2.279 0,3.038 -0.76,0.76 -2.238,0.76 -2.998,0 -0.76,-0.76 -0.36,-2.278 0.36,-3.038 z m 4.917,0.4 c 0.4,-0.76 1.16,-0.76 1.919,0 0.36,0.36 0.36,1.12 0,1.839 -0.76,0.36 -1.52,0.36 -1.92,0 -0.759,-0.72 -0.759,-1.48 0,-1.84 z m -8.955,0.44 c 0.36,-0.4 1.12,-0.4 1.84,0 0.359,0.72 0.359,1.479 0,1.839 -0.72,0.72 -1.48,0.72 -1.84,0 -0.76,-0.36 -0.76,-1.48 0,-1.84 z m -49.57,11.233 c 1.12,-1.16 2.998,-1.16 3.718,0 1.12,1.12 1.12,2.598 0,3.718 -1.12,1.119 -2.598,1.119 -3.718,0 -1.159,-1.12 -1.159,-2.999 0,-3.718 z m 6.716,1.079 c 0.76,-0.4 1.919,-0.4 2.679,0.4 0.72,0.76 0.72,1.919 0,2.678 -0.76,0.36 -1.92,0.36 -2.679,-0.4 a 1.859,1.859 0 0 1 0,-2.678 z m -12.312,-1.799 c 0.76,-0.76 1.919,-0.76 2.678,0 0.72,0.72 0.72,1.8 0,2.519 -0.76,0.72 -1.919,0.72 -2.678,0 -0.76,-0.72 -0.76,-1.8 0,-2.519 z m 3.398,34.419 c 0,-7.115 0,-10.153 2.638,-10.913 2.239,-0.76 8.995,0.76 17.19,1.52 -7.476,0 -16.43,-1.52 -17.55,1.118 -1.519,2.639 -2.278,6.796 -2.278,8.275 z"
           fill="#ffffff"
           fill-rule="evenodd"
           fill-opacity="1"
           stroke="none"
           id="path505"
           style="stroke-width:0.597969" /><path
           d="m 67.2,155.866 c 7.874,0.4 13.511,1.119 15.75,-0.36 2.238,-1.12 1.519,-11.993 1.519,-17.63 -0.4,5.637 -1.12,14.272 -4.877,15.75 -4.118,1.52 -12.393,2.24 -12.393,2.24 z"
           fill="#def3f8"
           fill-rule="evenodd"
           fill-opacity="1"
           stroke="none"
           id="path507"
           style="stroke-width:0.597969" /></g><text
         xml:space="preserve"
         style="font-weight:bold;font-size:7.71525px;line-height:1.25;font-family:sans-serif;-inkscape-font-specification:'sans-serif Bold';text-align:center;letter-spacing:0px;word-spacing:0px;text-anchor:middle;opacity:0.520963;fill:#000000;fill-opacity:1;stroke-width:0.264583;filter:url(#filter3867)"
         x="136.48546"
         y="92.474083"
         id="text827"><tspan
           sodipodi:role="line"
           id="tspan825"
           x="136.48546"
           y="92.474083"
           style="fill:#000000;fill-opacity:1;stroke-width:0.264583">Atmospheric</tspan><tspan
           sodipodi:role="line"
           x="136.48546"
           y="102.11815"
           id="tspan829"
           style="fill:#000000;fill-opacity:1;stroke-width:0.264583">Pressure</tspan></text><text
         xml:space="preserve"
         style="font-weight:bold;font-size:7.71525px;line-height:1.25;font-family:sans-serif;-inkscape-font-specification:'sans-serif Bold';text-align:center;letter-spacing:0px;word-spacing:0px;text-anchor:middle;fill:url(#linearGradient2916);fill-opacity:1;stroke-width:0.264583"
         x="148.67085"
         y="154.96912"
         id="text835"><tspan
           sodipodi:role="line"
           x="148.67085"
           y="154.96912"
           id="tspan833"
           style="fill:url(#linearGradient2916);fill-opacity:1;stroke-width:0.264583">Room </tspan><tspan
           sodipodi:role="line"
           x="148.67085"
           y="164.61317"
           id="tspan889"
           style="fill:url(#linearGradient2916);fill-opacity:1;stroke-width:0.264583">Temperture</tspan></text><text
         xml:space="preserve"
         style="font-weight:bold;font-size:7.71525px;line-height:1.25;font-family:sans-serif;-inkscape-font-specification:'sans-serif Bold';text-align:center;letter-spacing:0px;word-spacing:0px;text-anchor:middle;fill:none;fill-opacity:1;stroke:#000000;stroke-width:0.465;stroke-dasharray:none;stroke-opacity:1"
         x="95.455406"
         y="65.44986"
         id="text895"><tspan
           sodipodi:role="line"
           x="95.455406"
           y="65.44986"
           id="tspan893"
           style="fill:none;fill-opacity:1;stroke:#000000;stroke-width:0.465;stroke-dasharray:none;stroke-opacity:1">Closed flask</tspan><tspan
           sodipodi:role="line"
           x="95.455406"
           y="75.093925"
           id="tspan899"
           style="fill:none;fill-opacity:1;stroke:#000000;stroke-width:0.465;stroke-dasharray:none;stroke-opacity:1">confines volume</tspan></text><path
         style="fill:none;stroke:url(#linearGradient1851);stroke-width:0.865;stroke-linecap:butt;stroke-linejoin:miter;stroke-dasharray:none;stroke-opacity:1;marker-end:url(#TriangleStart)"
         d="M 122.94449,164.38183 H 48.583387 v -12.28264"
         id="path1509" /><path
         style="fill:none;stroke:url(#linearGradient2857);stroke-width:0.865;stroke-linecap:butt;stroke-linejoin:miter;stroke-dasharray:none;stroke-opacity:1;marker-end:url(#TriangleStart)"
         d="M 122.94449,161.35098 H 83.725522 v -7.72081"
         id="path1511" /><path
         style="opacity:0.53;fill:none;stroke:#000000;stroke-width:0.865;stroke-linecap:butt;stroke-linejoin:miter;stroke-dasharray:none;stroke-opacity:1;marker-end:url(#TriangleStart)"
         d="M 108.3343,89.498039 H 85.189366 v 17.436991"
         id="path5356"
         sodipodi:nodetypes="ccc" /><g
         transform="matrix(0.00116821,0,0,-0.00116821,164.94803,101.89489)"
         fill="#000000"
         stroke="none"
         id="g1355"><path
           d="m 6095,12794 c -27,-2 -115,-8 -195,-14 C 4030,12643 2289,11657 1185,10109 -320,7999 -397,5162 992,2977 1816,1681 3084,716 4540,276 5466,-3 6424,-71 7380,76 c 761,117 1520,381 2180,759 1230,704 2185,1777 2734,3070 866,2040 607,4403 -679,6204 -886,1241 -2181,2128 -3645,2496 -340,86 -633,135 -1005,171 -150,14 -756,27 -870,18 z m 547,-984 c 776,-36 1477,-217 2158,-556 560,-279 978,-580 1426,-1028 435,-435 743,-858 1008,-1386 325,-645 500,-1269 567,-2020 26,-288 14,-767 -27,-1095 -128,-1030 -548,-1992 -1224,-2805 -133,-160 -427,-458 -591,-601 -792,-688 -1757,-1133 -2774,-1278 -283,-41 -469,-53 -785,-53 -880,0 -1667,187 -2450,582 -738,373 -1398,931 -1901,1605 -552,742 -909,1630 -1023,2550 -55,438 -55,912 0,1350 115,926 471,1810 1031,2560 163,219 293,368 522,596 241,240 338,325 576,504 863,649 1910,1026 2980,1075 238,10 281,10 507,0 z"
           id="path1349" /><path
           d="m 6240,10996 v -214 l -77,-6 c -431,-34 -740,-89 -1062,-191 -611,-193 -1123,-482 -1608,-908 l -130,-114 -155,148 -156,149 -110,-119 -111,-118 151,-151 152,-150 -75,-89 C 2395,8455 2022,7447 2020,6428 v -167 l -52,-5 c -29,-3 -125,-11 -213,-17 -88,-6 -161,-11 -162,-12 -4,-5 21,-313 26,-319 3,-4 96,0 205,8 110,8 205,13 213,10 7,-3 13,-20 13,-40 0,-63 60,-392 101,-552 80,-317 220,-686 361,-954 156,-298 322,-544 561,-831 82,-100 146,-184 140,-188 -25,-17 -313,-262 -313,-267 0,-11 204,-244 211,-242 4,2 169,138 365,303 197,165 364,305 372,310 11,9 -37,71 -233,305 -135,162 -281,344 -324,405 -372,523 -598,1102 -688,1765 -22,168 -26,712 -5,880 108,876 465,1631 1062,2244 627,643 1406,1026 2320,1138 66,8 223,13 420,13 197,0 354,-5 420,-13 755,-93 1397,-361 1980,-826 150,-120 433,-400 553,-547 423,-520 699,-1118 811,-1759 45,-260 51,-338 51,-680 -1,-280 -4,-347 -23,-481 -66,-466 -197,-882 -403,-1278 -151,-288 -279,-471 -609,-866 -192,-230 -239,-291 -228,-300 8,-5 175,-145 372,-310 196,-165 361,-301 365,-303 7,-2 211,231 211,242 0,5 -288,251 -314,268 -5,3 44,71 110,150 203,244 309,388 426,578 245,399 417,806 529,1253 42,166 99,481 99,543 0,20 6,37 13,40 8,3 103,-2 213,-10 109,-8 202,-12 205,-8 5,6 30,314 26,319 -1,1 -74,6 -162,12 -88,6 -183,14 -211,17 l -51,5 -6,247 c -11,459 -76,838 -217,1262 -183,555 -439,1011 -824,1468 l -70,84 152,150 151,151 -111,118 -110,119 -156,-149 -155,-148 -130,114 c -484,426 -997,715 -1608,908 -322,102 -631,157 -1061,191 l -78,6 v 214 214 h -160 -160 z"
           id="path1351" /><path
           d="m 8385,8348 c -165,-138 -605,-505 -978,-816 l -679,-565 -56,27 c -31,15 -82,33 -112,41 -74,20 -246,19 -323,-1 -229,-59 -412,-243 -471,-472 -21,-80 -22,-229 -1,-317 8,-38 12,-71 7,-74 -5,-3 -151,-125 -326,-270 l -317,-264 98,-101 c 54,-56 156,-161 226,-233 70,-73 130,-133 132,-133 2,0 131,140 286,311 198,218 287,309 298,305 118,-37 270,-48 371,-26 193,43 359,175 445,355 52,107 65,166 65,285 0,103 -13,173 -47,249 l -23,54 23,26 c 121,131 1675,1850 1681,1859 4,7 6,12 4,11 -2,0 -138,-113 -303,-251 z"
           id="path1353" /></g><path
         id="rect1438"
         style="color:#000000;fill:#000000;stroke:#000000;stroke-width:0.309;stroke-linecap:round;stroke-linejoin:round;stroke-dasharray:none;stroke-opacity:1"
         d="m 143.66186,59.921164 a 0.23463273,0.23463273 0 0 1 0.17573,0.08239 l 0.002,-0.0016 2.929,3.368061 -10e-4,10e-4 a 0.23463273,0.23463273 0 0 1 0.06,0.152785 v 11.111631 a 0.23463273,0.23463273 0 0 1 -0.23465,0.234654 h -11.11372 a 0.23463273,0.23463273 0 0 1 -0.1752,-0.08291 l -0.002,0.0021 -2.92848,-3.368061 0.002,-0.0016 a 0.23463273,0.23463273 0 0 1 -0.0594,-0.152264 V 60.155818 a 0.23463273,0.23463273 0 0 1 0.23465,-0.234654 z m -0.23465,0.469307 h -10.36179 l 2.52071,2.898755 h 7.84108 z m 0.46931,0.392655 v 2.5061 h 2.18071 z m -11.11163,5.21e-4 v 10.249148 h 2.45969 v -7.420269 z m 13.57132,2.974886 h -2.45969 v 7.42079 l 2.45969,2.82888 z m -2.929,0 h -7.71385 v 7.274262 h 7.71385 z m 0.12776,7.743569 h -7.84161 v 2.898755 h 10.36387 z m -8.31039,0 h -2.17916 l 2.17916,2.506101 z" /><path
         d="m 180.28453,160.64346 -0.19138,-0.0619 v -7.1436 c 0,-0.15456 -0.1411,-0.27948 -0.31532,-0.27948 -0.17423,0 -0.31506,0.12474 -0.31506,0.27948 v 7.17264 l -0.17526,0.0734 c -0.53894,0.22448 -0.88713,0.74654 -0.88713,1.32982 0,0.79481 0.64629,1.44105 1.44084,1.44105 0.79457,0 1.44092,-0.64606 1.44092,-1.44105 3e-5,-0.62662 -0.40104,-1.17737 -0.99761,-1.3704 z"
         id="path1367"
         style="fill:#000000;stroke-width:0.0295799" /><path
         d="m 181.46225,159.20558 v -7.18791 c 0,-0.94354 -0.76756,-1.71108 -1.71107,-1.71108 -0.94351,0 -1.71108,0.76754 -1.71108,1.71108 v 7.29981 c -0.89142,0.59376 -1.44084,1.59699 -1.44084,2.69638 0,1.7879 1.45448,3.24222 3.24196,3.24222 1.78763,0 3.24213,-1.45432 3.24213,-3.24222 -1.8e-4,-1.17876 -0.63047,-2.23831 -1.6211,-2.80828 z m -1.62103,5.15006 c -1.29303,0 -2.34146,-1.04849 -2.34146,-2.34178 0,-0.9735 0.59497,-1.80854 1.44093,-2.16137 v -7.83482 c 0,-0.44725 0.36271,-0.81046 0.81046,-0.81046 0.44766,0 0.81046,0.36324 0.81046,0.81046 v 3.11964 h -0.24773 v 0.16778 h 0.24773 v 1.1159 h -0.24773 v 0.16742 h 0.24773 v 1.24829 h -0.24773 v 0.1249 h 0.24773 v 1.82499 c 0.94028,0.30437 1.62094,1.18574 1.62094,2.22727 3e-5,1.29312 -1.0481,2.34178 -2.34133,2.34178 z"
         id="path1369"
         style="fill:#000000;stroke-width:0.0295799"
         sodipodi:nodetypes="cssscssccsscssscccccccccccccss" /><path
         d="m 181.46225,159.20558 v -7.18791 c 0,-0.94354 -0.76756,-1.71108 -1.71107,-1.71108 -0.94351,0 -1.71108,0.76754 -1.71108,1.71108 v 7.29981 c -0.89142,0.59376 -1.44084,1.59699 -1.44084,2.69638 0,1.7879 1.45448,3.24222 3.24196,3.24222 1.78763,0 3.24213,-1.45432 3.24213,-3.24222 -1.8e-4,-1.17876 -0.63047,-2.23831 -1.6211,-2.80828 z m -1.62103,5.15006 c -1.29303,0 -2.34146,-1.04849 -2.34146,-2.34178 0,-0.9735 0.59497,-1.80854 1.44093,-2.16137 v -7.83482 c 0,-0.44725 0.36271,-0.81046 0.81046,-0.81046 0.44766,0 0.81046,0.36324 0.81046,0.81046 v 3.06136 h -0.36111 v 0.22606 h 0.36111 v 1.05762 h -0.36111 v 0.2257 h 0.36111 v 1.19592 h -0.36111 v 0.17727 h 0.36111 v 1.82499 c 0.94028,0.30437 1.62094,1.18574 1.62094,2.22727 3e-5,1.29312 -1.0481,2.34178 -2.34133,2.34178 z"
         id="path3910"
         style="fill:#000000;stroke-width:0.0295799"
         sodipodi:nodetypes="cssscssccsscssscccccccccccccss" /><path
         d="m 181.46225,159.20558 v -7.18791 c 0,-0.94354 -0.76756,-1.71108 -1.71107,-1.71108 -0.94351,0 -1.71108,0.76754 -1.71108,1.71108 v 7.29981 c -0.89142,0.59376 -1.44084,1.59699 -1.44084,2.69638 0,1.7879 1.45448,3.24222 3.24196,3.24222 1.78763,0 3.24213,-1.45432 3.24213,-3.24222 -1.8e-4,-1.17876 -0.63047,-2.23831 -1.6211,-2.80828 z m -1.62103,5.15006 c -1.29303,0 -2.34146,-1.04849 -2.34146,-2.34178 0,-0.9735 0.59497,-1.80854 1.44093,-2.16137 v -7.83482 c 0,-0.44725 0.36271,-0.81046 0.81046,-0.81046 0.44766,0 0.81046,0.36324 0.81046,0.81046 v 1.77804 h -0.36111 v 0.22606 h 0.36111 v 3.71412 h -0.36111 v 0.22571 h 0.36111 v 1.82499 c 0.94028,0.30437 1.62094,1.18574 1.62094,2.22727 3e-5,1.29312 -1.0481,2.34178 -2.34133,2.34178 z"
         id="path3912"
         style="fill:#000000;stroke-width:0.0295799"
         sodipodi:nodetypes="cssscssccsscssscccccccccss" /></g></g></svg>
