<?xml version="1.0" encoding="UTF-8" standalone="no"?>
<!-- Created with Inkscape (http://www.inkscape.org/) -->

<svg
   width="242.84171mm"
   height="118.27377mm"
   viewBox="0 0 242.84171 118.27377"
   version="1.1"
   id="svg5"
   inkscape:version="1.2.2 (1:1.2.2+202305151914+b0a8486541)"
   sodipodi:docname="rgyr.svg"
   xmlns:inkscape="http://www.inkscape.org/namespaces/inkscape"
   xmlns:sodipodi="http://sodipodi.sourceforge.net/DTD/sodipodi-0.dtd"
   xmlns:xlink="http://www.w3.org/1999/xlink"
   xmlns="http://www.w3.org/2000/svg"
   xmlns:svg="http://www.w3.org/2000/svg">
  <sodipodi:namedview
     id="namedview7"
     pagecolor="#ffffff"
     bordercolor="#999999"
     borderopacity="1"
     inkscape:showpageshadow="0"
     inkscape:pageopacity="0"
     inkscape:pagecheckerboard="0"
     inkscape:deskcolor="#d1d1d1"
     inkscape:document-units="mm"
     showgrid="false"
     inkscape:zoom="0.78038721"
     inkscape:cx="647.75537"
     inkscape:cy="311.38389"
     inkscape:window-width="1920"
     inkscape:window-height="1043"
     inkscape:window-x="1920"
     inkscape:window-y="0"
     inkscape:window-maximized="1"
     inkscape:current-layer="layer1" />
  <defs
     id="defs2">
    <marker
       style="overflow:visible"
       id="marker2609"
       refX="0"
       refY="0"
       orient="auto"
       inkscape:stockid="Stop"
       markerWidth="0.375"
       markerHeight="3"
       viewBox="0 0 1 8"
       inkscape:isstock="true"
       inkscape:collect="always"
       preserveAspectRatio="xMidYMid">
      <path
         style="fill:none;stroke:context-stroke;stroke-width:1"
         d="M 0,4 V -4"
         id="path2607" />
    </marker>
    <marker
       style="overflow:visible"
       id="Stop"
       refX="0"
       refY="0"
       orient="auto"
       inkscape:stockid="Stop"
       markerWidth="0.375"
       markerHeight="3"
       viewBox="0 0 1 8"
       inkscape:isstock="true"
       inkscape:collect="always"
       preserveAspectRatio="xMidYMid">
      <path
         style="fill:none;stroke:context-stroke;stroke-width:1"
         d="M 0,4 V -4"
         id="path171" />
    </marker>
    <linearGradient
       inkscape:collect="always"
       id="linearGradient1101">
      <stop
         style="stop-color:#000000;stop-opacity:1;"
         offset="0"
         id="stop1097" />
      <stop
         style="stop-color:#e4e4e4;stop-opacity:1;"
         offset="1"
         id="stop1099" />
    </linearGradient>
    <linearGradient
       inkscape:collect="always"
       id="linearGradient871">
      <stop
         style="stop-color:#b5b5b5;stop-opacity:1;"
         offset="0"
         id="stop867" />
      <stop
         style="stop-color:#000000;stop-opacity:1;"
         offset="1"
         id="stop869" />
    </linearGradient>
    <radialGradient
       inkscape:collect="always"
       xlink:href="#linearGradient871"
       id="radialGradient978"
       gradientUnits="userSpaceOnUse"
       cx="28.051399"
       cy="151.11017"
       fx="28.051399"
       fy="151.11017"
       r="4.7239676"
       gradientTransform="translate(0.83832302,1.3639064)" />
    <radialGradient
       inkscape:collect="always"
       xlink:href="#linearGradient871"
       id="radialGradient982"
       gradientUnits="userSpaceOnUse"
       cx="28.051399"
       cy="151.11017"
       fx="28.051399"
       fy="151.11017"
       r="4.7239676"
       gradientTransform="translate(22.60294,-10.002253)" />
    <radialGradient
       inkscape:collect="always"
       xlink:href="#linearGradient871"
       id="radialGradient986"
       gradientUnits="userSpaceOnUse"
       cx="28.051399"
       cy="151.11017"
       fx="28.051399"
       fy="151.11017"
       r="4.7239676"
       gradientTransform="translate(20.556034,-41.317215)" />
    <radialGradient
       inkscape:collect="always"
       xlink:href="#linearGradient871"
       id="radialGradient990"
       gradientUnits="userSpaceOnUse"
       cx="28.051399"
       cy="151.11017"
       fx="28.051399"
       fy="151.11017"
       r="4.7239676"
       gradientTransform="translate(49.473525,-40.431109)" />
    <radialGradient
       inkscape:collect="always"
       xlink:href="#linearGradient871"
       id="radialGradient994"
       gradientUnits="userSpaceOnUse"
       cx="28.051399"
       cy="151.11017"
       fx="28.051399"
       fy="151.11017"
       r="4.7239676"
       gradientTransform="translate(38.130675,-70.88588)" />
    <radialGradient
       inkscape:collect="always"
       xlink:href="#linearGradient871"
       id="radialGradient998"
       gradientUnits="userSpaceOnUse"
       cx="28.051399"
       cy="151.11017"
       fx="28.051399"
       fy="151.11017"
       r="4.7239676"
       gradientTransform="translate(76.726778,-65.010075)" />
    <radialGradient
       inkscape:collect="always"
       xlink:href="#linearGradient871"
       id="radialGradient1002"
       gradientUnits="userSpaceOnUse"
       cx="28.051399"
       cy="151.11017"
       fx="28.051399"
       fy="151.11017"
       r="4.7239676"
       gradientTransform="translate(76.791161,-99.006706)" />
    <radialGradient
       inkscape:collect="always"
       xlink:href="#linearGradient871"
       id="radialGradient1006"
       gradientUnits="userSpaceOnUse"
       cx="28.051399"
       cy="151.11017"
       fx="28.051399"
       fy="151.11017"
       r="4.7239676"
       gradientTransform="translate(118.97695,-97.172451)" />
    <linearGradient
       inkscape:collect="always"
       xlink:href="#linearGradient1101"
       id="linearGradient1103"
       x1="41.67292"
       y1="148.73523"
       x2="40.573734"
       y2="146.47787"
       gradientUnits="userSpaceOnUse" />
    <linearGradient
       inkscape:collect="always"
       xlink:href="#linearGradient1101"
       id="linearGradient1166"
       gradientUnits="userSpaceOnUse"
       x1="52.584496"
       y1="126.8939"
       x2="46.564163"
       y2="126.8939" />
    <linearGradient
       inkscape:collect="always"
       xlink:href="#linearGradient1101"
       id="linearGradient1168"
       gradientUnits="userSpaceOnUse"
       x1="64.191841"
       y1="112.92701"
       x2="64.191841"
       y2="108.60669" />
    <linearGradient
       inkscape:collect="always"
       xlink:href="#linearGradient1101"
       id="linearGradient1170"
       gradientUnits="userSpaceOnUse"
       x1="74.524643"
       y1="97.124886"
       x2="70.291634"
       y2="98.259117" />
    <linearGradient
       inkscape:collect="always"
       xlink:href="#linearGradient1101"
       id="linearGradient1172"
       gradientUnits="userSpaceOnUse"
       x1="86.026245"
       y1="85.609367"
       x2="86.321724"
       y2="81.861145" />
    <linearGradient
       inkscape:collect="always"
       xlink:href="#linearGradient1101"
       id="linearGradient1174"
       gradientUnits="userSpaceOnUse"
       x1="107.65913"
       y1="71.573311"
       x2="101.10172"
       y2="71.033226" />
    <linearGradient
       inkscape:collect="always"
       xlink:href="#linearGradient1101"
       id="linearGradient1176"
       gradientUnits="userSpaceOnUse"
       x1="125.95382"
       y1="55.858109"
       x2="125.95382"
       y2="51.812073" />
    <radialGradient
       inkscape:collect="always"
       xlink:href="#linearGradient871"
       id="radialGradient1194"
       gradientUnits="userSpaceOnUse"
       gradientTransform="translate(213.81405,-130.00922)"
       cx="28.051399"
       cy="151.11017"
       fx="28.051399"
       fy="151.11017"
       r="4.7239676" />
    <radialGradient
       inkscape:collect="always"
       xlink:href="#linearGradient871"
       id="radialGradient1196"
       gradientUnits="userSpaceOnUse"
       gradientTransform="translate(171.62826,-131.84348)"
       cx="28.051399"
       cy="151.11017"
       fx="28.051399"
       fy="151.11017"
       r="4.7239676" />
    <radialGradient
       inkscape:collect="always"
       xlink:href="#linearGradient871"
       id="radialGradient1198"
       gradientUnits="userSpaceOnUse"
       gradientTransform="translate(171.56387,-97.846844)"
       cx="28.051399"
       cy="151.11017"
       fx="28.051399"
       fy="151.11017"
       r="4.7239676" />
    <radialGradient
       inkscape:collect="always"
       xlink:href="#linearGradient871"
       id="radialGradient1200"
       gradientUnits="userSpaceOnUse"
       gradientTransform="translate(132.96777,-103.72265)"
       cx="28.051399"
       cy="151.11017"
       fx="28.051399"
       fy="151.11017"
       r="4.7239676" />
    <radialGradient
       inkscape:collect="always"
       xlink:href="#linearGradient871"
       id="radialGradient1202"
       gradientUnits="userSpaceOnUse"
       gradientTransform="translate(144.31062,-73.267878)"
       cx="28.051399"
       cy="151.11017"
       fx="28.051399"
       fy="151.11017"
       r="4.7239676" />
    <radialGradient
       inkscape:collect="always"
       xlink:href="#linearGradient871"
       id="radialGradient1204"
       gradientUnits="userSpaceOnUse"
       gradientTransform="translate(115.39313,-74.153984)"
       cx="28.051399"
       cy="151.11017"
       fx="28.051399"
       fy="151.11017"
       r="4.7239676" />
    <radialGradient
       inkscape:collect="always"
       xlink:href="#linearGradient871"
       id="radialGradient1206"
       gradientUnits="userSpaceOnUse"
       gradientTransform="translate(117.44003,-42.839022)"
       cx="28.051399"
       cy="151.11017"
       fx="28.051399"
       fy="151.11017"
       r="4.7239676" />
    <radialGradient
       inkscape:collect="always"
       xlink:href="#linearGradient871"
       id="radialGradient1208"
       gradientUnits="userSpaceOnUse"
       gradientTransform="translate(95.675414,-31.472862)"
       cx="28.051399"
       cy="151.11017"
       fx="28.051399"
       fy="151.11017"
       r="4.7239676" />
  </defs>
  <g
     inkscape:label="Layer 1"
     inkscape:groupmode="layer"
     id="layer1"
     transform="translate(-4.8733772,-9.374245)">
    <g
       id="g5272">
      <g
         id="g4311"
         transform="translate(-20.418038,-30.993476)">
        <path
           style="opacity:1;fill:none;stroke:url(#linearGradient1103);stroke-width:1.609;stroke-linecap:round;stroke-linejoin:bevel;stroke-dasharray:none;stop-color:#000000"
           d="M 30.015383,153.91752 51.779997,142.55138"
           id="path1095" />
        <path
           style="opacity:1;fill:none;stroke:url(#linearGradient1166);stroke-width:1.609;stroke-linecap:round;stroke-linejoin:bevel;stroke-dasharray:none;stop-color:#000000"
           d="m 49.733093,111.23641 2.046904,31.31497"
           id="path1154"
           sodipodi:nodetypes="cc" />
        <path
           style="opacity:1;fill:none;stroke:url(#linearGradient1168);stroke-width:1.609;stroke-linecap:round;stroke-linejoin:bevel;stroke-dasharray:none;stop-color:#000000"
           d="m 49.733093,111.23641 28.917496,0.8861"
           id="path1156"
           sodipodi:nodetypes="cc" />
        <path
           style="opacity:1;fill:none;stroke:url(#linearGradient1170);stroke-width:1.609;stroke-linecap:round;stroke-linejoin:bevel;stroke-dasharray:none;stop-color:#000000"
           d="m 67.307732,81.66774 11.342857,30.45477"
           id="path1158"
           sodipodi:nodetypes="cc" />
        <path
           style="opacity:1;fill:none;stroke:url(#linearGradient1172);stroke-width:1.609;stroke-linecap:round;stroke-linejoin:bevel;stroke-dasharray:none;stop-color:#000000"
           d="m 67.307732,81.66774 38.596108,5.875801"
           id="path1160"
           sodipodi:nodetypes="cc" />
        <path
           style="opacity:1;fill:none;stroke:url(#linearGradient1174);stroke-width:1.609;stroke-linecap:round;stroke-linejoin:bevel;stroke-dasharray:none;stop-color:#000000"
           d="m 105.96822,53.546913 -0.0644,33.996628"
           id="path1162"
           sodipodi:nodetypes="cc" />
        <path
           style="opacity:1;fill:none;stroke:url(#linearGradient1176);stroke-width:1.609;stroke-linecap:round;stroke-linejoin:bevel;stroke-dasharray:none;stop-color:#000000"
           d="m 105.96822,53.546913 42.1858,1.834263"
           id="path1164"
           sodipodi:nodetypes="cc" />
        <circle
           style="opacity:1;fill:url(#radialGradient978);fill-opacity:1;stroke-width:0.308999;stroke-linecap:round;stroke-linejoin:bevel;stop-color:#000000"
           id="circle976"
           cx="30.015383"
           cy="153.91753"
           r="4.7239676" />
        <circle
           style="opacity:1;fill:url(#radialGradient982);fill-opacity:1;stroke-width:0.308999;stroke-linecap:round;stroke-linejoin:bevel;stop-color:#000000"
           id="circle980"
           cx="51.779999"
           cy="142.55138"
           r="4.7239676" />
        <circle
           style="opacity:1;fill:url(#radialGradient986);fill-opacity:1;stroke-width:0.308999;stroke-linecap:round;stroke-linejoin:bevel;stop-color:#000000"
           id="circle984"
           cx="49.733093"
           cy="111.23641"
           r="4.7239676" />
        <circle
           style="opacity:1;fill:url(#radialGradient990);fill-opacity:1;stroke-width:0.308999;stroke-linecap:round;stroke-linejoin:bevel;stop-color:#000000"
           id="circle988"
           cx="78.650589"
           cy="112.12251"
           r="4.7239676" />
        <circle
           style="opacity:1;fill:url(#radialGradient994);fill-opacity:1;stroke-width:0.308999;stroke-linecap:round;stroke-linejoin:bevel;stop-color:#000000"
           id="circle992"
           cx="67.307732"
           cy="81.66774"
           r="4.7239676" />
        <circle
           style="opacity:1;fill:url(#radialGradient998);fill-opacity:1;stroke-width:0.308999;stroke-linecap:round;stroke-linejoin:bevel;stop-color:#000000"
           id="circle996"
           cx="105.90384"
           cy="87.543541"
           r="4.7239676" />
        <circle
           style="opacity:1;fill:url(#radialGradient1002);fill-opacity:1;stroke-width:0.308999;stroke-linecap:round;stroke-linejoin:bevel;stop-color:#000000"
           id="circle1000"
           cx="105.96822"
           cy="53.546913"
           r="4.7239676" />
        <circle
           style="opacity:1;fill:url(#radialGradient1006);fill-opacity:1;stroke-width:0.308999;stroke-linecap:round;stroke-linejoin:bevel;stop-color:#000000"
           id="circle1004"
           cx="148.15402"
           cy="55.381176"
           r="4.7239676" />
      </g>
      <text
         xml:space="preserve"
         style="font-size:3.88173px;line-height:1.05;font-family:sans-serif;-inkscape-font-specification:sans-serif;text-align:justify;opacity:1;fill:#000000;fill-opacity:1;stroke:none;stroke-width:1;stroke-linecap:butt;stroke-linejoin:bevel;stroke-dasharray:1, 2;stroke-dashoffset:0;stroke-opacity:1;stop-color:#000000"
         x="13.02352"
         y="12.570323"
         id="text4387"><tspan
           sodipodi:role="line"
           id="tspan4385"
           style="stroke-width:1"
           x="13.02352"
           y="12.570323">Polymer Conformation at Time t<tspan
   style="font-size:65%;baseline-shift:sub"
   id="tspan4954">1</tspan></tspan></text>
      <circle
         style="fill:none;fill-opacity:1;stroke:#ff7f00;stroke-width:1;stroke-linecap:round;stroke-linejoin:bevel;stroke-dasharray:1, 2;stroke-dashoffset:0;stroke-opacity:1;stop-color:#000000"
         id="circle2403"
         cx="177.69615"
         cy="63.900227"
         r="46.141609" />
      <circle
         style="fill:url(#radialGradient1208);fill-opacity:1;stroke-width:0.308999;stroke-linecap:round;stroke-linejoin:bevel;stop-color:#000000"
         id="circle1178"
         cx="124.85248"
         cy="121.08076"
         r="4.7239676" />
      <circle
         style="fill:url(#radialGradient1206);fill-opacity:1;stroke-width:0.308999;stroke-linecap:round;stroke-linejoin:bevel;stop-color:#000000"
         id="circle1180"
         cx="146.61708"
         cy="109.71461"
         r="4.7239676" />
      <circle
         style="fill:url(#radialGradient1204);fill-opacity:1;stroke-width:0.308999;stroke-linecap:round;stroke-linejoin:bevel;stop-color:#000000"
         id="circle1182"
         cx="144.57019"
         cy="78.399651"
         r="4.7239676" />
      <circle
         style="fill:url(#radialGradient1202);fill-opacity:1;stroke-width:0.308999;stroke-linecap:round;stroke-linejoin:bevel;stop-color:#000000"
         id="circle1184"
         cx="173.48769"
         cy="79.285744"
         r="4.7239676" />
      <circle
         style="fill:url(#radialGradient1200);fill-opacity:1;stroke-width:0.308999;stroke-linecap:round;stroke-linejoin:bevel;stop-color:#000000"
         id="circle1186"
         cx="162.14482"
         cy="48.830959"
         r="4.7239676" />
      <circle
         style="fill:url(#radialGradient1198);fill-opacity:1;stroke-width:0.308999;stroke-linecap:round;stroke-linejoin:bevel;stop-color:#000000"
         id="circle1188"
         cx="200.74094"
         cy="54.706776"
         r="4.7239676" />
      <circle
         style="fill:url(#radialGradient1196);fill-opacity:1;stroke-width:0.308999;stroke-linecap:round;stroke-linejoin:bevel;stop-color:#000000"
         id="circle1190"
         cx="200.80531"
         cy="20.710142"
         r="4.7239676" />
      <circle
         style="fill:url(#radialGradient1194);fill-opacity:1;stroke-width:0.308999;stroke-linecap:round;stroke-linejoin:bevel;stop-color:#000000"
         id="circle1192"
         cx="242.99112"
         cy="22.544409"
         r="4.7239676" />
      <g
         id="path2112"
         transform="translate(35.775397,-70.852096)"
         style="opacity:0.578504">
        <path
           style="color:#000000;fill:#b100a5;stroke-linecap:round;stroke-linejoin:bevel;-inkscape-stroke:none"
           d="m 163.38672,125.38477 -21.61168,7.89958 c -0.36484,0.13354 -0.5527,0.53723 -0.41992,0.90235 0.13355,0.36483 0.53724,0.5527 0.90235,0.41992 l 21.61362,-7.89764 c 0.36588,-0.13353 0.55399,-0.5386 0.41993,-0.90429 -0.13353,-0.36588 -0.53861,-0.55399 -0.9043,-0.41992 z"
           id="path2130"
           sodipodi:nodetypes="ccccccc" />
        <g
           id="g2120">
          <g
             id="path2122">
            <path
               style="color:#000000;fill:#b100a5;fill-rule:evenodd;stroke-width:0.246645pt;-inkscape-stroke:none"
               d="m 164.96553,125.55887 -1.5806,1.89058 -0.84655,-2.31663 z"
               id="path2126" />
            <path
               style="color:#000000;fill:#b100a5;fill-rule:evenodd;-inkscape-stroke:none"
               d="m 162.28516,124.92188 1.04296,2.85156 1.94532,-2.32813 -0.2793,-0.0488 z m 0.50586,0.42187 1.86523,0.32813 -1.21484,1.45312 z"
               id="path2128" />
          </g>
        </g>
      </g>
      <g
         id="g2148"
         transform="rotate(-116.83798,139.85199,88.213354)"
         inkscape:transform-center-x="-9.1536263"
         inkscape:transform-center-y="8.5855167"
         style="opacity:0.578504">
        <path
           style="color:#000000;fill:#b100a5;stroke-linecap:round;stroke-linejoin:bevel;-inkscape-stroke:none"
           d="m 163.38672,125.38477 -17.74594,6.42136 c -0.36484,0.13354 -0.5527,0.53723 -0.41992,0.90235 0.13355,0.36483 0.53724,0.5527 0.90235,0.41992 l 17.74788,-6.41942 c 0.36588,-0.13353 0.55399,-0.5386 0.41993,-0.90429 -0.13353,-0.36588 -0.53861,-0.55399 -0.9043,-0.41992 z"
           id="path2138"
           sodipodi:nodetypes="ccccccc" />
        <g
           id="g2146">
          <g
             id="g2144">
            <path
               style="color:#000000;fill:#b100a5;fill-rule:evenodd;stroke-width:0.246645pt;-inkscape-stroke:none"
               d="m 164.96553,125.55887 -1.5806,1.89058 -0.84655,-2.31663 z"
               id="path2140" />
            <path
               style="color:#000000;fill:#b100a5;fill-rule:evenodd;-inkscape-stroke:none"
               d="m 162.28516,124.92188 1.04296,2.85156 1.94532,-2.32813 -0.2793,-0.0488 z m 0.50586,0.42187 1.86523,0.32813 -1.21484,1.45312 z"
               id="path2142" />
          </g>
        </g>
      </g>
      <g
         id="g2160"
         transform="rotate(171.6698,156.59703,101.35713)"
         inkscape:transform-center-x="-10.953768"
         inkscape:transform-center-y="-6.0423148"
         style="opacity:0.578504">
        <path
           style="color:#000000;fill:#b100a5;stroke-linecap:round;stroke-linejoin:bevel;-inkscape-stroke:none"
           d="m 163.38672,125.38477 -32.19524,9.71654 c -0.36484,0.13354 -0.5527,0.53723 -0.41992,0.90235 0.13355,0.36483 0.53724,0.5527 0.90235,0.41992 l 32.19718,-9.7146 c 0.36588,-0.13353 0.55399,-0.5386 0.41993,-0.90429 -0.13353,-0.36588 -0.53861,-0.55399 -0.9043,-0.41992 z"
           id="path2150"
           sodipodi:nodetypes="ccccccc" />
        <g
           id="g2158">
          <g
             id="g2156">
            <path
               style="color:#000000;fill:#b100a5;fill-rule:evenodd;stroke-width:0.246645pt;-inkscape-stroke:none"
               d="m 164.96553,125.55887 -1.5806,1.89058 -0.84655,-2.31663 z"
               id="path2152" />
            <path
               style="color:#000000;fill:#b100a5;fill-rule:evenodd;-inkscape-stroke:none"
               d="m 162.28516,124.92188 1.04296,2.85156 1.94532,-2.32813 -0.2793,-0.0488 z m 0.50586,0.42187 1.86523,0.32813 -1.21484,1.45312 z"
               id="path2154" />
          </g>
        </g>
      </g>
      <g
         id="g2172"
         transform="rotate(121.36438,182.27713,104.99448)"
         inkscape:transform-center-x="-2.2242869"
         inkscape:transform-center-y="-12.171295"
         style="opacity:0.579">
        <path
           style="color:#000000;fill:#b100a5;stroke-linecap:round;stroke-linejoin:bevel;-inkscape-stroke:none"
           d="m 163.38672,125.38477 -13.58328,4.78502 c -0.36484,0.13354 -0.5527,0.53723 -0.41992,0.90235 0.13355,0.36483 0.53724,0.5527 0.90235,0.41992 l 13.58522,-4.78308 c 0.36588,-0.13353 0.55399,-0.5386 0.41993,-0.90429 -0.13353,-0.36588 -0.53861,-0.55399 -0.9043,-0.41992 z"
           id="path2162"
           sodipodi:nodetypes="ccccccc" />
        <g
           id="g2170">
          <g
             id="g2168">
            <path
               style="color:#000000;fill:#b100a5;fill-rule:evenodd;stroke-width:0.246645pt;-inkscape-stroke:none"
               d="m 164.96553,125.55887 -1.5806,1.89058 -0.84655,-2.31663 z"
               id="path2164" />
            <path
               style="color:#000000;fill:#b100a5;fill-rule:evenodd;-inkscape-stroke:none"
               d="m 162.28516,124.92188 1.04296,2.85156 1.94532,-2.32813 -0.2793,-0.0488 z m 0.50586,0.42187 1.86523,0.32813 -1.21484,1.45312 z"
               id="path2166" />
          </g>
        </g>
      </g>
      <g
         id="g2184"
         transform="rotate(142.00038,158.60078,114.63095)"
         inkscape:transform-center-x="-6.7259774"
         inkscape:transform-center-y="-10.581077"
         style="opacity:0.578504">
        <path
           style="color:#000000;fill:#b100a5;stroke-linecap:round;stroke-linejoin:bevel;-inkscape-stroke:none"
           d="m 163.38672,125.38477 -50.54864,17.35817 c -0.36484,0.13354 -0.5527,0.53723 -0.41992,0.90235 0.13355,0.36483 0.53724,0.5527 0.90235,0.41992 l 50.55058,-17.35623 c 0.36588,-0.13353 0.55399,-0.5386 0.41993,-0.90429 -0.13353,-0.36588 -0.53861,-0.55399 -0.9043,-0.41992 z"
           id="path2174"
           sodipodi:nodetypes="ccccccc" />
        <g
           id="g2182">
          <g
             id="g2180">
            <path
               style="color:#000000;fill:#b100a5;fill-rule:evenodd;stroke-width:0.246645pt;-inkscape-stroke:none"
               d="m 164.96553,125.55887 -1.5806,1.89058 -0.84655,-2.31663 z"
               id="path2176" />
            <path
               style="color:#000000;fill:#b100a5;fill-rule:evenodd;-inkscape-stroke:none"
               d="m 162.28516,124.92188 1.04296,2.85156 1.94532,-2.32813 -0.2793,-0.0488 z m 0.50586,0.42187 1.86523,0.32813 -1.21484,1.45312 z"
               id="path2178" />
          </g>
        </g>
      </g>
      <g
         id="g2196"
         transform="rotate(150.67489,145.58578,118.21527)"
         inkscape:transform-center-x="-8.1958097"
         inkscape:transform-center-y="-9.5026519"
         style="opacity:0.578504">
        <path
           style="color:#000000;fill:#b100a5;stroke-linecap:round;stroke-linejoin:bevel;-inkscape-stroke:none"
           d="M 163.38672,125.38477 91.624668,149.7114 c -0.36484,0.13354 -0.5527,0.53723 -0.41992,0.90235 0.13355,0.36483 0.53724,0.5527 0.90235,0.41992 l 71.763992,-24.32469 c 0.36588,-0.13353 0.55399,-0.5386 0.41993,-0.90429 -0.13353,-0.36588 -0.53861,-0.55399 -0.9043,-0.41992 z"
           id="path2186"
           sodipodi:nodetypes="ccccccc" />
        <g
           id="g2194">
          <g
             id="g2192">
            <path
               style="color:#000000;fill:#b100a5;fill-rule:evenodd;stroke-width:0.246645pt;-inkscape-stroke:none"
               d="m 164.96553,125.55887 -1.5806,1.89058 -0.84655,-2.31663 z"
               id="path2188" />
            <path
               style="color:#000000;fill:#b100a5;fill-rule:evenodd;-inkscape-stroke:none"
               d="m 162.28516,124.92188 1.04296,2.85156 1.94532,-2.32813 -0.2793,-0.0488 z m 0.50586,0.42187 1.86523,0.32813 -1.21484,1.45312 z"
               id="path2190" />
          </g>
        </g>
      </g>
      <g
         id="g2208"
         transform="rotate(-116.83798,150.84655,62.156164)"
         inkscape:transform-center-x="-9.1536263"
         inkscape:transform-center-y="8.5855167"
         style="opacity:0.578504">
        <g
           id="g2227"
           inkscape:transform-center-x="6.7464354"
           inkscape:transform-center-y="10.953492"
           transform="rotate(78.011821,165.27344,125.44531)">
          <path
             style="color:#000000;fill:#b100a5;stroke-linecap:round;stroke-linejoin:bevel;-inkscape-stroke:none"
             d="m 163.38672,125.38477 -42.86106,17.52171 c -0.36484,0.13354 -0.5527,0.53723 -0.41992,0.90235 0.13355,0.36483 0.53724,0.5527 0.90235,0.41992 l 42.863,-17.51977 c 0.36588,-0.13353 0.55399,-0.5386 0.41993,-0.90429 -0.13353,-0.36588 -0.53861,-0.55399 -0.9043,-0.41992 z"
             id="path2198"
             sodipodi:nodetypes="ccccccc"
             inkscape:transform-center-x="-16.637665"
             inkscape:transform-center-y="-8.2496961" />
          <g
             id="g2206">
            <g
               id="g2204">
              <path
                 style="color:#000000;fill:#b100a5;fill-rule:evenodd;stroke-width:0.246645pt;-inkscape-stroke:none"
                 d="m 164.96553,125.55887 -1.5806,1.89058 -0.84655,-2.31663 z"
                 id="path2200" />
              <path
                 style="color:#000000;fill:#b100a5;fill-rule:evenodd;-inkscape-stroke:none"
                 d="m 162.28516,124.92188 1.04296,2.85156 1.94532,-2.32813 -0.2793,-0.0488 z m 0.50586,0.42187 1.86523,0.32813 -1.21484,1.45312 z"
                 id="path2202" />
            </g>
          </g>
        </g>
      </g>
      <g
         id="g2235"
         inkscape:transform-center-x="10.437328"
         inkscape:transform-center-y="6.951043"
         transform="rotate(103.71218,252.68866,73.010941)"
         style="opacity:0.578504">
        <g
           id="g2220"
           transform="rotate(-116.83798,175.87542,97.184049)"
           inkscape:transform-center-x="-9.1536263"
           inkscape:transform-center-y="8.5855167">
          <path
             style="color:#000000;fill:#b100a5;stroke-linecap:round;stroke-linejoin:bevel;-inkscape-stroke:none"
             d="m 163.38672,125.38477 -71.587543,23.76776 c -0.36484,0.13354 -0.5527,0.53723 -0.41992,0.90235 0.13355,0.36483 0.53724,0.5527 0.90235,0.41992 l 71.589483,-23.76582 c 0.36588,-0.13353 0.55399,-0.5386 0.41993,-0.90429 -0.13353,-0.36588 -0.53861,-0.55399 -0.9043,-0.41992 z"
             id="path2210"
             sodipodi:nodetypes="ccccccc" />
          <g
             id="g2218">
            <g
               id="g2216">
              <path
                 style="color:#000000;fill:#b100a5;fill-rule:evenodd;stroke-width:0.246645pt;-inkscape-stroke:none"
                 d="m 164.96553,125.55887 -1.5806,1.89058 -0.84655,-2.31663 z"
                 id="path2212" />
              <path
                 style="color:#000000;fill:#b100a5;fill-rule:evenodd;-inkscape-stroke:none"
                 d="m 162.28516,124.92188 1.04296,2.85156 1.94532,-2.32813 -0.2793,-0.0488 z m 0.50586,0.42187 1.86523,0.32813 -1.21484,1.45312 z"
                 id="path2214" />
            </g>
          </g>
        </g>
      </g>
      <circle
         style="fill:none;fill-opacity:1;stroke:#ff7f00;stroke-width:1.409;stroke-linecap:round;stroke-linejoin:bevel;stroke-dasharray:none;stroke-opacity:1;stop-color:#000000"
         id="circle1210"
         cx="177.13052"
         cy="63.334599"
         r="4.7239676" />
      <g
         id="path2291"
         transform="translate(37.112087,-71.340556)">
        <path
           style="color:#000000;fill:#ff7f00;stroke-linecap:round;stroke-linejoin:bevel;stroke-dasharray:1.409, 2.818;-inkscape-stroke:none"
           d="m 139.85352,133.99023 c -0.18135,0.0437 -0.33798,0.15744 -0.43555,0.31641 -0.2033,0.3317 -0.0992,0.7654 0.23242,0.96875 l 1.20117,0.73633 c 0.3317,0.2033 0.7654,0.0993 0.96875,-0.23242 0.2033,-0.3317 0.0992,-0.7654 -0.23242,-0.96875 l -1.20117,-0.73633 c -0.15953,-0.0977 -0.35136,-0.1279 -0.5332,-0.084 z m 4.13671,2.29102 c -0.33221,-0.20295 -0.76605,-0.098 -0.96875,0.23437 -0.20295,0.33221 -0.098,0.76606 0.23438,0.96875 l 1.20117,0.73438 c 0.3317,0.2033 0.7654,0.0993 0.96875,-0.23242 0.2033,-0.3317 0.0992,-0.7654 -0.23242,-0.96875 z m 3.60547,2.20898 c -0.3317,-0.2033 -0.7654,-0.0992 -0.96875,0.23243 -0.2033,0.3317 -0.0992,0.7654 0.23242,0.96875 l 1.20118,0.73632 c 0.3317,0.2033 0.7654,0.0993 0.96875,-0.23242 0.2033,-0.3317 0.0992,-0.7654 -0.23243,-0.96875 z m 3.07227,2.12305 c -0.18135,0.0436 -0.33798,0.15744 -0.43555,0.31641 -0.2033,0.3317 -0.0992,0.7654 0.23242,0.96875 l 1.20118,0.73633 c 0.3317,0.2033 0.7654,0.0992 0.96875,-0.23243 0.2033,-0.3317 0.0992,-0.7654 -0.23243,-0.96875 l -1.20117,-0.73632 c -0.15953,-0.0977 -0.35136,-0.1279 -0.5332,-0.084 z m 3.60351,2.20899 c -0.18134,0.0436 -0.33797,0.15744 -0.43554,0.3164 -0.2033,0.3317 -0.0992,0.7654 0.23242,0.96875 l 1.20117,0.73633 c 0.33221,0.20295 0.76606,0.098 0.96875,-0.23438 0.2033,-0.3317 0.0992,-0.7654 -0.23242,-0.96875 l -1.20117,-0.73437 c -0.15954,-0.0977 -0.35137,-0.1279 -0.53321,-0.084 z m 4.13868,2.29101 c -0.3317,-0.2033 -0.7654,-0.0993 -0.96875,0.23242 -0.2033,0.3317 -0.0992,0.7654 0.23242,0.96875 l 1.20117,0.73633 c 0.3317,0.2033 0.7654,0.0992 0.96875,-0.23242 0.2033,-0.3317 0.0993,-0.7654 -0.23242,-0.96875 z m 3.60351,2.20703 c -0.33221,-0.20295 -0.76606,-0.098 -0.96875,0.23438 -0.2033,0.3317 -0.0992,0.7654 0.23242,0.96875 l 1.20313,0.73437 c 0.3317,0.2033 0.7654,0.0992 0.96875,-0.23242 0.20295,-0.33221 0.098,-0.76606 -0.23438,-0.96875 z m 3.07227,2.125 c -0.18135,0.0436 -0.33798,0.15744 -0.43555,0.31641 -0.2033,0.3317 -0.0992,0.7654 0.23242,0.96875 l 1.20117,0.73633 c 0.3317,0.2033 0.7654,0.0992 0.96875,-0.23243 0.2033,-0.3317 0.0993,-0.7654 -0.23242,-0.96875 l -1.20117,-0.73632 c -0.15953,-0.0977 -0.35136,-0.1279 -0.5332,-0.084 z m 4.13672,2.29102 c -0.3317,-0.2033 -0.7654,-0.0993 -0.96875,0.23242 -0.20295,0.33221 -0.098,0.76605 0.23437,0.96875 l 1.20117,0.73633 c 0.3317,0.2033 0.7654,0.0992 0.96875,-0.23242 0.20295,-0.33221 0.098,-0.76605 -0.23437,-0.96875 z m 3.60546,2.20898 c -0.3317,-0.2033 -0.7654,-0.0993 -0.96875,0.23242 -0.2033,0.3317 -0.0992,0.7654 0.23243,0.96875 l 1.20117,0.73633 c 0.33221,0.20295 0.76605,0.098 0.96875,-0.23437 0.2033,-0.3317 0.0993,-0.7654 -0.23242,-0.96875 z m 3.60352,2.20703 c -0.3317,-0.2033 -0.7654,-0.0992 -0.96875,0.23243 -0.20295,0.33221 -0.098,0.76606 0.23438,0.96875 l 1.20117,0.73632 c 0.3317,0.2033 0.7654,0.0992 0.96875,-0.23242 0.2033,-0.3317 0.0993,-0.7654 -0.23242,-0.96875 z"
           id="path2441"
           sodipodi:nodetypes="sccccccssccccccccccccccsccccccsssccccccssccccccccccccccsccccccssccccccccccccccccccccc" />
        <g
           id="g2431">
          <g
             id="path2433">
            <path
               style="color:#000000;fill:#ff7f00;fill-rule:evenodd;stroke-width:0.246645pt;-inkscape-stroke:none"
               d="m 179.19242,158.70508 -2.46347,-0.0627 1.28825,-2.10329 z"
               id="path2437"
               sodipodi:nodetypes="cccc" />
            <path
               style="color:#000000;fill:#ff7f00;fill-rule:evenodd;-inkscape-stroke:none"
               d="m 178.02601,156.21019 -1.58594,2.58984 3.03321,0.0762 -0.13672,-0.25 z m -0.0195,0.6582 0.9043,1.66406 -1.89258,-0.0469 z"
               id="path2439"
               sodipodi:nodetypes="ccccccccc" />
          </g>
        </g>
      </g>
      <path
         style="fill:none;fill-opacity:1;stroke:#ff7f00;stroke-width:1;stroke-linecap:butt;stroke-linejoin:bevel;stroke-dasharray:none;stroke-dashoffset:0;stroke-opacity:1;marker-start:url(#Stop);marker-end:url(#marker2609);stop-color:#000000"
         d="m 171.89269,119.42937 h 44.50518"
         id="path2587" />
      <text
         xml:space="preserve"
         style="font-size:3.88173px;line-height:1.05;font-family:sans-serif;-inkscape-font-specification:sans-serif;text-align:justify;fill:#000000;fill-opacity:1;stroke:none;stroke-width:1;stroke-linecap:butt;stroke-linejoin:bevel;stroke-dasharray:none;stroke-dashoffset:0;stroke-opacity:1;stop-color:#000000"
         x="187.92845"
         y="116.68186"
         id="text4007"><tspan
           sodipodi:role="line"
           id="tspan4005"
           style="fill:#000000;fill-opacity:1;stroke:none;stroke-width:1"
           x="187.92845"
           y="116.68186">R<tspan
   style="font-size:65%;baseline-shift:sub"
   id="tspan4861">gyr</tspan>(t<tspan
   style="font-size:65%;baseline-shift:sub"
   id="tspan4859">1</tspan>)</tspan></text>
      <text
         xml:space="preserve"
         style="font-size:3.88173px;line-height:1.05;font-family:sans-serif;-inkscape-font-specification:sans-serif;text-align:justify;fill:#000000;fill-opacity:1;stroke:none;stroke-width:1;stroke-linecap:butt;stroke-linejoin:bevel;stroke-dasharray:1, 2;stroke-dashoffset:0;stroke-opacity:1;stop-color:#000000"
         x="148.82693"
         y="12.32345"
         id="text4805"><tspan
           sodipodi:role="line"
           id="tspan4803"
           style="stroke-width:1"
           x="148.82693"
           y="12.32345">R<tspan
   style="font-size:65%;baseline-shift:sub"
   id="tspan4807">gyr</tspan> calculation Visualised</tspan></text>
      <text
         xml:space="preserve"
         style="font-size:3.88173px;line-height:1.05;font-family:sans-serif;-inkscape-font-specification:sans-serif;text-align:end;text-anchor:end;fill:#000000;fill-opacity:1;stroke:none;stroke-width:1;stroke-linecap:butt;stroke-linejoin:bevel;stroke-dasharray:none;stroke-dashoffset:0;stroke-opacity:1;stop-color:#000000"
         x="138.15112"
         y="90.626251"
         id="text4887"><tspan
           sodipodi:role="line"
           id="tspan4885"
           style="text-align:end;text-anchor:end;fill:#000000;fill-opacity:1;stroke:none;stroke-width:1"
           x="138.15112"
           y="90.626251">On average, the atoms are located </tspan><tspan
           sodipodi:role="line"
           style="text-align:end;text-anchor:end;fill:#000000;fill-opacity:1;stroke:none;stroke-width:1"
           x="138.15112"
           y="94.702065"
           id="tspan4889">on this circle/sphere</tspan></text>
    </g>
  </g>
</svg>
