<?xml version="1.0" encoding="UTF-8" standalone="no"?>
<!-- Created with Inkscape (http://www.inkscape.org/) -->

<svg
   width="161.87184mm"
   height="139.19421mm"
   viewBox="0 0 161.87184 139.19421"
   version="1.1"
   id="svg1"
   xml:space="preserve"
   inkscape:version="1.4 (e7c3feb, 2024-10-09)"
   sodipodi:docname="LigandPlotsRMSD_dGA_dGB_iRMSD.svg"
   xmlns:inkscape="http://www.inkscape.org/namespaces/inkscape"
   xmlns:sodipodi="http://sodipodi.sourceforge.net/DTD/sodipodi-0.dtd"
   xmlns:xlink="http://www.w3.org/1999/xlink"
   xmlns="http://www.w3.org/2000/svg"
   xmlns:svg="http://www.w3.org/2000/svg"><sodipodi:namedview
     id="namedview1"
     pagecolor="#505050"
     bordercolor="#eeeeee"
     borderopacity="1"
     inkscape:showpageshadow="0"
     inkscape:pageopacity="0"
     inkscape:pagecheckerboard="0"
     inkscape:deskcolor="#d1d1d1"
     inkscape:document-units="mm"
     inkscape:zoom="1"
     inkscape:cx="2176.5"
     inkscape:cy="1704.5"
     inkscape:window-width="1920"
     inkscape:window-height="1016"
     inkscape:window-x="0"
     inkscape:window-y="0"
     inkscape:window-maximized="1"
     inkscape:current-layer="layer1"><inkscape:page
       x="0"
       y="0"
       width="161.87184"
       height="139.19421"
       id="page2"
       margin="0"
       bleed="0" /></sodipodi:namedview><defs
     id="defs1"><style
       type="text/css"
       id="style1">*{stroke-linejoin: round; stroke-linecap: butt}</style><style
       type="text/css"
       id="style1-3">*{stroke-linejoin: round; stroke-linecap: butt}</style><style
       type="text/css"
       id="style1-8">*{stroke-linejoin: round; stroke-linecap: butt}</style><style
       type="text/css"
       id="style1-2">*{stroke-linejoin: round; stroke-linecap: butt}</style><path
       id="m048bab4900"
       d="M 0,0 V 3.5"
       style="stroke:#000000;stroke-width:0.8" /><path
       id="DejaVuSans-30-4"
       d="m 2034,4250 q -487,0 -733,-480 -245,-479 -245,-1442 0,-959 245,-1439 246,-480 733,-480 491,0 736,480 246,480 246,1439 0,963 -246,1442 -245,480 -736,480 z m 0,500 q 785,0 1199,-621 414,-620 414,-1801 0,-1178 -414,-1799 -414,-620 -1199,-620 -784,0 -1198,620 -414,621 -414,1799 0,1181 414,1801 414,621 1198,621 z"
       transform="scale(0.015625)" /><path
       id="DejaVuSans-32-3"
       d="M 1228,531 H 3431 V 0 H 469 v 531 q 359,372 979,998 621,627 780,809 303,340 423,576 121,236 121,464 0,372 -261,606 -261,235 -680,235 -297,0 -627,-103 -329,-103 -704,-313 v 638 q 381,153 712,231 332,78 607,78 725,0 1156,-363 431,-362 431,-968 0,-288 -108,-546 -107,-257 -392,-607 -78,-91 -497,-524 Q 1991,1309 1228,531 Z"
       transform="scale(0.015625)" /><path
       id="DejaVuSans-35-71"
       d="M 691,4666 H 3169 V 4134 H 1269 V 2991 q 137,47 274,70 138,23 276,23 781,0 1237,-428 457,-428 457,-1159 Q 3513,744 3044,326 2575,-91 1722,-91 1428,-91 1123,-41 819,9 494,109 v 635 q 281,-153 581,-228 300,-75 634,-75 541,0 856,284 316,284 316,772 0,487 -316,771 -315,285 -856,285 -253,0 -505,-56 -251,-56 -513,-175 z"
       transform="scale(0.015625)" /><path
       id="DejaVuSans-37-2"
       d="M 525,4666 H 3525 V 4397 L 1831,0 H 1172 L 2766,4134 H 525 Z"
       transform="scale(0.015625)" /><path
       id="DejaVuSans-31-20"
       d="M 794,531 H 1825 V 4091 L 703,3866 v 575 l 1116,225 h 631 V 531 H 3481 V 0 H 794 Z"
       transform="scale(0.015625)" /><path
       id="m54bcdfe260"
       d="M 0,0 H -3.5"
       style="stroke:#000000;stroke-width:0.8" /><path
       id="DejaVuSans-33-2"
       d="m 2597,2516 q 453,-97 707,-404 255,-306 255,-756 0,-690 -475,-1069 -475,-378 -1350,-378 -293,0 -604,58 -311,58 -642,174 v 609 q 262,-153 574,-231 313,-78 654,-78 593,0 904,234 311,234 311,681 0,413 -289,645 -289,233 -804,233 h -544 v 519 h 569 q 465,0 712,186 247,186 247,536 0,359 -255,551 -254,193 -729,193 -260,0 -557,-57 -297,-56 -653,-174 v 562 q 360,100 674,150 314,50 592,50 719,0 1137,-327 419,-326 419,-882 0,-388 -222,-655 -222,-267 -631,-370 z"
       transform="scale(0.015625)" /><path
       id="DejaVuSans-43-1"
       d="m 4122,4306 v -665 q -319,297 -680,443 -361,147 -767,147 -800,0 -1225,-489 -425,-489 -425,-1414 0,-922 425,-1411 425,-489 1225,-489 406,0 767,147 361,147 680,444 V 359 Q 3791,134 3420,21 3050,-91 2638,-91 1578,-91 968,557 359,1206 359,2328 q 0,1125 609,1773 610,649 1670,649 418,0 788,-111 371,-111 696,-333 z"
       transform="scale(0.015625)" /><path
       id="DejaVuSans-68-7"
       d="M 3513,2113 V 0 h -575 v 2094 q 0,497 -194,743 -194,247 -581,247 -466,0 -735,-297 -269,-296 -269,-809 V 0 H 581 v 4863 h 578 V 2956 q 207,316 486,472 280,156 646,156 603,0 912,-373 310,-373 310,-1098 z"
       transform="scale(0.015625)" /><path
       id="DejaVuSans-61-5"
       d="m 2194,1759 q -697,0 -966,-159 -269,-159 -269,-544 0,-306 202,-486 202,-179 548,-179 479,0 768,339 289,339 289,901 v 128 z m 1147,238 V 0 H 2766 V 531 Q 2569,213 2275,61 1981,-91 1556,-91 q -537,0 -855,302 -317,302 -317,808 0,590 395,890 396,300 1180,300 h 807 v 57 q 0,397 -261,614 -261,217 -733,217 -300,0 -585,-72 -284,-72 -546,-216 v 532 q 315,122 612,182 297,61 578,61 760,0 1135,-394 375,-393 375,-1193 z"
       transform="scale(0.015625)" /><path
       id="DejaVuSans-69-1"
       d="m 603,3500 h 575 V 0 H 603 Z m 0,1363 h 575 V 4134 H 603 Z"
       transform="scale(0.015625)" /><path
       id="DejaVuSans-6e-7"
       d="M 3513,2113 V 0 h -575 v 2094 q 0,497 -194,743 -194,247 -581,247 -466,0 -735,-297 -269,-296 -269,-809 V 0 H 581 v 3500 h 578 v -544 q 207,316 486,472 280,156 646,156 603,0 912,-373 310,-373 310,-1098 z"
       transform="scale(0.015625)" /><path
       id="DejaVuSans-41-1"
       d="M 2188,4044 1331,1722 h 1716 z m -357,622 h 716 L 4325,0 H 3669 L 3244,1197 H 1141 L 716,0 H 50 Z"
       transform="scale(0.015625)" /><path
       id="DejaVuSans-64-11"
       d="m 2906,2969 v 1894 h 575 V 0 H 2906 V 525 Q 2725,213 2448,61 2172,-91 1784,-91 1150,-91 751,415 353,922 353,1747 q 0,825 398,1331 399,506 1033,506 388,0 664,-152 277,-151 458,-463 z M 947,1747 q 0,-634 261,-995 261,-361 717,-361 456,0 718,361 263,361 263,995 0,634 -263,995 -262,361 -718,361 -456,0 -717,-361 -261,-361 -261,-995 z"
       transform="scale(0.015625)" /><path
       id="DejaVuSans-42-7"
       d="M 1259,2228 V 519 h 1013 q 509,0 754,211 246,211 246,645 0,438 -246,645 -245,208 -754,208 z m 0,1919 V 2741 h 935 q 462,0 688,173 227,174 227,530 0,353 -227,528 -226,175 -688,175 z m -631,519 h 1613 q 722,0 1112,-300 391,-300 391,-853 0,-429 -200,-682 -200,-253 -588,-315 466,-100 724,-418 258,-317 258,-792 0,-625 -425,-966 Q 3088,0 2303,0 H 628 Z"
       transform="scale(0.015625)" /><path
       id="DejaVuSans-72-0"
       d="m 2631,2963 q -97,56 -211,82 -114,27 -251,27 -488,0 -749,-317 -261,-317 -261,-911 V 0 H 581 v 3500 h 578 v -544 q 182,319 472,473 291,155 707,155 59,0 131,-8 72,-7 159,-23 z"
       transform="scale(0.015625)" /><path
       id="DejaVuSans-75-8"
       d="m 544,1381 v 2119 h 575 V 1403 q 0,-497 193,-746 194,-248 582,-248 465,0 735,297 271,297 271,810 v 1984 h 575 V 0 H 2900 V 538 Q 2691,219 2414,64 2138,-91 1772,-91 1169,-91 856,284 544,659 544,1381 Z m 1447,2203 z"
       transform="scale(0.015625)" /><path
       id="DejaVuSans-52-5"
       d="m 2841,2188 q 203,-69 395,-294 192,-225 386,-619 L 4263,0 h -679 l -596,1197 q -232,469 -449,622 -217,153 -592,153 H 1259 V 0 H 628 v 4666 h 1425 q 800,0 1194,-335 394,-334 394,-1009 0,-441 -205,-732 -205,-290 -595,-402 z M 1259,4147 V 2491 h 794 q 456,0 689,211 233,211 233,620 0,409 -233,617 -233,208 -689,208 z"
       transform="scale(0.015625)" /><path
       id="DejaVuSans-4d-1"
       d="m 628,4666 h 941 L 2759,1491 3956,4666 h 941 V 0 H 4281 V 4097 L 3078,897 H 2444 L 1241,4097 V 0 H 628 Z"
       transform="scale(0.015625)" /><path
       id="DejaVuSans-53-6"
       d="m 3425,4513 v -616 q -359,172 -678,256 -319,85 -616,85 -515,0 -795,-200 -280,-200 -280,-569 0,-310 186,-468 186,-157 705,-254 l 381,-78 q 706,-135 1042,-474 336,-339 336,-907 0,-679 -455,-1029 -454,-350 -1332,-350 -331,0 -705,75 -373,75 -773,222 v 650 q 384,-215 753,-325 369,-109 725,-109 540,0 834,212 294,213 294,607 0,343 -211,537 -211,194 -692,291 l -385,75 q -706,140 -1022,440 -315,300 -315,835 0,619 436,975 436,356 1201,356 329,0 669,-60 341,-59 697,-177 z"
       transform="scale(0.015625)" /><path
       id="DejaVuSans-44"
       d="M 1259,4147 V 519 h 763 q 966,0 1414,437 448,438 448,1382 0,937 -448,1373 -448,436 -1414,436 z m -631,519 h 1297 q 1356,0 1990,-564 635,-564 635,-1764 Q 4550,1131 3912,565 3275,0 1925,0 H 628 Z"
       transform="scale(0.015625)" /><path
       id="DejaVuSans-6d-6"
       d="m 3328,2828 q 216,388 516,572 300,184 706,184 547,0 844,-383 297,-382 297,-1088 V 0 h -578 v 2094 q 0,503 -179,746 -178,244 -543,244 -447,0 -707,-297 -259,-296 -259,-809 V 0 h -578 v 2094 q 0,506 -178,748 -178,242 -550,242 -441,0 -701,-298 -259,-298 -259,-808 V 0 H 581 v 3500 h 578 v -544 q 197,322 472,475 275,153 653,153 382,0 649,-194 267,-193 395,-562 z"
       transform="scale(0.015625)" /><path
       id="DejaVuSans-65-2"
       d="M 3597,1894 V 1613 H 953 q 38,-594 358,-905 320,-311 892,-311 331,0 642,81 311,81 618,244 V 178 Q 3153,47 2828,-22 2503,-91 2169,-91 1331,-91 842,396 353,884 353,1716 q 0,859 464,1363 464,505 1252,505 706,0 1117,-455 411,-454 411,-1235 z m -575,169 q -6,471 -264,752 -258,282 -683,282 -481,0 -770,-272 -289,-272 -333,-766 z"
       transform="scale(0.015625)" /><path
       id="DejaVuSans-73-1"
       d="m 2834,3397 v -544 q -243,125 -506,187 -262,63 -544,63 -428,0 -642,-131 -214,-131 -214,-394 0,-200 153,-314 153,-114 616,-217 l 197,-44 q 612,-131 870,-370 258,-239 258,-667 0,-488 -386,-773 Q 2250,-91 1575,-91 1294,-91 989,-36 684,19 347,128 v 594 q 319,-166 628,-249 309,-82 613,-82 406,0 624,139 219,139 219,392 0,234 -158,359 -157,125 -692,241 l -200,47 q -534,112 -772,345 -237,233 -237,639 0,494 350,762 350,269 994,269 318,0 599,-47 282,-46 519,-140 z"
       transform="scale(0.015625)" /><path
       id="DejaVuSans-66-9"
       d="m 2375,4863 v -479 h -550 q -309,0 -430,-125 -120,-125 -120,-450 v -309 h 947 V 3053 H 1275 V 0 H 697 V 3053 H 147 v 447 h 550 v 244 q 0,584 272,851 272,268 862,268 z"
       transform="scale(0.015625)" /><path
       id="DejaVuSans-6f-6"
       d="m 1959,3097 q -462,0 -731,-361 -269,-361 -269,-989 0,-628 267,-989 268,-361 733,-361 460,0 728,362 269,363 269,988 0,622 -269,986 -268,364 -728,364 z m 0,487 q 750,0 1178,-488 429,-487 429,-1349 Q 3566,888 3137,398 2709,-91 1959,-91 1206,-91 779,398 353,888 353,1747 q 0,862 426,1349 427,488 1180,488 z"
       transform="scale(0.015625)" /><path
       id="DejaVuSans-74-4"
       d="M 1172,4494 V 3500 H 2356 V 3053 H 1172 V 1153 q 0,-428 117,-550 117,-122 477,-122 h 590 V 0 H 1766 Q 1100,0 847,248 594,497 594,1153 V 3053 H 172 v 447 h 422 v 994 z"
       transform="scale(0.015625)" /><path
       id="DejaVuSans-70"
       d="M 1159,525 V -1331 H 581 v 4831 h 578 v -531 q 182,312 458,463 277,152 661,152 638,0 1036,-506 399,-506 399,-1331 0,-825 -399,-1332 -398,-506 -1036,-506 -384,0 -661,152 -276,152 -458,464 z m 1957,1222 q 0,634 -261,995 -261,361 -717,361 -457,0 -718,-361 -261,-361 -261,-995 0,-634 261,-995 261,-361 718,-361 456,0 717,361 261,361 261,995 z"
       transform="scale(0.015625)" /><path
       id="DejaVuSans-28-8"
       d="m 1984,4856 q -418,-718 -622,-1422 -203,-703 -203,-1425 0,-721 205,-1429 205,-708 620,-1424 h -500 q -468,735 -701,1444 -233,709 -233,1409 0,697 231,1403 232,707 703,1444 z"
       transform="scale(0.015625)" /><path
       id="DejaVuSans-Oblique-c5-0"
       d="m 3188,5081 q 0,197 -140,336 -139,139 -335,139 -200,0 -336,-136 -136,-136 -136,-339 0,-197 136,-335 136,-137 336,-137 196,0 335,137 140,138 140,335 z m -985,-684 q -169,116 -258,292 -89,177 -89,392 0,357 250,608 250,252 607,252 356,0 607,-252 252,-251 252,-608 0,-247 -114,-438 -114,-190 -330,-302 L 3938,0 H 3278 L 3084,1197 H 984 L 325,0 H -341 Z M 2584,4044 1275,1722 h 1713 z"
       transform="scale(0.015625)" /><path
       id="DejaVuSans-29-81"
       d="m 513,4856 h 500 q 468,-737 701,-1444 233,-706 233,-1403 0,-700 -233,-1409 -233,-709 -701,-1444 H 513 q 415,716 620,1424 205,708 205,1429 0,722 -205,1425 -205,704 -620,1422 z"
       transform="scale(0.015625)" /></defs><g
     inkscape:label="Layer 1"
     inkscape:groupmode="layer"
     id="layer1"
     transform="translate(86.951406,-469.07275)"><g
       id="g858"
       transform="translate(148.31689,-60.425401)"><g
         id="g851"><use
           xlink:href="#DejaVuSans-52-5"
           id="use691"
           transform="matrix(0.06519334,0,0,-0.06519334,-212.28436,534.45184)" /><use
           xlink:href="#DejaVuSans-4d-1"
           x="69.482422"
           id="use692"
           transform="matrix(0.06519334,0,0,-0.06519334,-212.28436,534.45184)" /><use
           xlink:href="#DejaVuSans-53-6"
           x="155.76172"
           id="use693"
           transform="matrix(0.06519334,0,0,-0.06519334,-212.28436,534.45184)" /><use
           xlink:href="#DejaVuSans-44"
           x="219.23828"
           id="use694"
           transform="matrix(0.06519334,0,0,-0.06519334,-212.28436,534.45184)" /><use
           xlink:href="#DejaVuSans-6d-6"
           x="328.02734"
           id="use695"
           transform="matrix(0.06519334,0,0,-0.06519334,-212.28436,534.45184)" /><use
           xlink:href="#DejaVuSans-65-2"
           x="425.43945"
           id="use696"
           transform="matrix(0.06519334,0,0,-0.06519334,-212.28436,534.45184)" /><use
           xlink:href="#DejaVuSans-61-5"
           x="486.96289"
           id="use697"
           transform="matrix(0.06519334,0,0,-0.06519334,-212.28436,534.45184)" /><use
           xlink:href="#DejaVuSans-73-1"
           x="548.24219"
           id="use698"
           transform="matrix(0.06519334,0,0,-0.06519334,-212.28436,534.45184)" /><use
           xlink:href="#DejaVuSans-75-8"
           x="600.3418"
           id="use699"
           transform="matrix(0.06519334,0,0,-0.06519334,-212.28436,534.45184)" /><use
           xlink:href="#DejaVuSans-72-0"
           x="663.7207"
           id="use700"
           transform="matrix(0.06519334,0,0,-0.06519334,-212.28436,534.45184)" /><use
           xlink:href="#DejaVuSans-65-2"
           x="702.58398"
           id="use701"
           transform="matrix(0.06519334,0,0,-0.06519334,-212.28436,534.45184)" /><use
           xlink:href="#DejaVuSans-73-1"
           x="764.10742"
           id="use702"
           transform="matrix(0.06519334,0,0,-0.06519334,-212.28436,534.45184)" /><use
           xlink:href="#DejaVuSans-66-9"
           x="847.99414"
           id="use703"
           transform="matrix(0.06519334,0,0,-0.06519334,-212.28436,534.45184)" /><use
           xlink:href="#DejaVuSans-6f-6"
           x="883.19922"
           id="use704"
           transform="matrix(0.06519334,0,0,-0.06519334,-212.28436,534.45184)" /><use
           xlink:href="#DejaVuSans-72-0"
           x="944.38086"
           id="use705"
           transform="matrix(0.06519334,0,0,-0.06519334,-212.28436,534.45184)" /><use
           xlink:href="#DejaVuSans-43-1"
           x="1017.2812"
           id="use706"
           transform="matrix(0.06519334,0,0,-0.06519334,-212.28436,534.45184)" /><use
           xlink:href="#DejaVuSans-68-7"
           x="1087.1055"
           id="use707"
           transform="matrix(0.06519334,0,0,-0.06519334,-212.28436,534.45184)" /><use
           xlink:href="#DejaVuSans-61-5"
           x="1150.4844"
           id="use708"
           transform="matrix(0.06519334,0,0,-0.06519334,-212.28436,534.45184)" /><use
           xlink:href="#DejaVuSans-69-1"
           x="1211.7637"
           id="use709"
           transform="matrix(0.06519334,0,0,-0.06519334,-212.28436,534.45184)" /><use
           xlink:href="#DejaVuSans-6e-7"
           x="1239.5469"
           id="use710"
           transform="matrix(0.06519334,0,0,-0.06519334,-212.28436,534.45184)" /><use
           xlink:href="#DejaVuSans-41-1"
           x="1334.7129"
           id="use711"
           transform="matrix(0.06519334,0,0,-0.06519334,-212.28436,534.45184)" /><use
           xlink:href="#DejaVuSans-61-5"
           x="1434.9082"
           id="use712"
           transform="matrix(0.06519334,0,0,-0.06519334,-212.28436,534.45184)" /><use
           xlink:href="#DejaVuSans-6e-7"
           x="1496.1875"
           id="use713"
           transform="matrix(0.06519334,0,0,-0.06519334,-212.28436,534.45184)" /><use
           xlink:href="#DejaVuSans-64-11"
           x="1559.5664"
           id="use714"
           transform="matrix(0.06519334,0,0,-0.06519334,-212.28436,534.45184)" /><use
           xlink:href="#DejaVuSans-43-1"
           x="1654.8301"
           id="use715"
           transform="matrix(0.06519334,0,0,-0.06519334,-212.28436,534.45184)" /><use
           xlink:href="#DejaVuSans-68-7"
           x="1724.6543"
           id="use716"
           transform="matrix(0.06519334,0,0,-0.06519334,-212.28436,534.45184)" /><use
           xlink:href="#DejaVuSans-61-5"
           x="1788.0332"
           id="use717"
           transform="matrix(0.06519334,0,0,-0.06519334,-212.28436,534.45184)" /><use
           xlink:href="#DejaVuSans-69-1"
           x="1849.3125"
           id="use718"
           transform="matrix(0.06519334,0,0,-0.06519334,-212.28436,534.45184)" /><use
           xlink:href="#DejaVuSans-6e-7"
           x="1877.0957"
           id="use719"
           transform="matrix(0.06519334,0,0,-0.06519334,-212.28436,534.45184)" /><use
           xlink:href="#DejaVuSans-42-7"
           x="1972.2617"
           id="use720"
           transform="matrix(0.06519334,0,0,-0.06519334,-212.28436,534.45184)" /></g><g
         id="g855"><use
           xlink:href="#DejaVuSans-74-4"
           id="use739"
           transform="matrix(0.06519334,0,0,-0.06519334,-155.6875,667.33656)" /><use
           xlink:href="#DejaVuSans-69-1"
           x="70.996094"
           id="use740"
           transform="matrix(0.06519334,0,0,-0.06519334,-155.6875,667.33656)" /><use
           xlink:href="#DejaVuSans-6e-7"
           x="98.779297"
           id="use741"
           transform="matrix(0.06519334,0,0,-0.06519334,-155.6875,667.33656)" /><use
           xlink:href="#DejaVuSans-70"
           x="193.94531"
           id="use742"
           transform="matrix(0.06519334,0,0,-0.06519334,-155.6875,667.33656)" /><use
           xlink:href="#DejaVuSans-73-1"
           x="257.42188"
           id="use743"
           transform="matrix(0.06519334,0,0,-0.06519334,-155.6875,667.33656)" /></g><g
         id="g854"><use
           xlink:href="#DejaVuSans-52-5"
           transform="matrix(0,-0.06519334,-0.06519334,0,-229.27555,617.71931)"
           id="use744" /><use
           xlink:href="#DejaVuSans-4d-1"
           transform="matrix(0,-0.06519334,-0.06519334,0,-229.27555,613.63068)"
           id="use745" /><use
           xlink:href="#DejaVuSans-53-6"
           transform="matrix(0,-0.06519334,-0.06519334,0,-229.27587,608.45251)"
           id="use746" /><use
           xlink:href="#DejaVuSans-44"
           transform="matrix(0,-0.06519334,-0.06519334,0,-229.27555,604.73908)"
           id="use747" /><use
           xlink:href="#DejaVuSans-69-1"
           transform="matrix(0,-0.06519334,-0.06519334,0,-229.26642,598.13422)"
           id="use749" /><use
           xlink:href="#DejaVuSans-6e-7"
           transform="matrix(0,-0.06519334,-0.06519334,0,-229.32565,596.5947)"
           id="use750" /><use
           xlink:href="#DejaVuSans-28-8"
           transform="matrix(0,-0.06519334,-0.06519334,0,-229.30583,590.8823)"
           id="use752" /><use
           xlink:href="#DejaVuSans-Oblique-c5-0"
           transform="matrix(0,-0.06519334,-0.06519334,0,-229.21651,588.61931)"
           id="use753" /><use
           xlink:href="#DejaVuSans-29-81"
           transform="matrix(0,-0.06519334,-0.06519334,0,-229.30583,584.51233)"
           id="use754" /></g><g
         id="g853"><use
           xlink:href="#DejaVuSans-43-1"
           id="use504"
           transform="matrix(0.06519334,0,0,-0.06519334,-158.20541,607.17465)" /><use
           xlink:href="#DejaVuSans-68-7"
           x="69.824219"
           id="use505"
           transform="matrix(0.06519334,0,0,-0.06519334,-158.20541,607.17465)" /><use
           xlink:href="#DejaVuSans-61-5"
           x="133.20312"
           id="use506"
           transform="matrix(0.06519334,0,0,-0.06519334,-158.20541,607.17465)" /><use
           xlink:href="#DejaVuSans-69-1"
           x="194.48242"
           id="use507"
           transform="matrix(0.06519334,0,0,-0.06519334,-158.20541,607.17465)" /><use
           xlink:href="#DejaVuSans-6e-7"
           x="222.26562"
           id="use508"
           transform="matrix(0.06519334,0,0,-0.06519334,-158.20541,607.17465)" /><use
           xlink:href="#DejaVuSans-42-7"
           x="317.43164"
           id="use509"
           transform="matrix(0.06519334,0,0,-0.06519334,-158.20541,607.17465)" /></g><g
         id="g856"><path
           d="m -217.80168,652.16668 h 144.2641 v -43.03889 h -144.2641 z"
           style="fill:#ffffff;stroke-width:0.352778"
           id="path431" /><use
           xlink:href="#m048bab4900"
           x="527.69806"
           y="187.75999"
           style="stroke:#000000;stroke-width:0.8"
           id="use432"
           transform="matrix(0.35277778,0,0,0.35277778,-397.40438,585.92912)" /><use
           xlink:href="#DejaVuSans-30-4"
           id="use433"
           transform="matrix(0.05432778,0,0,-0.05432778,-212.97241,658.56867)" /><use
           xlink:href="#m048bab4900"
           x="574.16827"
           y="187.75999"
           style="stroke:#000000;stroke-width:0.8"
           id="use435"
           transform="matrix(0.35277778,0,0,0.35277778,-397.40438,585.92912)" /><use
           xlink:href="#DejaVuSans-32-3"
           id="use437"
           transform="matrix(0.05432778,0,0,-0.05432778,-200.03718,658.56867)" /><use
           xlink:href="#DejaVuSans-35-71"
           x="63.623047"
           id="use438"
           transform="matrix(0.05432778,0,0,-0.05432778,-200.03718,658.56867)" /><use
           xlink:href="#DejaVuSans-30-4"
           x="127.24609"
           id="use439"
           transform="matrix(0.05432778,0,0,-0.05432778,-200.03718,658.56867)" /><use
           xlink:href="#m048bab4900"
           x="620.63843"
           y="187.75999"
           style="stroke:#000000;stroke-width:0.8"
           id="use440"
           transform="matrix(0.35277778,0,0,0.35277778,-397.40438,585.92912)" /><use
           xlink:href="#DejaVuSans-35-71"
           id="use442"
           transform="matrix(0.05432778,0,0,-0.05432778,-183.64449,658.56867)" /><use
           xlink:href="#DejaVuSans-30-4"
           x="63.623047"
           id="use443"
           transform="matrix(0.05432778,0,0,-0.05432778,-183.64449,658.56867)" /><use
           xlink:href="#DejaVuSans-30-4"
           x="127.24609"
           id="use444"
           transform="matrix(0.05432778,0,0,-0.05432778,-183.64449,658.56867)" /><use
           xlink:href="#m048bab4900"
           x="667.10864"
           y="187.75999"
           style="stroke:#000000;stroke-width:0.8"
           id="use445"
           transform="matrix(0.35277778,0,0,0.35277778,-397.40438,585.92912)" /><use
           xlink:href="#DejaVuSans-37-2"
           id="use447"
           transform="matrix(0.05432778,0,0,-0.05432778,-167.25204,658.56867)" /><use
           xlink:href="#DejaVuSans-35-71"
           x="63.623047"
           id="use448"
           transform="matrix(0.05432778,0,0,-0.05432778,-167.25204,658.56867)" /><use
           xlink:href="#DejaVuSans-30-4"
           x="127.24609"
           id="use449"
           transform="matrix(0.05432778,0,0,-0.05432778,-167.25204,658.56867)" /><use
           xlink:href="#m048bab4900"
           x="713.5788"
           y="187.75999"
           style="stroke:#000000;stroke-width:0.8"
           id="use450"
           transform="matrix(0.35277778,0,0,0.35277778,-397.40438,585.92912)" /><use
           xlink:href="#DejaVuSans-31-20"
           id="use452"
           transform="matrix(0.05432778,0,0,-0.05432778,-152.59355,658.56867)" /><use
           xlink:href="#DejaVuSans-30-4"
           x="63.623047"
           id="use453"
           transform="matrix(0.05432778,0,0,-0.05432778,-152.59355,658.56867)" /><use
           xlink:href="#DejaVuSans-30-4"
           x="127.24609"
           id="use454"
           transform="matrix(0.05432778,0,0,-0.05432778,-152.59355,658.56867)" /><use
           xlink:href="#DejaVuSans-30-4"
           x="190.86914"
           id="use455"
           transform="matrix(0.05432778,0,0,-0.05432778,-152.59355,658.56867)" /><use
           xlink:href="#m048bab4900"
           x="760.04901"
           y="187.75999"
           style="stroke:#000000;stroke-width:0.8"
           id="use456"
           transform="matrix(0.35277778,0,0,0.35277778,-397.40438,585.92912)" /><use
           xlink:href="#DejaVuSans-31-20"
           id="use458"
           transform="matrix(0.05432778,0,0,-0.05432778,-136.19991,658.56867)" /><use
           xlink:href="#DejaVuSans-32-3"
           x="63.623047"
           id="use459"
           transform="matrix(0.05432778,0,0,-0.05432778,-136.19991,658.56867)" /><use
           xlink:href="#DejaVuSans-35-71"
           x="127.24609"
           id="use460"
           transform="matrix(0.05432778,0,0,-0.05432778,-136.19991,658.56867)" /><use
           xlink:href="#DejaVuSans-30-4"
           x="190.86914"
           id="use461"
           transform="matrix(0.05432778,0,0,-0.05432778,-136.19991,658.56867)" /><use
           xlink:href="#m048bab4900"
           x="806.51917"
           y="187.75999"
           style="stroke:#000000;stroke-width:0.8"
           id="use462"
           transform="matrix(0.35277778,0,0,0.35277778,-397.40438,585.92912)" /><use
           xlink:href="#DejaVuSans-31-20"
           id="use464"
           transform="matrix(0.05432778,0,0,-0.05432778,-119.80625,658.56867)" /><use
           xlink:href="#DejaVuSans-35-71"
           x="63.623047"
           id="use465"
           transform="matrix(0.05432778,0,0,-0.05432778,-119.80625,658.56867)" /><use
           xlink:href="#DejaVuSans-30-4"
           x="127.24609"
           id="use466"
           transform="matrix(0.05432778,0,0,-0.05432778,-119.80625,658.56867)" /><use
           xlink:href="#DejaVuSans-30-4"
           x="190.86914"
           id="use467"
           transform="matrix(0.05432778,0,0,-0.05432778,-119.80625,658.56867)" /><use
           xlink:href="#m048bab4900"
           x="852.98932"
           y="187.75999"
           style="stroke:#000000;stroke-width:0.8"
           id="use468"
           transform="matrix(0.35277778,0,0,0.35277778,-397.40438,585.92912)" /><use
           xlink:href="#DejaVuSans-31-20"
           id="use470"
           transform="matrix(0.05432778,0,0,-0.05432778,-103.41261,658.56867)" /><use
           xlink:href="#DejaVuSans-37-2"
           x="63.623047"
           id="use471"
           transform="matrix(0.05432778,0,0,-0.05432778,-103.41261,658.56867)" /><use
           xlink:href="#DejaVuSans-35-71"
           x="127.24609"
           id="use472"
           transform="matrix(0.05432778,0,0,-0.05432778,-103.41261,658.56867)" /><use
           xlink:href="#DejaVuSans-30-4"
           x="190.86914"
           id="use473"
           transform="matrix(0.05432778,0,0,-0.05432778,-103.41261,658.56867)" /><use
           xlink:href="#m048bab4900"
           x="899.45953"
           y="187.75999"
           style="stroke:#000000;stroke-width:0.8"
           id="use474"
           transform="matrix(0.35277778,0,0,0.35277778,-397.40438,585.92912)" /><use
           xlink:href="#DejaVuSans-32-3"
           id="use476"
           transform="matrix(0.05432778,0,0,-0.05432778,-87.009938,658.56867)" /><use
           xlink:href="#DejaVuSans-30-4"
           x="63.623047"
           id="use477"
           transform="matrix(0.05432778,0,0,-0.05432778,-87.009938,658.56867)" /><use
           xlink:href="#DejaVuSans-30-4"
           x="127.24609"
           id="use478"
           transform="matrix(0.05432778,0,0,-0.05432778,-87.009938,658.56867)" /><use
           xlink:href="#DejaVuSans-30-4"
           x="190.86914"
           id="use479"
           transform="matrix(0.05432778,0,0,-0.05432778,-87.009938,658.56867)" /><use
           xlink:href="#m54bcdfe260"
           x="509.10999"
           y="182.21455"
           style="stroke:#000000;stroke-width:0.8"
           id="use480"
           transform="matrix(0.35277778,0,0,0.35277778,-397.40438,585.92912)" /><use
           xlink:href="#DejaVuSans-30-4"
           id="use482"
           transform="matrix(0.05432778,0,0,-0.05432778,-223.5705,652.26653)" /><use
           xlink:href="#m54bcdfe260"
           x="509.10999"
           y="149.88112"
           style="stroke:#000000;stroke-width:0.8"
           id="use484"
           transform="matrix(0.35277778,0,0,0.35277778,-397.40438,585.92912)" /><use
           xlink:href="#DejaVuSans-31-20"
           id="use486"
           transform="matrix(0.05432778,0,0,-0.05432778,-223.57494,640.86028)" /><use
           xlink:href="#m54bcdfe260"
           x="509.10999"
           y="117.54768"
           style="stroke:#000000;stroke-width:0.8"
           id="use488"
           transform="matrix(0.35277778,0,0,0.35277778,-397.40438,585.92912)" /><use
           xlink:href="#DejaVuSans-32-3"
           id="use490"
           transform="matrix(0.05432778,0,0,-0.05432778,-223.56398,629.457)" /><use
           xlink:href="#m54bcdfe260"
           x="509.10999"
           y="85.214241"
           style="stroke:#000000;stroke-width:0.8"
           id="use492"
           transform="matrix(0.35277778,0,0,0.35277778,-397.40438,585.92912)" /><use
           xlink:href="#DejaVuSans-33-2"
           id="use494"
           transform="matrix(0.05432778,0,0,-0.05432778,-223.56965,618.04697)" /><path
           d="M -217.80168,652.16668 V 609.12779"
           style="fill:none;stroke:#000000;stroke-width:0.282222;stroke-linecap:square;stroke-linejoin:miter"
           id="path498" /><path
           d="M -73.53758,652.16668 V 609.12779"
           style="fill:none;stroke:#000000;stroke-width:0.282222;stroke-linecap:square;stroke-linejoin:miter"
           id="path499" /><path
           d="m -217.80168,652.16668 h 144.2641"
           style="fill:none;stroke:#000000;stroke-width:0.282222;stroke-linecap:square;stroke-linejoin:miter"
           id="path500" /><path
           d="m -217.80168,609.12779 h 144.2641"
           style="fill:none;stroke:#000000;stroke-width:0.282222;stroke-linecap:square;stroke-linejoin:miter"
           id="path501" /><path
           d="m 527.69807,358.97454 3.71762,-45.26802 3.71761,-7.36428 3.71762,-2.05681 3.71761,-5.2571 3.71762,-2.87961 3.71761,-0.29514 3.71761,-1.15396 3.71762,-2.9066 3.71761,3.72287 3.71762,1.21176 3.71761,-6.26181 3.71762,1.34069 3.71761,-0.64137 3.71762,-7.31767 3.71761,0.81034 3.71762,-0.52141 3.71761,-0.3166 3.71761,-0.8323 3.71762,-4.86749 3.71761,-0.59138 3.71762,0.18846 3.71761,3.21295 3.71762,-0.28129 3.71761,0.54813 3.71762,2.05245 3.71761,-0.68625 3.71762,-2.76655 3.71761,-1.54788 3.71762,-4.58668 3.71761,2.18548 3.71761,-1.19533 3.71762,-1.20986 3.71761,1.67786 3.71762,-1.05933 3.71761,4.08365 3.71762,0.76754 3.71761,-3.27603 3.71762,0.95191 3.71761,1.25627 3.71762,-1.03528 3.71761,-1.03676 3.71762,-1.29793 3.71761,0.12648 3.71761,-0.38747 3.71762,1.14189 3.71761,0.1299 3.71762,3.01083 3.71761,-0.81604 3.71762,0.0629 3.71761,2.25835 3.71762,-0.36812 3.71761,-0.26019 3.71761,-2.71828 3.71762,0.79288 3.71761,-1.78525 3.71762,-3.62204 3.71761,2.72041 3.71762,-2.66496 3.71761,3.99474 3.71762,1.92012 3.71761,-2.02636 3.71762,0.10497 3.71761,-2.81452 3.71762,2.4727 3.71761,-3.41809 3.71762,0.58506 3.71761,2.14211 3.71761,2.89375 3.71762,-0.85541 3.71761,-0.59355 3.71762,-0.34837 3.71761,-1.82516 3.71762,-2.24192 3.71761,1.91154 3.71762,-4.16005 3.71761,0.66537 3.71761,-0.89833 3.71762,-2.06316 3.71761,1.77217 3.71762,-0.81119 3.71761,-2.12316 3.71762,2.11051 3.71761,2.36127 3.71762,-2.28491 3.71761,-1.40308 3.71762,-1.09798 3.71761,-0.21373 3.71762,-0.58874 3.71761,-1.37383 3.71761,-1.04421 3.71762,2.90562 3.71761,2.49419 3.71762,1.6436 3.71761,-4.53171 3.71762,1.74081 3.71761,-3.23906 3.71762,1.72065 3.71761,1.78029 3.71762,-1.82126 3.71761,-1.23446"
           clip-path="none"
           style="fill:none;stroke:#9bd93c;stroke-width:1.5;stroke-linecap:square;stroke-opacity:0.7"
           id="path664"
           transform="matrix(0.3527996,0,0,0.30946452,-397.41959,539.13173)" /><path
           d="m 527.69807,358.97454 3.71762,-45.87969 3.71761,-7.97597 3.71762,-3.84343 3.71761,-1.5492 3.71762,-3.96047 3.71761,-4.38584 3.71761,-0.63458 3.71762,-2.81338 3.71761,-1.49736 3.71762,-1.4535 3.71761,-3.3474 3.71762,-2.43133 3.71761,3.07292 3.71762,-5.08482 3.71761,-1.31647 3.71762,1.53321 3.71761,-7.38444 3.71761,-4.88924 3.71762,0.16162 3.71761,-0.82336 3.71762,-1.53851 3.71761,2.77079 3.71762,2.94618 3.71761,-0.86447 3.71762,1.74362 3.71761,-5.23064 3.71762,-3.101 3.71761,4.04483 3.71762,4.19101 3.71761,0.39241 3.71761,-1.05098 3.71762,4.02917 3.71761,-1.18978 3.71762,-3.83811 3.71761,0.10757 3.71762,-1.18095 3.71761,-3.02775 3.71762,-2.59271 3.71761,0.80986 3.71762,-3.59753 3.71761,3.35175 3.71762,-1.52493 3.71761,-0.70968 3.71761,1.74084 3.71762,0.89262 3.71761,-3.85493 3.71762,-0.57821 3.71761,1.66513 3.71762,-1.20976 3.71761,0.57642 3.71762,-0.35785 3.71761,2.15508 3.71761,-1.983 3.71762,2.09291 3.71761,-0.31843 3.71762,-1.91045 3.71761,0.005 3.71762,1.79229 3.71761,1.01816 3.71762,-0.20074 3.71761,0.0632 3.71762,0.62684 3.71761,0.46647 3.71762,-3.05588 3.71761,-1.76964 3.71762,2.59328 3.71761,-1.95928 3.71761,0.69382 3.71762,-0.56921 3.71761,-1.78671 3.71762,-1.76637 3.71761,1.33779 3.71762,-2.13957 3.71761,4.21431 3.71762,0.53666 3.71761,-5.25007 3.71761,3.55337 3.71762,-1.40617 3.71761,-1.44811 3.71762,-0.37496 3.71761,-0.23726 3.71762,2.51116 3.71761,-1.88665 3.71762,-0.47196 3.71761,-0.48327 3.71762,1.22627 3.71761,-1.04251 3.71762,0.093 3.71761,3.42453 3.71761,-3.29461 3.71762,0.51396 3.71761,1.5904 3.71762,-2.43953 3.71761,-1.03101 3.71762,0.57979 3.71761,-0.25309 3.71762,-0.7504 3.71761,-0.66992 3.71762,-0.0887 3.71761,-2.72199"
           clip-path="none"
           style="fill:none;stroke:#9bd93c;stroke-width:1.5;stroke-linecap:round;stroke-dasharray:1.5, 2.25;stroke-dashoffset:0;stroke-opacity:1"
           id="path665"
           transform="matrix(0.3527996,0,0,0.30946452,-397.41959,539.13173)" /><path
           d="m 527.69807,182.21452 3.71762,-35.90263 3.71761,-6.19852 3.71762,-3.49962 3.71761,-1.38444 3.71762,-3.08869 3.71761,-0.97203 3.71761,-2.38103 3.71762,-1.05256 3.71761,-0.39798 3.71762,-1.20644 3.71761,-6.11187 3.71762,-0.44783 3.71761,2.27054 3.71762,-2.44381 3.71761,-0.74651 3.71762,-0.99295 3.71761,-3.03503 3.71761,0.41535 3.71762,-2.04501 3.71761,1.93498 3.71762,-0.95338 3.71761,-1.58844 3.71762,-5.54496 3.71761,2.1881 3.71762,-2.79787 3.71761,3.5048 3.71762,-3.34142 3.71761,-3.76392 3.71762,3.13181 3.71761,-2.19916 3.71761,-4.660739 3.71762,0.372477 3.71761,-2.296811 3.71762,-4.874474 3.71761,0.604871 3.71762,-3.851056 3.71761,0.840704 3.71762,2.213339 3.71761,-3.092932 3.71762,-0.04385 3.71761,-2.720585 3.71762,-2.337037 3.71761,3.044368 3.71761,3.580515 3.71762,-1.704832 3.71761,-2.962681 3.71762,4.914276 3.71761,0.614477 3.71762,-3.011719 3.71761,1.380612 3.71762,-0.120947 3.71761,4.395698 3.71761,-5.023677 3.71762,-2.544829 3.71761,-0.913183 3.71762,3.312482 3.71761,-2.309173 3.71762,-2.419285 3.71761,-1.931209 3.71762,-3.012594 3.71761,-1.485174 3.71762,-3.568985 3.71761,-1.916707 3.71762,2.096099 3.71761,-2.722814 3.71762,2.443935 3.71761,-2.54711 3.71761,0.08894 3.71762,2.036186 3.71761,-1.620847 3.71762,6.896679 3.71761,-3.855476 3.71762,4.703695 3.71761,-0.759761 3.71762,1.607063 3.71761,-3.322146 3.71761,-0.606815 3.71762,1.769739 3.71761,5.539504 3.71762,-2.74879 3.71761,0.766985 3.71762,-4.351986 3.71761,6.803783 3.71762,-0.980387 3.71761,-2.921771 3.71762,3.587914 3.71761,-0.640659 3.71762,-1.603302 3.71761,-1.935116 3.71761,1.10946 3.71762,-0.918015 3.71761,-1.193284 3.71762,1.889766 3.71761,1.887431 3.71762,0.33388 3.71761,-2.285224 3.71762,0.662476 3.71761,-0.766597 3.71762,-0.356926 3.71761,-3.942543"
           clip-path="none"
           style="fill:none;stroke:#414487;stroke-width:1.5;stroke-linecap:square;stroke-opacity:0.7"
           id="path496"
           transform="matrix(0.35277778,0,0,0.35277778,-397.40438,585.92912)" /><path
           d="m 527.69807,182.21454 3.71762,-37.7923 3.71761,-2.04959 3.71762,-5.7006 3.71761,-2.92331 3.71762,0.61815 3.71761,-5.82348 3.71761,2.46469 3.71762,-3.86624 3.71761,-2.41814 3.71762,-1.73055 3.71761,-1.27583 3.71762,-1.44525 3.71761,-3.04001 3.71762,-3.72076 3.71761,2.91731 3.71762,-2.08189 3.71761,2.44565 3.71761,-1.17135 3.71762,-1.55849 3.71761,0.61921 3.71762,-3.08137 3.71761,-2.30272 3.71762,-1.20204 3.71761,-1.46729 3.71762,1.04514 3.71761,-3.94268 3.71762,3.31913 3.71761,-0.50857 3.71762,3.46102 3.71761,0.27587 3.71761,-4.49349 3.71762,-3.71615 3.71761,1.64609 3.71762,-1.38776 3.71761,3.48046 3.71762,-5.876579 3.71761,1.244199 3.71762,-1.542502 3.71761,0.981162 3.71762,-2.51779 3.71761,0.03578 3.71762,1.229908 3.71761,0.343314 3.71761,2.026088 3.71762,-2.160489 3.71761,0.155298 3.71762,-1.663216 3.71761,3.896537 3.71762,-1.7695 3.71761,-0.006 3.71762,-0.278617 3.71761,0.299267 3.71761,3.24324 3.71762,0.21805 3.71761,1.33841 3.71762,0.36699 3.71761,-4.764 3.71762,0.94837 3.71761,-0.0846 3.71762,1.43212 3.71761,-4.083386 3.71762,1.967816 3.71761,-2.184833 3.71762,-5.495639 3.71761,4.809345 3.71762,2.838227 3.71761,-0.958597 3.71761,-1.307373 3.71762,0.549254 3.71761,-2.604571 3.71762,2.709623 3.71761,-2.804628 3.71762,-1.2585 3.71761,0.671027 3.71762,0.755958 3.71761,-0.08612 3.71761,-7.087897 3.71762,0.392369 3.71761,0.805009 3.71762,1.842166 3.71761,0.553511 3.71762,2.34787 3.71761,1.231672 3.71762,0.65777 3.71761,-4.775371 3.71762,1.208092 3.71761,-2.827829 3.71762,2.150288 3.71761,-2.108872 3.71761,-1.077233 3.71762,-1.326501 3.71761,1.348004 3.71762,2.124462 3.71761,3.668294 3.71762,0.196923 3.71761,-2.18864 3.71762,-4.733301 3.71761,2.178715 3.71762,3.264437 3.71761,-1.413896"
           clip-path="none"
           style="fill:none;stroke:#414487;stroke-width:1.49953;stroke-linecap:round;stroke-dasharray:1.49953, 2.24929;stroke-dashoffset:0;stroke-opacity:1"
           id="path497"
           transform="matrix(0.35277778,0,0,0.35277778,-397.40438,585.92912)" /></g><g
         id="g857"><path
           d="M -217.80168,589.80968 H -73.537575 V 546.77079 H -217.80168 Z"
           style="fill:#ffffff;stroke-width:0.352778"
           id="path772" /><use
           xlink:href="#m048bab4900"
           x="84.898071"
           y="364.51999"
           style="stroke:#000000;stroke-width:0.8"
           id="use772"
           transform="matrix(0.35277778,0,0,0.35277778,-241.19438,461.21512)" /><use
           xlink:href="#DejaVuSans-30-4"
           id="use773"
           transform="matrix(0.05432778,0,0,-0.05432778,-212.97241,596.21167)" /><use
           xlink:href="#m048bab4900"
           x="131.36826"
           y="364.51999"
           style="stroke:#000000;stroke-width:0.8"
           id="use774"
           transform="matrix(0.35277778,0,0,0.35277778,-241.19438,461.21512)" /><use
           xlink:href="#DejaVuSans-32-3"
           id="use775"
           transform="matrix(0.05432778,0,0,-0.05432778,-200.03717,596.21167)" /><use
           xlink:href="#DejaVuSans-35-71"
           x="63.623047"
           id="use776"
           transform="matrix(0.05432778,0,0,-0.05432778,-200.03717,596.21167)" /><use
           xlink:href="#DejaVuSans-30-4"
           x="127.24609"
           id="use777"
           transform="matrix(0.05432778,0,0,-0.05432778,-200.03717,596.21167)" /><use
           xlink:href="#m048bab4900"
           x="177.83844"
           y="364.51999"
           style="stroke:#000000;stroke-width:0.8"
           id="use778"
           transform="matrix(0.35277778,0,0,0.35277778,-241.19438,461.21512)" /><use
           xlink:href="#DejaVuSans-35-71"
           id="use779"
           transform="matrix(0.05432778,0,0,-0.05432778,-183.64449,596.21167)" /><use
           xlink:href="#DejaVuSans-30-4"
           x="63.623047"
           id="use780"
           transform="matrix(0.05432778,0,0,-0.05432778,-183.64449,596.21167)" /><use
           xlink:href="#DejaVuSans-30-4"
           x="127.24609"
           id="use781"
           transform="matrix(0.05432778,0,0,-0.05432778,-183.64449,596.21167)" /><use
           xlink:href="#m048bab4900"
           x="224.30862"
           y="364.51999"
           style="stroke:#000000;stroke-width:0.8"
           id="use782"
           transform="matrix(0.35277778,0,0,0.35277778,-241.19438,461.21512)" /><use
           xlink:href="#DejaVuSans-37-2"
           id="use783"
           transform="matrix(0.05432778,0,0,-0.05432778,-167.25204,596.21167)" /><use
           xlink:href="#DejaVuSans-35-71"
           x="63.623047"
           id="use784"
           transform="matrix(0.05432778,0,0,-0.05432778,-167.25204,596.21167)" /><use
           xlink:href="#DejaVuSans-30-4"
           x="127.24609"
           id="use785"
           transform="matrix(0.05432778,0,0,-0.05432778,-167.25204,596.21167)" /><use
           xlink:href="#m048bab4900"
           x="270.77881"
           y="364.51999"
           style="stroke:#000000;stroke-width:0.8"
           id="use786"
           transform="matrix(0.35277778,0,0,0.35277778,-241.19438,461.21512)" /><use
           xlink:href="#DejaVuSans-31-20"
           id="use787"
           transform="matrix(0.05432778,0,0,-0.05432778,-152.59355,596.21167)" /><use
           xlink:href="#DejaVuSans-30-4"
           x="63.623047"
           id="use788"
           transform="matrix(0.05432778,0,0,-0.05432778,-152.59355,596.21167)" /><use
           xlink:href="#DejaVuSans-30-4"
           x="127.24609"
           id="use789"
           transform="matrix(0.05432778,0,0,-0.05432778,-152.59355,596.21167)" /><use
           xlink:href="#DejaVuSans-30-4"
           x="190.86914"
           id="use790"
           transform="matrix(0.05432778,0,0,-0.05432778,-152.59355,596.21167)" /><use
           xlink:href="#m048bab4900"
           x="317.24899"
           y="364.51999"
           style="stroke:#000000;stroke-width:0.8"
           id="use791"
           transform="matrix(0.35277778,0,0,0.35277778,-241.19438,461.21512)" /><use
           xlink:href="#DejaVuSans-31-20"
           id="use792"
           transform="matrix(0.05432778,0,0,-0.05432778,-136.19991,596.21167)" /><use
           xlink:href="#DejaVuSans-32-3"
           x="63.623047"
           id="use793"
           transform="matrix(0.05432778,0,0,-0.05432778,-136.19991,596.21167)" /><use
           xlink:href="#DejaVuSans-35-71"
           x="127.24609"
           id="use794"
           transform="matrix(0.05432778,0,0,-0.05432778,-136.19991,596.21167)" /><use
           xlink:href="#DejaVuSans-30-4"
           x="190.86914"
           id="use795"
           transform="matrix(0.05432778,0,0,-0.05432778,-136.19991,596.21167)" /><use
           xlink:href="#m048bab4900"
           x="363.71918"
           y="364.51999"
           style="stroke:#000000;stroke-width:0.8"
           id="use796"
           transform="matrix(0.35277778,0,0,0.35277778,-241.19438,461.21512)" /><use
           xlink:href="#DejaVuSans-31-20"
           id="use797"
           transform="matrix(0.05432778,0,0,-0.05432778,-119.80625,596.21167)" /><use
           xlink:href="#DejaVuSans-35-71"
           x="63.623047"
           id="use798"
           transform="matrix(0.05432778,0,0,-0.05432778,-119.80625,596.21167)" /><use
           xlink:href="#DejaVuSans-30-4"
           x="127.24609"
           id="use799"
           transform="matrix(0.05432778,0,0,-0.05432778,-119.80625,596.21167)" /><use
           xlink:href="#DejaVuSans-30-4"
           x="190.86914"
           id="use800"
           transform="matrix(0.05432778,0,0,-0.05432778,-119.80625,596.21167)" /><use
           xlink:href="#m048bab4900"
           x="410.18936"
           y="364.51999"
           style="stroke:#000000;stroke-width:0.8"
           id="use801"
           transform="matrix(0.35277778,0,0,0.35277778,-241.19438,461.21512)" /><use
           xlink:href="#DejaVuSans-31-20"
           id="use802"
           transform="matrix(0.05432778,0,0,-0.05432778,-103.41261,596.21167)" /><use
           xlink:href="#DejaVuSans-37-2"
           x="63.623047"
           id="use803"
           transform="matrix(0.05432778,0,0,-0.05432778,-103.41261,596.21167)" /><use
           xlink:href="#DejaVuSans-35-71"
           x="127.24609"
           id="use804"
           transform="matrix(0.05432778,0,0,-0.05432778,-103.41261,596.21167)" /><use
           xlink:href="#DejaVuSans-30-4"
           x="190.86914"
           id="use805"
           transform="matrix(0.05432778,0,0,-0.05432778,-103.41261,596.21167)" /><use
           xlink:href="#m048bab4900"
           x="456.65952"
           y="364.51999"
           style="stroke:#000000;stroke-width:0.8"
           id="use806"
           transform="matrix(0.35277778,0,0,0.35277778,-241.19438,461.21512)" /><use
           xlink:href="#DejaVuSans-32-3"
           id="use807"
           transform="matrix(0.05432778,0,0,-0.05432778,-87.009925,596.21167)" /><use
           xlink:href="#DejaVuSans-30-4"
           x="63.623047"
           id="use808"
           transform="matrix(0.05432778,0,0,-0.05432778,-87.009925,596.21167)" /><use
           xlink:href="#DejaVuSans-30-4"
           x="127.24609"
           id="use809"
           transform="matrix(0.05432778,0,0,-0.05432778,-87.009925,596.21167)" /><use
           xlink:href="#DejaVuSans-30-4"
           x="190.86914"
           id="use810"
           transform="matrix(0.05432778,0,0,-0.05432778,-87.009925,596.21167)" /><use
           xlink:href="#m54bcdfe260"
           x="66.309998"
           y="358.97458"
           style="stroke:#000000;stroke-width:0.8"
           id="use811"
           transform="matrix(0.35277778,0,0,0.35277778,-241.19438,461.29054)" /><use
           xlink:href="#DejaVuSans-30-4"
           id="use812"
           transform="matrix(0.05432778,0,0,-0.05432778,-223.5705,589.90954)" /><use
           xlink:href="#DejaVuSans-32-3"
           id="use813"
           transform="matrix(0.05432778,0,0,-0.05432778,-223.56398,569.13441)" /><path
           d="m -211.24423,587.85336 1.3115,-12.21068 1.31149,-5.1669 1.31149,-0.81984 1.31149,0.0568 1.31149,-2.11715 1.31149,-0.92477 1.31149,1.28111 1.3115,-1.43579 1.31149,0.26266 1.31149,0.55776 1.31149,-0.93094 1.3115,-1.80248 1.31149,0.0665 1.31149,3.59631 1.31149,-0.96623 1.31149,1.06062 1.31149,-2.67822 1.31149,-1.34507 1.3115,1.04037 1.31149,-2.91971 1.31149,-1.85627 1.31149,1.9338 1.3115,1.40757 1.31149,1.2927 1.31149,-0.13674 1.31149,-1.91193 1.31149,0.53019 1.31149,0.23976 1.3115,1.01449 1.31149,-0.24812 1.31149,-0.29838 1.31149,-0.93928 1.31149,-0.17113 1.3115,-1.77171 1.31149,0.84824 1.31149,-0.14893 1.31149,-0.86409 1.31149,-0.98332 1.31149,1.26004 1.3115,0.67794 1.31149,0.81685 1.31149,-1.65849 1.31149,-4.29986 1.31149,0.38783 1.3115,-0.3438 1.31149,-0.58588 1.31149,-0.1723 1.31149,-1.19574 1.31149,2.60615 1.31149,-0.10562 1.3115,0.0936 1.31149,-0.30558 1.31149,-3.18684 1.31149,3.43364 1.31149,-0.0407 1.3115,-2.57995 1.31149,-0.45282 1.31149,4.77791 1.31149,-3.54747 1.31149,0.2244 1.31149,-1.16625 1.3115,1.43882 1.31149,-0.27903 1.31149,0.23967 1.31149,-1.55813 1.31149,1.36286 1.3115,0.33681 1.31149,0.9614 1.31149,1.6002 1.31149,-0.36729 1.31149,-0.82933 1.31149,0.18447 1.3115,0.15257 1.31149,1.37395 1.31149,-2.09818 1.31149,1.21773 1.3115,-1.61947 1.31149,0.91218 1.31149,-1.30331 1.31149,0.9526 1.31149,-4.243 1.31149,1.41308 1.31149,2.93009 1.3115,-2.794 1.311487,2.85453 1.311494,-1.62052 1.31149,-2.02335 1.311494,-0.96228 1.31149,-1.42984 1.311491,1.10351 1.311493,1.17566 1.31149,0.45729 1.311494,-0.20032 1.31149,-1.79913 1.311494,3.47553 1.31149,-1.36664 1.311494,5.08956 1.31149,-2.79409 1.311494,-1.66278 1.31149,1.0703"
           clip-path="none"
           style="fill:none;stroke:#9bd93c;stroke-width:0.529167;stroke-linecap:square;stroke-opacity:0.7"
           id="path813" /><path
           d="m -211.24423,587.85335 1.3115,-12.79593 1.31149,-1.95001 1.31149,-3.00088 1.31149,0.30715 1.31149,-2.37644 1.31149,-0.84148 1.31149,-1.44543 1.3115,0.19608 1.31149,-1.19476 1.31149,0.96347 1.31149,-1.20897 1.3115,-0.77503 1.31149,-1.97361 1.31149,-2.31837 1.31149,1.06772 1.31149,2.44272 1.31149,-3.27228 1.31149,0.48075 1.3115,0.61648 1.31149,0.7621 1.31149,-4.23572 1.31149,0.21188 1.3115,0.88917 1.31149,1.1512 1.31149,-0.7823 1.31149,0.96684 1.31149,0.84381 1.31149,-0.33595 1.3115,0.76877 1.31149,1.02539 1.31149,-1.45475 1.31149,1.05561 1.31149,-1.36325 1.3115,-1.8742 1.31149,-2.39564 1.31149,1.48129 1.31149,-0.59626 1.31149,1.32712 1.31149,-0.94161 1.3115,1.33969 1.31149,1.91873 1.31149,-1.5975 1.31149,-0.51679 1.31149,-0.7522 1.3115,-0.54471 1.31149,0.99509 1.31149,-0.20346 1.31149,0.64769 1.31149,-1.11481 1.31149,0.86243 1.3115,-1.04441 1.31149,-0.027 1.31149,0.20295 1.31149,1.04245 1.31149,-0.82609 1.3115,0.15978 1.31149,-0.14438 1.31149,0.15925 1.31149,1.01031 1.31149,0.21236 1.31149,-1.83048 1.3115,0.0172 1.31149,0.005 1.31149,-1.94328 1.31149,1.42084 1.31149,-0.5652 1.3115,0.44062 1.31149,-2.87612 1.31149,1.99676 1.31149,-0.6709 1.31149,-2.40252 1.31149,-1.66429 1.3115,3.70878 1.31149,-1.51971 1.31149,0.72343 1.31149,-2.21223 1.3115,-0.25033 1.31149,-0.67989 1.31149,-0.0186 1.31149,0.28678 1.31149,-0.50053 1.31149,-0.0232 1.31149,0.33203 1.3115,-2.10414 1.311487,3.28307 1.311494,0.50672 1.31149,1.5392 1.311494,-0.0504 1.31149,-0.0928 1.311491,-0.97627 1.311493,0.67325 1.31149,0.12082 1.311494,0.0564 1.31149,0.55921 1.311494,-0.96862 1.31149,0.0837 1.311494,1.82228 1.31149,-0.37031 1.311494,-0.88584 1.31149,0.74777"
           clip-path="none"
           style="fill:none;stroke:#9bd93c;stroke-width:0.529167;stroke-linecap:round;stroke-dasharray:0.529167, 0.79375;stroke-dashoffset:0;stroke-opacity:1"
           id="path814" /><path
           d="M -217.80168,589.80968 V 546.77079"
           style="fill:none;stroke:#000000;stroke-width:0.282222;stroke-linecap:square;stroke-linejoin:miter"
           id="path815" /><path
           d="M -73.537575,589.80968 V 546.77079"
           style="fill:none;stroke:#000000;stroke-width:0.282222;stroke-linecap:square;stroke-linejoin:miter"
           id="path816" /><path
           d="M -217.80168,589.80968 H -73.537575"
           style="fill:none;stroke:#000000;stroke-width:0.282222;stroke-linecap:square;stroke-linejoin:miter"
           id="path817" /><path
           d="M -217.80168,546.77079 H -73.537575"
           style="fill:none;stroke:#000000;stroke-width:0.282222;stroke-linecap:square;stroke-linejoin:miter"
           id="path818" /><g
           id="g852"><use
             xlink:href="#DejaVuSans-43-1"
             id="use818"
             transform="matrix(0.06519334,0,0,-0.06519334,-158.40251,544.81766)" /><use
             xlink:href="#DejaVuSans-68-7"
             x="69.824219"
             id="use819"
             transform="matrix(0.06519334,0,0,-0.06519334,-158.40251,544.81766)" /><use
             xlink:href="#DejaVuSans-61-5"
             x="133.20312"
             id="use820"
             transform="matrix(0.06519334,0,0,-0.06519334,-158.40251,544.81766)" /><use
             xlink:href="#DejaVuSans-69-1"
             x="194.48242"
             id="use821"
             transform="matrix(0.06519334,0,0,-0.06519334,-158.40251,544.81766)" /><use
             xlink:href="#DejaVuSans-6e-7"
             x="222.26562"
             id="use822"
             transform="matrix(0.06519334,0,0,-0.06519334,-158.40251,544.81766)" /><use
             xlink:href="#DejaVuSans-41-1"
             x="317.43164"
             id="use823"
             transform="matrix(0.06519334,0,0,-0.06519334,-158.40251,544.81766)" /></g><use
           xlink:href="#DejaVuSans-31-20"
           id="use824"
           transform="matrix(0.05432777,0,0,-0.05206011,-223.57493,579.43433)" /><use
           xlink:href="#DejaVuSans-32-3"
           id="use825"
           transform="matrix(0.05432777,0,0,-0.05206011,-223.56397,569.0478)" /><use
           xlink:href="#DejaVuSans-33-2"
           id="use826"
           transform="matrix(0.05432777,0,0,-0.05206011,-223.56964,558.65479)" /><path
           d="m 84.898073,182.21454 3.717614,-42.16169 3.717615,-2.29472 3.717615,-7.92459 3.717614,-0.92205 3.717619,-5.21776 3.71761,-1.79247 3.71761,-4.3772 3.71762,-5.52736 3.71761,-1.10328 3.71762,0.81281 3.71761,-3.54916 3.71762,9.11791 3.71761,-10.36739 3.71762,5.52778 3.71761,4.12283 3.71762,2.3961 3.71761,-5.57239 3.71761,-0.18303 3.71762,1.99509 3.71761,3.37142 3.71762,-6.1909 3.71761,-6.62319 3.71762,-0.12104 3.71761,-1.28142 3.71762,-1.1169 3.71761,-4.457079 3.71762,-1.030576 3.71761,-1.190359 3.71762,-1.091122 3.71761,2.159673 3.71761,-5.470416 3.71762,5.741103 3.71761,4.790066 3.71762,-0.037 3.71761,-3.661399 3.71762,5.263219 3.71761,1.66136 3.71762,-1.57794 3.71761,-2.61537 3.71762,-1.08566 3.71761,-4.7307 3.71761,-11.839968 3.71762,2.696497 3.71761,-0.990974 3.71762,4.255078 3.71761,-4.861344 3.71762,2.399831 3.71761,0.15663 3.71762,-2.775276 3.71761,2.781361 3.71762,-4.586807 3.71761,-0.485914 3.71761,7.742312 3.71762,-1.930066 3.71761,-3.850462 3.71762,-12.546433 3.71761,-0.75875 3.71762,7.574825 3.71761,-2.900063 3.71762,4.748036 3.71761,9.008793 3.71762,-4.891039 3.71761,3.060291 3.71762,0.440451 3.71761,1.750398 3.71761,-2.703023 3.71762,3.247684 3.71761,-3.180519 3.71762,1.07958 3.71761,4.312574 3.71762,-0.752826 3.71761,4.328714 3.71762,0.183686 3.71761,-0.553421 3.71762,-3.587471 3.71761,-4.132988 3.71762,1.749844 3.71761,-0.309785 3.71761,3.592401 3.71762,1.970874 3.71761,-4.111044 3.71762,0.719792 3.71761,-2.495277 3.71762,0.960638 3.71761,-3.304285 3.71762,-1.081812 3.71761,-1.986544 3.71762,2.17589 3.71761,-4.788805 3.71761,0.999865 3.71762,-5.603134 3.71761,2.182874 3.71762,-3.514534 3.71761,6.843552 3.71762,-7.560784 3.71761,-0.502458 3.71762,2.509987 3.71761,2.692089 3.71762,-1.803726 3.71761,0.48488"
           clip-path="none"
           style="fill:none;stroke:#414487;stroke-width:1.5;stroke-linecap:square;stroke-opacity:0.7"
           id="path826"
           transform="matrix(0.35277771,0,0,0.33805266,-241.19437,526.25524)" /><path
           d="m 84.898073,182.21454 3.717614,-39.6897 3.717615,-5.0875 3.717615,-4.09415 3.717614,-4.34798 3.717619,-7.07915 3.71761,-3.00746 3.71761,-6.75718 3.71762,0.76369 3.71761,0.13589 3.71762,-8.6757 3.71761,3.07981 3.71762,-1.91067 3.71761,3.66344 3.71762,-8.5112 3.71761,-1.149767 3.71762,1.025107 3.71761,5.0983 3.71761,-2.30653 3.71762,3.92369 3.71761,0.29739 3.71762,-0.43711 3.71761,-1.60797 3.71762,-2.38467 3.71761,-1.00368 3.71762,-1.80064 3.71761,-1.505798 3.71762,2.482688 3.71761,-0.23222 3.71762,-3.828207 3.71761,1.30595 3.71761,3.248807 3.71762,-6.622677 3.71761,-3.568973 3.71762,6.925604 3.71761,-2.884844 3.71762,4.60424 3.71761,1.09857 3.71762,2.79629 3.71761,-6.245234 3.71762,-0.457073 3.71761,0.750275 3.71761,2.811692 3.71762,1.43057 3.71761,0.57863 3.71762,-2.25437 3.71761,-0.67172 3.71762,-2.678826 3.71761,-6.080176 3.71762,-5.693968 3.71761,8.418555 3.71762,3.210913 3.71761,-2.950915 3.71761,1.110977 3.71762,2.46953 3.71761,0.943654 3.71762,-4.9833 3.71761,2.988066 3.71762,1.947145 3.71761,4.898295 3.71762,-0.39103 3.71761,2.42377 3.71762,-1.82889 3.71761,-1.76725 3.71762,-3.381991 3.71761,2.370681 3.71761,-1.320909 3.71762,1.992549 3.71761,-3.608375 3.71762,0.426059 3.71761,3.328456 3.71762,-9.999473 3.71761,-2.012521 3.71762,3.636281 3.71761,0.22439 3.71762,6.090926 3.71761,-1.760351 3.71762,2.228188 3.71761,-5.923302 3.71761,-5.49236 3.71762,3.599517 3.71761,4.098657 3.71762,-2.363932 3.71761,0.326957 3.71762,-8.384894 3.71761,-0.201878 3.71762,1.409988 3.71761,-0.501872 3.71762,-9.361312 3.71761,3.821899 3.71761,-0.921673 3.71762,6.988494 3.71761,3.717926 3.71762,-2.013104 3.71761,-0.221285 3.71762,-2.80646 3.71761,-4.933232 3.71762,-7.92813 3.71761,3.510303 3.71762,6.627622 3.71761,8.435228"
           clip-path="none"
           style="fill:none;stroke:#414487;stroke-width:1.5;stroke-linecap:round;stroke-dasharray:1.5, 2.25;stroke-dashoffset:0;stroke-opacity:1"
           id="path827"
           transform="matrix(0.35277771,0,0,0.33805266,-241.19437,526.25524)" /><use
           xlink:href="#m54bcdfe260"
           x="66.309998"
           y="358.97458"
           style="stroke:#000000;stroke-width:0.8"
           id="use827"
           transform="matrix(0.35277778,0,0,0.35277778,-241.19438,450.89832)" /><use
           xlink:href="#m54bcdfe260"
           x="66.309998"
           y="358.97458"
           style="stroke:#000000;stroke-width:0.8"
           id="use828"
           transform="matrix(0.35277778,0,0,0.35277778,-241.19438,440.47763)" /><use
           xlink:href="#m54bcdfe260"
           x="66.309998"
           y="358.97458"
           style="stroke:#000000;stroke-width:0.8"
           id="use829"
           transform="matrix(0.35277778,0,0,0.35277778,-241.19438,430.12163)" /><path
           d="m -159.40421,586.91666 h 82.4094 c 0.65852,0 0.98778,-0.32926 0.98778,-0.98778 v -14.00483 c 0,-0.65852 -0.32926,-0.98778 -0.98778,-0.98778 h -82.4094 c -0.65852,0 -0.98778,0.32926 -0.98778,0.98778 v 14.00483 c 0,0.65852 0.32926,0.98778 0.98778,0.98778 z"
           style="opacity:0.8;fill:#ffffff;stroke:#cccccc;stroke-width:0.353;stroke-linejoin:miter;stroke-dasharray:none"
           id="path671"
           sodipodi:nodetypes="sssssssss" /><path
           d="m -104.81387,574.936 h 4.93889 4.93889"
           style="fill:none;stroke:#666666;stroke-width:0.529167;stroke-linecap:square;stroke-opacity:0.7"
           id="path672" /><use
           xlink:href="#DejaVuSans-72-0"
           id="use674"
           transform="matrix(0.04938889,0,0,-0.04938889,-90.98498,576.66461)" /><use
           xlink:href="#DejaVuSans-75-8"
           x="41.113281"
           id="use675"
           transform="matrix(0.04938889,0,0,-0.04938889,-90.98498,576.66461)" /><use
           xlink:href="#DejaVuSans-6e-7"
           x="104.49219"
           id="use676"
           transform="matrix(0.04938889,0,0,-0.04938889,-90.98498,576.66461)" /><use
           xlink:href="#DejaVuSans-31-20"
           x="199.6582"
           id="use678"
           transform="matrix(0.04938889,0,0,-0.04938889,-90.98498,576.66461)" /><path
           d="m -104.81387,582.18536 h 4.93889 4.93889"
           style="fill:none;stroke:#666666;stroke-width:0.529167;stroke-linecap:round;stroke-dasharray:0.529167, 0.79375;stroke-dashoffset:0;stroke-opacity:1"
           id="path678" /><use
           xlink:href="#DejaVuSans-72-0"
           id="use679"
           transform="matrix(0.04938889,0,0,-0.04938889,-90.98498,583.91397)" /><use
           xlink:href="#DejaVuSans-75-8"
           x="41.113281"
           id="use680"
           transform="matrix(0.04938889,0,0,-0.04938889,-90.98498,583.91397)" /><use
           xlink:href="#DejaVuSans-6e-7"
           x="104.49219"
           id="use681"
           transform="matrix(0.04938889,0,0,-0.04938889,-90.98498,583.91397)" /><use
           xlink:href="#DejaVuSans-32-3"
           x="199.6582"
           id="use683"
           transform="matrix(0.04938889,0,0,-0.04938889,-90.98498,583.91397)" /><path
           d="m -154.93629,574.936 h 4.93889 4.93889"
           style="fill:none;stroke:#414487;stroke-width:2;stroke-linecap:butt;stroke-dasharray:none;stroke-opacity:1"
           id="path762" /><path
           d="m -154.93629,582.18536 h 4.93889 4.93889"
           style="fill:none;stroke:#9bd93c;stroke-width:2;stroke-linecap:butt;stroke-dasharray:none;stroke-dashoffset:0;stroke-opacity:1"
           id="path765" /><text
           xml:space="preserve"
           style="font-style:normal;font-variant:normal;font-weight:normal;font-stretch:normal;font-size:4.93889px;line-height:1.25;font-family:sans-serif;-inkscape-font-specification:sans-serif;text-orientation:upright;stroke-width:0.264583"
           x="-142.55063"
           y="576.81628"
           id="text769"><tspan
             sodipodi:role="line"
             id="tspan769"
             style="font-style:normal;font-variant:normal;font-weight:normal;font-stretch:normal;font-size:4.93889px;font-family:sans-serif;-inkscape-font-specification:sans-serif;stroke-width:0.264583"
             x="-142.55063"
             y="576.81628">Ligand 0156</tspan></text><text
           xml:space="preserve"
           style="font-style:normal;font-variant:normal;font-weight:normal;font-stretch:normal;font-size:4.93889px;line-height:1.25;font-family:sans-serif;-inkscape-font-specification:sans-serif;text-orientation:upright;stroke-width:0.264583"
           x="-142.52409"
           y="584.00079"
           id="text770"><tspan
             sodipodi:role="line"
             id="tspan770"
             style="font-style:normal;font-variant:normal;font-weight:normal;font-stretch:normal;font-size:4.93889px;font-family:sans-serif;-inkscape-font-specification:sans-serif;stroke-width:0.264583"
             x="-142.52409"
             y="584.00079">Ligand 1258</tspan></text></g></g></g></svg>
